<svg width="48" height="48" viewBox="0 0 48 48" fill="none" xmlns="http://www.w3.org/2000/svg">
<path d="M27.25 18.25C27.58 18.085 27.9975 18.0825 28.2487 18.125C28.2883 18.1317 28.005 17.92 27.795 17.9588C26.7514 18.1514 26.255 20.24 26.2475 21.7875C26.2459 22.1137 26.99 22 27.4925 21.7525C29.5163 20.7557 30.74 19.01 31.7887 17.5463C33.1624 15.629 33.5 12.09 33.3762 11.09C33.3318 10.7309 33.005 10.75 32.5475 10.9975C30.2732 12.2279 29.34 13.91 28.2125 15.245C26.4034 17.387 24.6675 20.08 24.6662 20.58C24.6603 22.9461 30.99 16.26 31.7487 15.0038C32.0205 14.5538 32 13.755 31.835 12.9638C31.4669 11.1986 26.435 12.83 23.9262 13.87C22.0617 14.643 20.505 15.58 19.7137 16.2038C19.3861 16.4621 19.335 16.745 19.4575 16.8725C20.551 18.0107 23.325 15.005 24.2475 14.0038C24.4521 13.7817 24.58 13.505 24.5412 13.5425C24.2065 13.8665 23.835 14.4975 23.4612 14.8313C23.2928 14.9817 23.005 14.835 22.795 14.6688C21.8342 13.9082 21.42 12.505 20.545 11.2963C19.7765 10.2347 18.59 9.42003 17.5037 8.83503C16.5951 8.3457 13.855 8.25003 11.7962 8.49878C10.63 8.63968 9.50497 9.16503 8.50372 9.45753C8.02325 9.59789 7.50247 9.66503 7.12747 10.0388C6.43231 10.7316 6.74997 15.79 7.32997 18.7463C7.47725 19.4969 8.57997 19.5825 9.45122 19.7075C10.7227 19.8899 11.9125 19.5025 12.6612 19.0038C13.7936 18.2495 14.08 16.84 14.665 15.2988C14.8594 14.7866 14.75 14.015 14.585 13.5088C14.0902 11.9907 12.34 11.835 11.1712 11.5425C10.8448 11.4608 10.425 11.5 10.0887 11.665C9.40162 12.0022 9.08497 12.83 8.83497 13.7013C8.48012 14.9379 8.91497 15.9975 9.32997 16.455C10.2205 17.4368 13.805 17.25 16.0375 16.7113C16.7877 16.5302 17.165 15.67 17.4562 15.0463C17.7017 14.5206 17.75 13.5075 17.6262 12.2588C17.5748 11.7402 17.255 11.505 17.0037 11.3363C16.1028 10.7312 14.7575 10.75 13.4675 10.915C12.9003 10.9876 12.59 11.41 12.3787 11.7038C12.0192 12.2037 12 13.2425 12.1237 14.45C12.1728 14.9287 12.495 15.08 12.7462 15.2063C13.2293 15.449 14.2425 15.5 15.45 15.3763C15.9287 15.3272 16.08 15.005 16.165 14.7538C16.25 14.5025 16.25 14.255 16.1262 14.045C15.5801 13.1182 13.595 13.25 11.9637 13.54C10.399 13.8182 9.33997 14.83 7.96372 15.8288C6.40838 16.9575 6.16997 18.245 6.08247 20.0763C6.02004 21.3829 7.32997 22.41 8.16372 23.4963C8.87114 24.4179 9.24497 25.91 10.205 26.9963C11.0085 27.9054 11.83 28.745 13.1612 30.0788C14.0133 30.9324 14.995 31.58 15.9537 32.6613C17.619 34.5393 18.495 35.495 19.33 36.5375C20.3446 37.8043 21.495 38.33 22.2887 39.205C22.6855 39.6424 23.2475 39.8325 23.7462 39.9575C23.9934 40.0195 24.245 40 24.3725 39.8763C25.1329 39.1382 24.75 35.855 24.2525 31.6388C23.9812 29.3401 22.92 27.755 22.4187 26.795C21.9133 25.827 21.005 24.51 20.46 23.2125C19.8163 21.6802 19.4175 20.2525 19.2512 20.0013C18.2831 18.5382 19.495 26.065 19.8737 27.9938C20.349 30.4142 21.165 31.2475 21.415 31.4988C22.0113 32.0981 21.75 25.71 20.8787 20.8038C20.4997 18.6693 19.335 17.255 18.2962 16.5438C18.0324 16.3631 17.755 16.335 17.5037 16.6638C15.9203 18.7356 16.585 21.16 16.5825 24.1963C16.5815 25.3518 17.165 26.3275 17.58 27.3675C17.9439 28.2797 18.7475 28.5825 19.2462 28.7488C19.4975 28.8325 19.745 28.915 19.955 28.7925C21.565 27.8533 20.005 23.68 19.0462 22.0888C17.7208 19.889 16.005 19.67 14.755 19.21C14.0741 18.9595 13.09 18.75 11.9662 18.9563C11.467 19.0479 11.255 19.575 11.1275 20.2C10.8365 21.6262 11.165 22.7475 11.58 23.2875C12.5728 24.5794 13.995 24.665 15.5362 24.585C16.8212 24.5183 16.25 21.43 15.67 20.045C15.5439 19.7439 15.09 19.67 14.7962 19.6263C14.5025 19.5825 14.255 19.665 14.0037 19.9963C13.3773 20.8222 13.25 22.4075 13.2912 23.9063C13.3146 24.7538 13.7475 25.2475 14.2462 25.6638C14.675 26.0216 15.33 26 15.83 25.8763C16.8677 25.6195 16.25 23.01 15.9187 21.7125C15.7338 20.9883 15.0025 20.5025 14.5037 20.21C14.2835 20.0809 14.005 20.33 13.8775 20.5388C13.2816 21.5144 13.5 25.14 14.205 27.495C14.6179 28.8743 15.91 29.58 17.0375 30.455C18.56 31.6366 20.825 32.665 21.9137 32.8338C22.9436 32.9934 23.08 30.59 23.4575 29.5038C24.0111 27.9109 24.58 25.175 25.2475 22.5938C25.8168 20.3923 26.3325 19.42 26.54 19.3738C31.5344 18.2606 27.0825 30.7475 27.2075 30.9988C27.5445 31.6762 27.665 28.76 27.6262 25.51C27.6209 25.0626 27.255 25.41 27.0862 25.745C26.3966 27.1141 25.175 28.99 23.7962 30.91C22.8628 32.2099 22.75 33.6575 22.915 34.8675C23.0736 36.0307 24.91 32.925 26.0375 31.9613C26.6242 31.4598 27.2475 31.085 27.6225 31C28.0412 30.9051 27.42 32.245 26.1287 34.6575C25.8814 35.1197 26.245 35.33 26.4962 35.3738C27.5228 35.5525 28.495 34.42 29.2887 33.5038C30.1582 32.5001 30.9975 32.085 31.2487 31.9588C32.1668 31.4975 29.67 33.165 29.1287 33.2913C28.9196 33.3401 28.835 33.005 28.9575 32.63C29.6994 30.3588 31.83 28.84 32.705 27.7538C33.5177 26.7448 33.915 25.505 34.0825 24.5038C34.1743 23.9546 34.5 22.6775 34.2112 21.0525C34.1022 20.4387 33.345 20.5 32.9237 20.5413C31.5626 20.6746 30.09 21.495 28.5062 22.5375C26.4147 23.9142 24.84 26.74 24.4575 27.8725C23.7973 29.8271 29.66 26.005 31.0362 25.1288C32.7294 24.0508 33.08 22.505 33.665 20.6738C34.0499 19.4689 34 18.42 33.835 18.0025C33.3975 16.8955 31.095 20.65 30.4575 22.1638C29.8227 23.671 34.41 20.42 36.0775 18.425C37.1103 17.1894 37 15.015 36.585 13.5038C36.3162 12.5249 35.755 11.505 35.1687 10.545C34.8777 10.0685 34.2525 9.91753 33.3825 9.79253C30.5245 9.38191 29.7525 10.5825 29.5012 10.6663C28.7267 10.9245 31.245 9.83503 32.3287 9.54253C33.7038 9.17141 37.385 9.25003 39.7462 9.54003C40.8972 9.68138 41.33 11.245 41.5825 12.6613C42.0397 15.2258 41.67 19.41 41.21 20.7038C40.8159 21.8121 40.005 22.745 39.2112 23.705C38.4584 24.6156 37.505 25.165 36.5037 25.9138C36.0565 26.2482 35.5025 26.415 35.1275 26.4175C33.7118 26.427 35.58 23.84 36.2475 22.7538C37.0101 21.5127 37.83 19.84 38.2075 18.7538C38.5963 17.6349 38.75 15.925 38.9575 14.6713C39.0124 14.3393 39 13.925 39 14.2075C39 17.5066 37.7525 19.995 37.3362 20.5388C36.5408 21.5779 37.25 17.26 37.4575 15.9213C37.6756 14.5138 37.75 12.185 37.2112 10.5863C36.8771 9.59485 35.255 9.67003 34.2537 9.45878C33.7509 9.35269 32.51 9.25003 30.8862 9.33253C29.2425 9.41604 28.255 11.08 27.3775 11.7488C27.276 11.8261 27.25 11.505 27.3737 11.2538C27.9339 10.1164 29.245 9.83503 30.2462 9.29378C30.7219 9.03667 31.2475 8.91753 31.8287 8.79253C33.2302 8.49114 34.41 9.99503 35.6625 10.7888C36.6919 11.4412 36.915 12.745 37.2075 14.1175C37.5437 15.6952 36.92 17.41 36.2962 18.4925C35.8974 19.1847 35.335 19.4975 35.0437 19.7488C33.9751 20.6706 36.495 15.015 36.9987 13.2963C37.0846 13.0032 37.165 12.755 37.2075 12.4213C37.25 12.0875 37.25 11.675 36.6312 11.4625C33.4333 10.3643 32.255 11.5 31.0062 11.9138C28.4795 12.751 27.755 14.495 26.5462 16.2013C25.4015 17.8171 24.42 18.995 23.7112 20.7013C23.0445 22.3064 22.255 23.575 21.71 24.7875C21.1516 26.0297 20.585 26.995 20.0025 27.9563C19.1685 29.3325 19.335 23.755 19.2087 21.3013C19.1033 19.2521 18.835 16.59 18.7087 13.4288C18.6817 12.7518 18.585 12.505 18.4187 12.3775C18.2525 12.25 18.005 12.25 17.7537 12.3325C16.5457 12.7292 15.505 13.83 14.5037 14.6638C13.6433 15.3803 12.505 15.665 11.7525 16.4963C10.9449 17.3884 10.75 18.495 10.5012 19.5788C9.86759 22.3394 10.745 26.74 11.7875 28.2038C12.266 28.8757 13.4925 29.33 14.9475 29.83C17.1226 30.5775 18.41 29.005 19.4962 28.17C20.7156 27.2327 21.495 25.84 22.4137 23.675C23.0551 22.1637 23.165 20.755 23.1675 18.4675C23.1685 17.5558 22.585 17.0025 22.2112 16.545C22.0239 16.3157 21.755 16.17 21.4625 16.085C21.17 16 20.84 16 20.505 16.33C18.9047 17.9064 19 19.245 18.7925 20.7C18.5298 22.5419 18.9975 24.08 19.5375 24.7038C20.5605 25.8854 21.995 25.75 23.6587 25.9575C25.9975 25.7525 26.7475 25.1675 27.3287 24.8775C27.6625 24.67 28.075 24.34 29 23.5" stroke="#B99EF6" stroke-width="5" stroke-linecap="round"/>
<path d="M41.68 9.21999C40.6585 8.198 39.4456 7.38728 38.1107 6.83416C36.7758 6.28103 35.345 5.99634 33.9 5.99634C32.455 5.99634 31.0242 6.28103 29.6893 6.83416C28.3544 7.38728 27.1415 8.198 26.12 9.21999L24 11.34L21.88 9.21999C19.8166 7.15661 17.0181 5.99741 14.1 5.99741C11.1819 5.99741 8.38338 7.15661 6.31999 9.21999C4.25661 11.2834 3.09741 14.0819 3.09741 17C3.09741 19.9181 4.25661 22.7166 6.31999 24.78L24 42.46L41.68 24.78C42.702 23.7585 43.5127 22.5456 44.0658 21.2107C44.6189 19.8758 44.9036 18.445 44.9036 17C44.9036 15.555 44.6189 14.1242 44.0658 12.7893C43.5127 11.4544 42.702 10.2415 41.68 9.21999Z" stroke="#B99EF6" stroke-width="4" stroke-linecap="round" stroke-linejoin="round"/>
</svg>
