<svg width="48" height="48" viewBox="0 0 48 48" fill="none" xmlns="http://www.w3.org/2000/svg">
<path d="M22.9375 13.25C22.9169 13.1256 22.7925 12.835 22.584 12.5634C22.4288 12.3612 22.23 12.1888 21.939 11.9284C21.3617 11.4118 21.1887 11.1675 20.9281 10.9384C20.6428 10.6877 20.4175 10.5013 20.1884 10.3131C19.9593 10.125 19.6275 9.87626 19.3653 9.64657C19.1618 9.46835 18.67 9.23126 17.9503 8.80345C17.5528 8.56718 17.0437 8.29251 16.7406 8.13595C16.3953 7.95758 15.96 7.79251 15.6781 7.68782C15.3414 7.56278 14.96 7.41751 14.6159 7.30251C14.2279 7.17283 13.8975 7.08376 13.5637 7.01063C13.2363 6.93889 12.0725 6.93751 11.3137 6.9997C10.955 7.02909 10.585 7.10376 10.2409 7.23907C9.85257 7.3918 9.41873 7.45751 8.74217 7.83188C8.09695 8.18891 7.39748 8.79001 7.03279 9.10282C6.5451 9.52114 6.31373 9.79001 6.01185 10.1544C5.44508 10.8385 5.35498 11.1863 5.00123 12.3288C4.85617 12.7973 4.87498 13.6388 5.00967 14.3319C5.02859 14.4293 5.12373 14.4575 5.20717 14.4788C5.38913 14.5251 5.6856 14.3969 6.06998 14.1581C6.49843 13.892 7.07935 13.1719 7.72467 12.2978C8.34359 11.4595 8.41623 11.0006 8.47873 10.8656C8.51072 10.7965 8.49998 10.71 8.42779 10.6881C8.21971 10.6251 7.89748 10.8325 7.2556 11.2772C6.76337 11.6182 5.99498 12.2788 5.29217 12.9278C4.58935 13.5769 3.99123 14.2163 3.64185 14.6075C3.29248 14.9988 3.20998 15.1225 3.14685 15.2275C3.08373 15.3325 3.04248 15.415 3.75342 14.8491C4.46435 14.2831 5.92873 13.0663 7.07498 12.1713C8.22123 11.2763 9.00498 10.74 9.44998 10.4431C9.9712 10.0954 10.1244 10.0213 10.2078 10C10.2363 9.99275 10.2087 10.1025 9.5381 10.9906C8.86748 11.8788 7.54748 13.57 6.67154 14.7506C5.7956 15.9313 5.40373 16.55 5.28435 16.7863C5.16498 17.0225 5.32998 16.8575 6.94123 15.6381C8.55248 14.4188 11.605 12.15 13.2497 10.9091C14.8944 9.66813 15.0387 9.52376 14.9894 9.52157C14.94 9.51938 14.6925 9.66376 13.1934 10.7281C11.6944 11.7925 8.95123 13.7725 7.44529 14.8441C5.5059 16.2241 5.22998 16.3744 5.1256 16.4166C5.09832 16.4276 5.14498 16.2938 5.81592 15.4878C6.48685 14.6819 7.78623 13.1763 8.61029 12.2769C9.43435 11.3775 9.74373 11.13 10.0475 10.8581C10.3512 10.5863 10.64 10.2975 11.129 9.86001C13.0237 8.16511 13.2287 8.06313 13.25 8.00032C13.2564 7.98135 13.1475 8.06126 12.0119 8.7222C10.8762 9.38313 8.68998 10.6413 7.67717 11.1863C6.66435 11.7313 6.89123 11.525 7.41029 11.1403C7.92935 10.7556 8.73373 10.1988 9.44717 9.74688C11.4244 8.49457 11.8112 8.41751 11.9997 8.3747C12.1522 8.34004 11.6687 8.89313 10.9231 9.79438C10.3929 10.4352 9.51748 11.4175 9.0506 11.9584C8.58373 12.4994 8.54248 12.5613 9.29467 12.2219C10.0469 11.8825 11.5937 11.14 13.2053 10.4791C14.8169 9.81813 16.4462 9.26126 17.2753 9.00532C18.1044 8.74938 18.0837 8.81126 18.0422 8.87407C17.8228 9.20562 17.3556 9.43626 16.8584 9.79907C16.5142 10.0503 15.9487 10.3888 14.1562 11.1881C12.3637 11.9875 9.35248 13.225 7.70842 13.8831C6.06435 14.5413 5.87873 14.5825 5.76248 14.5728C5.64623 14.5631 5.60498 14.5013 5.59404 14.4384C5.57259 14.3152 5.7281 14.085 6.37935 13.3503C6.90376 12.7587 7.91748 11.8113 8.57185 11.1984C9.22623 10.5856 9.51498 10.3588 10.2825 9.86032C11.05 9.36188 12.2875 8.59876 12.8425 8.31907C13.3975 8.03938 13.2325 8.26626 12.6319 8.89876C12.0312 9.53126 11 10.5625 10.4275 11.1453C9.60653 11.9811 9.45873 12.1869 9.44779 12.2291C9.33495 12.6643 10.165 11.6888 11.1162 11.1403C11.8904 10.694 13.305 9.99376 14.1615 9.57032C15.7481 8.78601 16.5387 8.62626 16.8744 8.5622C17.0171 8.53494 16.6887 8.95688 15.769 9.83563C14.986 10.5838 13.5087 11.89 12.1047 13.0238C10.7006 14.1575 9.40123 15.065 8.73185 15.4913C8.06248 15.9175 8.06248 15.835 8.17592 15.6791C8.28935 15.5231 8.51623 15.2963 9.67467 14.4266C10.8331 13.5569 12.9162 12.0513 14.0203 11.2447C15.1244 10.4381 15.1862 10.3763 15.1872 10.3856C15.1981 10.4953 14.9387 10.6863 14.1944 11.2656C13.5868 11.7385 12.46 12.505 11.845 12.95C11.1475 13.4775 10.9387 13.645 10.7203 13.7906C10.6256 13.8538 10.5637 13.895 10.5 13.8125" stroke="#322F2C" stroke-width="2" stroke-linecap="round"/>
<path d="M13.3125 11.625C13.8744 11.3131 14.4125 10.8987 14.8944 10.5844C15.3647 10.2775 15.6025 9.8775 15.8222 9.40812C15.9585 9.11691 16 8.75187 15.9691 8.45C15.9568 8.33033 15.8763 8.2925 15.8031 8.26094C15.4247 8.09758 14.7325 8.27 14.3241 8.47844C14.0074 8.64002 13.73 8.99875 13.6253 9.25937C13.5653 9.40884 13.5625 9.62375 13.6038 9.83187C13.6657 10.1444 14.1238 10.0412 14.6438 10.0522C15.0114 10.0599 15.2488 9.83375 15.4269 9.70875C15.4459 9.69541 15.335 9.6875 14.8388 10.0072C14.3425 10.3269 13.435 10.9662 12.7406 11.4916C12.0463 12.0169 11.5925 12.4087 11.0494 12.9612C10.5063 13.5137 9.8875 14.215 9.48625 14.7103C8.88794 15.4489 8.62625 16.0387 8.38719 16.6412C8.13647 17.2731 8.04188 18.1406 8.02094 19.0147C7.99924 19.9207 8.53875 20.6625 9.10157 21.1237C9.52174 21.4681 10.3088 21.375 10.9641 21.3544C11.4376 21.3395 11.9756 21.0644 12.61 20.6903C13.141 20.3772 13.5806 19.795 14.09 19.1094C14.5991 18.4242 14.8531 17.6906 15.0094 17.0878C15.1509 16.5418 15.0213 16.085 14.9072 15.7525C14.7851 15.3967 14.2125 14.9612 13.4534 14.4722C12.8772 14.1009 12.1913 14.0212 11.3503 13.9691C10.3257 13.9055 9.48188 14.1031 8.85907 14.4244C8.00611 14.8643 7.31563 15.6837 6.80563 16.3287C6.28517 16.987 6.3125 17.56 6.27094 17.9881C6.26182 18.0821 6.29125 18.165 6.36375 18.2487C6.43625 18.3325 6.56 18.415 7.21157 18.5606C7.86313 18.7062 9.03875 18.9125 10.1084 19.0084C11.1781 19.1044 12.1063 19.0837 12.7597 18.9906C13.786 18.8444 14.2488 18.48 14.4775 18.3137C15.1206 17.8464 15.2913 16.6062 15.2816 16.1681C15.2781 16.012 15.0219 15.9794 14.7934 15.9481C14.526 15.9115 14.1481 15.9787 13.5672 16.1341C12.7161 16.3616 11.9613 16.79 11.2866 17.2256C10.3848 17.8079 9.64875 18.6212 9.13907 19.3591C8.35897 20.4883 8.5625 21.5775 8.65563 22.0719C8.73783 22.5083 9.58 22.4787 10.2372 22.4897C10.8187 22.4994 11.3513 22.1475 11.8628 21.7309C12.4368 21.2635 12.7475 20.0075 12.9269 19.1378C12.9878 18.8423 12.9581 18.5431 12.9688 18.2625C12.9788 17.9977 12.7513 17.6894 12.3678 17.2844C11.8167 16.7023 11.065 16.4594 10.5766 16.2825C10.1236 16.1185 9.35938 16.0837 8.45438 16.0316C7.81849 15.9949 7.35625 16.1656 6.92 16.4044C6.42503 16.6753 6.00188 17.0812 5.63813 17.5072C5.2724 17.9354 4.98063 18.435 4.7 18.9647C4.3975 19.5357 4.25063 20.1225 4.14657 20.7141C4.01148 21.482 4.08313 22.0612 4.135 22.3003C4.18381 22.5252 4.31188 22.6869 4.43657 22.7909C4.66575 22.9822 5.04 23.0412 5.45657 23.0728C6.01865 23.1154 6.6425 22.9387 7.19594 22.6678C7.97111 22.2883 8.4775 21.315 8.96469 20.3006C9.32481 19.5508 9.76125 18.255 10.0263 17.4931C10.5158 16.0857 10.3338 15.2937 10.1778 14.9594C10.1125 14.8193 9.81438 14.7506 9.45063 14.6878C9.10722 14.6285 8.71063 15.0187 8.23282 15.5066C7.66044 16.0909 7.21063 16.8712 6.76375 17.8153C6.1638 19.0828 6.125 20.185 6.14563 20.5909C6.15374 20.7505 6.2075 20.8112 6.27 20.8741C6.40489 21.0096 6.70625 21.0625 7.06 21.0419C7.29778 21.028 7.58125 20.7931 8.04844 20.3681C8.71241 19.7641 9.02 19.0644 9.18625 18.6284C9.3943 18.0829 9.4375 17.42 9.36532 16.8891C9.33655 16.6775 9.14875 16.6262 9.03313 16.5944C8.83967 16.541 8.62625 16.5831 8.35625 16.6556C8.02883 16.7435 7.48313 17.2256 6.80688 17.86C6.32198 18.3149 5.89875 19.0575 5.42 19.9312C5.09182 20.5302 4.98 21.2044 4.855 21.9528C4.74508 22.611 4.85375 23.0406 4.94719 23.2484C5.0444 23.4646 5.22813 23.645 5.44625 23.7906C5.66296 23.9353 5.95688 23.9581 6.39219 23.9791C7.1157 24.0139 7.99563 23.7725 8.755 23.4606C9.30754 23.2337 9.665 22.9387 10.0594 22.5656C10.6467 22.01 10.9988 21.3562 11.31 20.7241C11.8183 19.6917 12.0619 18.7112 12.1556 18.2119C12.2176 17.8817 12.1463 17.6262 12.0425 17.3975C11.9446 17.1816 11.7094 17.0631 11.285 16.9384C10.4536 16.6942 9.545 16.75 8.85938 16.7809C8.50277 16.797 8.1325 16.8737 7.63188 17.0809C7.13125 17.2881 6.5125 17.6387 5.94625 18.0772C4.8179 18.9509 4.23063 19.8306 3.99125 20.3606C3.77422 20.8412 3.8125 21.1869 3.82282 21.3116C3.83341 21.4396 4.01938 21.6031 4.28969 21.78C4.50417 21.9203 5.38813 22.0612 7.1425 22.2384C8.13017 22.3382 9.33 22.2712 10.1628 22.2194C10.9956 22.1675 11.4288 22.085 12.0438 21.9084C12.6588 21.7319 13.4425 21.4637 14.0216 21.2225C14.974 20.8257 15.5188 20.3769 15.9963 19.8997C16.6401 19.2562 17.0613 18.6062 17.3003 18.1803C17.7512 17.3771 17.75 16.8969 17.6881 16.72C17.616 16.5139 17.0244 16.5625 15.9672 16.6759C15.2557 16.7523 14.2088 17.0162 13.5019 17.195C12.795 17.3737 12.465 17.4975 11.9238 17.7675C10.6227 18.4165 9.73063 19.0194 9.48094 19.2794C9.30138 19.4664 9.20875 19.645 9.22875 19.77C9.26513 19.9973 10.3675 19.6681 11.8638 19.3153C12.6249 19.1358 13.36 18.8387 13.9488 18.5975C14.9636 18.1817 15.6638 17.7519 16.225 17.3675C17.1971 16.7017 17.54 16.0237 17.6769 15.6262C17.7044 15.5464 17.6875 15.46 17.5638 15.4175C17.2103 15.2961 16.1538 15.6225 14.925 16.0181C14.3975 16.2075 14.2506 16.2706 14.1259 16.3225C14.0631 16.3537 14.0013 16.395 13.9375 16.4375" stroke="#322F2C" stroke-width="2" stroke-linecap="round"/>
<path d="M20.9375 18.625C21.2694 19.0607 21.7275 19.6438 22.2272 20.03C22.43 20.1868 22.9544 20.2494 23.9297 20.3432C25.2704 20.472 26.1862 20.3544 26.4872 20.2716C27.2525 20.061 27.4575 19.6475 27.6244 19.3553C27.6707 19.2743 27.7075 19.1688 27.7081 19.0847C27.7087 19.0007 27.6675 18.9388 27.5534 18.876C27.4394 18.8132 27.2537 18.7513 26.7147 18.6575C26.1756 18.5638 25.2887 18.44 24.079 18.3763C22.8694 18.3125 21.3637 18.3125 20.3612 18.3538C19.3587 18.395 18.905 18.4775 18.3412 18.6438C17.1022 19.0092 16.1487 19.4775 15.5772 19.8513C14.5193 20.543 14.3137 21.2475 14.1981 21.7066C14.1674 21.8285 14.1875 21.9763 14.2184 22.061C14.2494 22.1457 14.3112 22.1663 14.3844 22.1975C14.4575 22.2288 14.54 22.27 15.6034 22.3222C16.6669 22.3744 18.7087 22.4363 20.5753 22.3238C22.4419 22.2113 24.0712 21.9225 25.4984 21.5778C26.9256 21.2332 28.1012 20.8413 28.8512 20.5569C29.9095 20.1556 30.4144 19.7725 30.8406 19.4297C31.2416 19.1072 31.4162 18.8132 31.4787 18.6885C31.5354 18.5754 31.5206 18.4382 31.5209 18.3238C31.5213 18.1991 31.2306 18.1257 30.9087 18.0113C30.7343 17.9493 30.525 17.9175 27.9747 17.8447C25.4244 17.7719 20.5362 17.6688 17.7294 17.6569C14.9225 17.645 14.345 17.7275 14.0165 17.7803C13.6881 17.8332 13.6262 17.8538 13.6356 17.8644C13.645 17.875 13.7275 17.875 15.5128 17.5141C17.2981 17.1532 20.7837 16.4313 23.0434 15.9047C25.3031 15.3782 26.2312 15.0688 26.6269 14.9094C27.0225 14.75 26.8575 14.75 23.8953 14.9666C20.9331 15.1832 15.1787 15.6163 12.9569 15.4166C10.735 15.2169 12.22 14.3713 13.7378 13.616C15.2556 12.8607 16.7612 12.2213 17.5059 11.8919C18.2506 11.5625 18.1887 11.5625 18.0847 11.5935C17.9806 11.6244 17.8362 11.6863 15.8644 12.1616C13.8925 12.6369 10.0975 13.5238 8.00842 14.0322C5.91936 14.5407 5.65123 14.6438 5.58529 14.6557C5.51936 14.6675 5.66373 14.585 6.71779 14.2228C7.77186 13.8607 9.73123 13.2213 11.6378 12.7166C13.5444 12.2119 15.3387 11.8613 16.6137 11.66C17.8887 11.4588 18.59 11.4175 18.9306 11.4272C19.2712 11.4369 19.23 11.4988 19.1572 11.5719C19.0844 11.645 18.9812 11.7275 18.3919 12.0794C17.8025 12.4313 16.73 13.05 15.2803 13.7607C13.8306 14.4713 12.0362 15.255 11.2562 15.5247C10.4762 15.7944 10.765 15.5263 11.5531 15.0891C12.3412 14.6519 13.62 14.0538 15.5987 13.3228C17.5775 12.5919 20.2175 11.7463 21.6084 11.29C22.9994 10.8338 23.0612 10.7925 22.629 10.9982C22.1969 11.2038 21.2687 11.6575 20.2853 12.2522C19.3019 12.8469 18.2912 13.5688 17.7397 13.9819C17.1881 14.395 17.1262 14.4775 17.115 14.4891C16.8603 14.7509 18.1212 13.4425 18.4784 12.7416C18.5344 12.6317 18.5412 12.5638 18.5003 12.5422C18.1746 12.3707 17.69 13.06 17.2722 13.6332C16.8963 14.1487 17 14.5819 17.0309 14.8316C17.0544 15.0214 17.27 15.1244 17.4775 15.2388C17.5962 15.3042 17.7675 15.3325 18.729 15.3847C19.6906 15.4369 21.4437 15.4988 22.45 15.51C23.6628 15.5236 24.0194 15.3757 24.269 15.2407C24.72 14.9968 24.75 14.2732 24.6984 13.8985C24.6368 13.4506 24.0431 13.5419 23.2984 13.5107C22.6985 13.4855 21.6462 13.5 20.8053 13.5413C19.3627 13.612 18.5231 13.8532 18.2309 14.03C18.1274 14.0927 18.9319 14.1463 20.0231 14.0219C21.8956 13.8085 22.5612 13.1888 22.8012 12.8141C22.9242 12.6221 22.9375 12.3144 22.9169 12.0022C22.9084 11.8743 22.855 11.8138 22.7822 11.7613C22.6205 11.6447 21.8194 11.625 20.025 11.7591C18.9063 11.8427 17.385 12.1613 16.5884 12.2685C15.7919 12.3757 15.7712 12.3138 15.7915 12.2303C15.9685 11.5036 16.3325 10.5225 16.4269 10.251C16.4679 10.1328 16.4787 10.0007 16.5722 9.89659C16.617 9.84666 16.6862 9.83378 16.749 9.82315C17.4766 9.70009 18.7675 10.935 19.4456 11.3528C19.9313 11.6521 20.4362 11.8125 20.6134 11.8435C20.8983 11.8932 20.2925 12.4575 19.8581 13.0775C19.4895 13.6037 18.8875 14.605 18.5378 15.2078C18.0915 15.9772 17.98 16.3319 17.7622 16.7672C17.1371 18.0164 16.9387 18.5388 16.4394 19.3097C16.1444 19.7651 15.8975 20.2063 15.6156 20.6753C15.1749 21.4087 14.5225 22.3938 14.3131 22.7903C14.1606 23.0793 14.1044 23.3119 14.1247 23.3644C14.2745 23.7517 14.8112 22.9388 15.435 22.4603C15.904 22.1006 16.3925 21.4213 16.6044 20.9178C16.7689 20.5269 15.69 20.9575 14.34 21.58C13.2447 22.0851 12.3781 22.7269 11.8269 23.1119C11.1911 23.5559 10.7937 23.8525 10.5319 24.0825C10.4791 24.1288 10.5 24.2275 10.5412 24.301C10.7224 24.6235 11.3512 24.5413 12.8478 24.5007C13.5799 24.4808 14.1225 24.0432 14.58 23.7213C15.0188 23.4125 15.2075 22.8982 15.3325 22.5235C15.3812 22.3776 15.375 22.3138 15.3131 22.2613C15.1545 22.1267 14.1956 22.125 12.8634 22.1457C12.1063 22.1574 11.2356 22.4357 10.0606 22.8097C8.31542 23.3653 7.83373 24.1869 7.77123 24.3219C7.73924 24.391 7.74998 24.4775 8.02842 24.52C8.85524 24.6462 9.58186 24.5419 9.96561 24.4591C11.0969 24.215 11.685 23.6275 11.9369 23.2616C12.1065 23.0152 12.1456 22.8132 12.1356 22.7091C12.1306 22.6572 12.0225 22.6463 11.949 22.6563C11.6667 22.6947 11.315 23.06 10.9803 23.4672C10.5927 23.9388 10.5212 24.3525 10.4481 24.6757C10.3351 25.1752 10.6862 25.4775 10.9678 25.8528C11.1559 26.1036 11.2912 26.3738 11.5303 26.79C11.8153 27.2863 12.1037 27.9775 12.3634 28.415C12.5676 28.7591 12.6662 29.04 12.8534 29.4257C13.005 29.738 13.145 30.0813 13.3119 30.5816C13.4242 30.9184 13.645 31.31 14.2165 32.1947C14.4434 32.5458 14.6237 32.8525 14.9259 33.1863C15.2971 33.5962 15.79 34.0613 16.0509 34.3528C16.4886 34.8419 17.3475 35.5975 17.9465 36.1447C18.3551 36.5179 18.8925 37.0175 20.0678 38.0478C21.1643 39.0091 21.5812 39.2488 21.9259 39.4991C22.4336 39.8678 23.165 40.3538 23.6959 40.5928C23.9991 40.7293 24.2487 40.8125 24.5094 40.8335C24.8752 40.8629 25.185 40.17 25.4784 39.6578C25.6413 39.3735 25.77 38.8988 25.8228 38.4078C25.8753 37.9194 25.71 37.045 25.4281 36.7507C25.3061 36.6232 25.0431 36.625 24.7934 36.6353C24.4666 36.6488 24.0237 37.1013 23.5015 37.7582C23.2508 38.0735 23.2087 38.4563 23.1253 38.7594C23.0825 38.9147 23.0625 39.1857 23.0934 39.4772C23.1051 39.587 23.1862 39.6038 23.2697 39.6041C23.4573 39.6048 23.7275 39.4388 24.0497 39.1378C24.7121 38.5191 24.7487 37.3413 24.7815 36.5019C24.7858 36.3919 24.6887 36.355 24.6156 36.3338C24.4648 36.2899 24.3131 36.3332 24.1059 36.4675C23.6941 36.7346 23.3556 37.2063 23.0544 37.6632C22.3988 38.6573 22.3125 39.2075 22.364 39.2913C22.5692 39.6246 22.8737 38.71 23.2278 37.6925C23.4845 36.9547 23.4375 36.0669 23.3962 35.2766C23.3352 34.1074 22.5862 33.3988 22.2406 33.1047C22.1221 33.0039 21.9175 33.1869 21.7615 33.3116C21.6178 33.4265 21.3769 33.8713 21.044 34.671C20.6841 35.5359 20.6875 36.2688 20.7081 36.5503C20.7246 36.776 21 36.0638 21.0622 35.7097C21.0772 35.6244 21.1037 35.5638 21.1453 35.5525C21.4016 35.4831 21.5825 35.9363 21.8012 36.1866C22.0008 36.415 22.29 36.6238 22.4994 36.8741C22.5955 36.989 22.6869 37.0832 22.7497 37.0938C22.9892 37.1343 22.19 36.4 21.8344 35.9388C21.5486 35.5681 21.21 34.8788 20.9487 34.4907C20.6827 34.0954 20.2512 33.6888 19.8972 33.345C19.6436 33.0989 19.355 32.9388 19.1156 32.6782C18.8359 32.3736 18.6262 32.1675 18.1062 31.6688C17.7326 31.3104 17.3975 31.0638 17.1362 30.8135C16.8848 30.5726 16.6262 30.21 16.2722 29.8244C15.984 29.5105 15.8137 29.1475 15.5531 28.6894C15.2918 28.2301 15.1262 27.9388 14.9484 27.6885C14.773 27.4416 14.5637 27.0438 14.2615 26.6163C13.9619 26.1924 13.8131 25.9382 13.6884 25.8238C13.6281 25.7684 13.5637 25.73 13.5009 25.8016C13.1118 26.2449 13.25 27.4288 13.3122 28.0616C13.338 28.3242 13.52 28.5613 13.635 28.8116C13.7538 29.0703 13.895 29.3525 14.0203 29.655C14.1918 30.069 14.4562 30.5588 14.6865 31.0813C15.0292 31.8586 15.3725 32.4125 15.6865 32.8635C15.8942 33.1616 16.165 33.4363 16.7581 33.9978C17.12 34.3404 17.5187 34.5613 17.8219 34.7078C18.1998 34.8906 18.5612 35.0825 18.8219 35.1975C19.202 35.3653 19.7062 35.5613 20.2378 35.5941C20.386 35.6032 20.375 35.3138 20.4269 35.0013C20.4541 34.8369 20.4169 34.6675 20.3444 34.5013C20.1645 34.0888 19.5037 33.7525 19.0022 33.4907C18.1208 33.0305 17.8762 32.855 17.6881 32.626C17.4862 32.3801 17.2725 31.94 17.0528 31.5638C16.8427 31.204 16.6262 30.8763 16.4381 30.626C16.2574 30.3855 16.105 30.1263 15.8759 29.9382C15.7601 29.843 15.6256 29.8125 15.5112 29.7816C15.2516 29.7114 15.23 29.3138 15.0631 29.0116C14.9097 28.7338 14.7925 28.4388 14.5219 27.5972C14.3627 27.1023 14.2712 26.8138 14.1256 26.5635C13.9743 26.3034 13.7512 26.0225 13.5112 25.8028C13.2934 25.6034 13.0637 25.4175 12.8134 25.3128C12.7523 25.2873 12.6887 25.2713 12.6259 25.271C12.5631 25.2707 12.5012 25.2913 12.4694 25.3638C12.4375 25.4363 12.4375 25.56 12.4684 25.6444C12.5946 25.9886 13.97 25.9375 14.6447 25.8547C15.0921 25.7998 15.3112 25.2313 15.4578 24.9282C15.6252 24.582 15.9562 24.025 16.3322 23.3666C16.5039 23.0657 16.7487 22.69 16.9784 22.3657C17.1618 22.1066 17.2912 21.8763 17.6444 21.3563C17.8921 20.9915 18.2062 20.4413 18.499 20.0116C18.7037 19.7113 18.9362 19.48 19.1347 19.2716C19.2245 19.1773 19.3744 19.1875 19.4887 19.2185C19.7762 19.2962 19.8325 19.955 19.8647 20.4672C19.8747 20.6265 19.6269 21.0175 19.0156 21.8166C18.6308 22.3197 17.93 22.8838 17.1465 23.5219C15.5063 24.8579 14.6244 25.4175 14.8006 25.21C14.9103 25.0809 15.08 24.92 15.66 24.4844C16.24 24.0488 17.23 23.3475 17.8431 22.9553C18.979 22.2288 19.705 22.0013 20.3519 21.7094C20.6162 21.5901 21.41 21.2944 22.4925 20.8675C23.0698 20.6399 23.3119 20.625 23.3953 20.6766C23.7094 20.8707 23.0025 21.4975 22.3681 22.2978C22.0849 22.6552 21.5725 23.1563 20.544 24.0407C19.5156 24.925 17.9687 26.1625 17.0584 26.8722C15.5335 28.0611 15.0631 28.3332 14.959 28.3232C14.9072 28.3182 14.8962 28.21 15.0506 27.8891C15.205 27.5682 15.535 27.0113 16.7465 25.5797C17.9581 24.1482 20.0412 21.8588 21.2587 20.5557C22.7346 18.976 23.1244 18.6675 23.1975 18.5838C23.5118 18.2238 22.2106 19.54 21.5678 19.9653C21.1586 20.2361 20.5537 20.5763 19.1937 21.2932C17.8337 22.01 15.73 23.0825 14.4194 23.7897C13.1087 24.4969 12.655 24.8063 12.3387 25.0482C12.0225 25.29 11.8575 25.455 11.824 25.5194C11.7902 25.5846 12.1444 25.4175 14.2297 24.8388C16.1601 24.303 19.9037 23.435 22.4044 22.9057C24.905 22.3763 26.06 22.2525 26.789 22.1888C28.245 22.0615 28.6869 22.0625 28.76 22.1244C28.9035 22.2459 28.5225 22.5613 28.19 22.8313C27.8364 23.1184 27.3369 23.5807 26.0219 24.3891C25.0802 24.968 23.49 25.7338 21.7544 26.5297C20.0187 27.3257 18.1625 28.0888 17.1237 28.5335C15.9079 29.054 15.6056 29.2494 15.459 29.2813C15.4297 29.2877 15.6012 29.1275 16.0984 28.8266C16.5956 28.5257 17.4412 28.0513 19.6919 27.1985C21.9425 26.3457 25.5725 25.1288 27.5044 24.4916C29.4362 23.8544 29.56 23.8338 29.6134 23.8644C29.7156 23.923 28.9856 24.4544 27.3569 25.2957C26.3914 25.7943 25.0475 26.24 23.5734 26.6497C22.0994 27.0594 20.5112 27.3688 19.4972 27.5385C18.4831 27.7082 18.0912 27.7288 17.91 27.6982C17.7287 27.6675 17.77 27.585 17.8325 27.4807C17.9713 27.2487 18.4544 26.7538 19.3678 25.9438C19.8777 25.4916 20.5287 25.01 21.5284 24.4147C22.5281 23.8194 23.8687 23.1388 25.0544 22.6232C26.24 22.1075 27.23 21.7775 27.7709 21.6075C28.3119 21.4375 28.3737 21.4375 28.2406 21.52C28.1075 21.6025 27.7775 21.7675 25.4625 22.3372C23.1475 22.9069 18.8575 23.8763 16.5959 24.3963C14.3344 24.9163 14.2312 24.9575 14.24 24.9478C14.2487 24.9382 14.3725 24.8763 15.1375 24.7413C15.9025 24.6063 17.305 24.4 18.9762 24.2938C20.6475 24.1875 22.545 24.1875 23.7081 24.2185C24.8712 24.2494 25.2425 24.3113 25.4234 24.3844C25.6044 24.4575 25.5837 24.54 24.2325 25.2735C22.8812 26.0069 20.2 27.3888 18.7775 28.111C17.355 28.8332 17.2725 28.8538 17.3537 28.7303C17.435 28.6069 17.6825 28.3388 19.1403 27.2003C20.5981 26.0619 23.2587 24.0613 24.6706 22.9791C26.1844 21.8187 26.3119 21.6463 26.3437 21.5632C26.4063 21.4 25.8562 21.4375 23.9659 21.7572C22.2758 22.043 19.1262 22.7163 17.1912 23.1591C15.2562 23.6019 14.6375 23.8288 14.2672 23.9766C13.8969 24.1244 13.7937 24.1863 13.854 24.115C13.9144 24.0438 14.1412 23.8375 14.6294 23.5353C15.1175 23.2332 15.86 22.8413 17.1294 22.33C18.3987 21.8188 20.1725 21.2 21.014 20.9225C21.8556 20.645 21.7112 20.7275 21.3481 20.8732C20.985 21.0188 20.4075 21.225 18.3775 21.4241C16.3475 21.6232 12.8825 21.8088 10.8603 21.8735C8.83811 21.9382 8.36373 21.8763 7.99561 21.8135C7.37643 21.7078 7.02186 21.5838 6.86561 21.48C6.79727 21.4347 6.81248 21.335 6.86404 21.241C7.14709 20.7246 7.99623 20.3363 9.05748 19.7835C9.41789 19.5957 9.92748 19.4413 11.4715 19.1291C13.0156 18.8169 15.5937 18.3838 18.015 18.1297C20.4362 17.8757 22.6225 17.8138 23.7281 17.8128C24.8337 17.8119 24.7925 17.8738 24.699 17.9572C24.6056 18.0407 24.4612 18.1438 22.6234 18.8363C20.7856 19.5288 17.2587 20.8075 15.4006 21.4972C13.5425 22.1869 13.46 22.2488 13.6547 22.2394C13.8494 22.23 14.3237 22.1475 17.4762 22.1772C20.6287 22.2069 26.445 22.3513 29.3278 22.4669C32.2106 22.5825 31.9837 22.665 29.7322 23.151C27.4806 23.6369 23.2112 24.5238 20.6097 25.1457C18.0081 25.7675 17.2037 26.0975 16.7584 26.2882C16.3131 26.4788 16.2512 26.52 16.3019 26.5207C16.3525 26.5213 16.5175 26.48 17.9947 26.4485C19.4719 26.4169 22.2562 26.3963 24.3197 26.4578C26.3831 26.5194 27.6412 26.6638 28.4647 26.7794C29.6438 26.945 30.1444 27.1244 30.3837 27.2697C30.4918 27.3353 30.52 27.4563 29.8812 28.0353C29.2425 28.6144 27.9225 29.6663 26.6444 30.5897C25.3662 31.5132 24.17 32.2763 23.5022 32.7107C22.8344 33.145 22.7312 33.2275 22.6265 33.3216C22.5219 33.4157 22.4187 33.5188 22.9534 33.3038C23.4881 33.0888 24.6637 32.5525 25.7953 32.0907C26.9269 31.6288 27.9787 31.2575 28.4484 31.0766C28.9181 30.8957 28.7737 30.9163 27.3278 31.2363C25.8819 31.5563 23.1387 32.175 21.5606 32.5557C19.642 33.0184 19.2506 33.2288 19.1878 33.2603C19.1791 33.2647 19.2487 33.1888 20.745 32.4763C22.2412 31.7638 25.17 30.4025 27.3078 29.495C29.4456 28.5875 30.7037 28.175 31.4137 27.9522C32.1237 27.7294 32.2475 27.7088 32.239 27.7497C32.1967 27.9554 31.4012 28.2475 29.7431 28.8391C28.6379 29.2334 26.93 29.6163 25.0687 29.9632C23.2075 30.31 21.2275 30.5575 20.259 30.6438C19.2906 30.73 19.3937 30.6475 19.9212 30.3678C20.4487 30.0882 21.3975 29.6138 22.639 29.1116C23.8806 28.6094 25.3862 28.0938 26.4094 27.7663C27.4325 27.4388 27.9275 27.315 28.1412 27.2822C28.355 27.2494 28.2725 27.3113 27.8587 27.5185C27.445 27.7257 26.7025 28.0763 25.2784 28.5766C23.8544 29.0769 21.7712 29.7163 20.729 30.0147C19.6869 30.3132 19.7487 30.2513 19.8528 30.1782C20.0927 30.0096 20.4356 29.8757 21.5109 29.4519C22.4045 29.0998 23.9887 28.43 23.92 28.4303C23.8512 28.4307 22.0775 29.1113 21.1019 29.5032C19.7223 30.0573 19.335 30.3738 19.1253 30.5413C18.8007 30.8006 20.3725 30.2925 21.3044 30.0025C21.9872 29.79 23.1025 29.465 23.7897 29.2435C25.1386 28.8085 25.5612 28.335 25.7487 28.0438C25.8253 27.9249 25.8125 27.835 25.699 27.7925C25.3779 27.6722 24.96 27.7707 24.6275 27.8225C24.2912 27.875 23.6506 28.1025 22.5812 28.5382C21.2416 29.0838 20.4181 29.6657 20.1169 29.9044C19.9543 30.0332 19.795 30.205 19.71 30.321C19.625 30.4369 19.625 30.4988 19.6662 30.5513C19.8882 30.8338 20.6625 30.77 22.7628 30.8022C23.352 30.8112 23.5825 30.7088 23.7384 30.6257C24.1239 30.4201 24.4162 29.8975 24.4894 29.5222C24.5173 29.3786 24.4175 29.2094 24.2615 29.0325C24.1441 28.8993 23.7531 28.8132 22.7172 28.7091C21.993 28.6363 20.8562 28.6463 19.8387 28.7388C18.8212 28.8313 17.955 29.0375 17.3644 29.2057C16.4732 29.4593 15.94 29.7694 15.4 30.1222C14.2205 30.8928 13.98 31.5188 13.8853 31.8013C13.8335 31.9559 14.7644 31.9169 16.0631 31.8341C16.7241 31.7919 17.3825 31.6688 17.9906 31.5228C19.1492 31.2448 19.8319 30.9175 20.195 30.6791C20.7264 30.3302 21.0825 29.9594 21.2281 29.7516C21.3616 29.5611 21.3956 29.355 21.3444 29.23C21.3127 29.1528 21.1075 29.1875 20.579 29.4557C20.0506 29.7238 19.1637 30.26 18.5625 30.6497C17.2402 31.5067 17.0631 31.8325 17.0106 31.9678C16.8559 32.3666 18.35 31.7725 18.8944 31.335C19.2437 31.0543 19.1875 30.5019 19.1565 30.2103C19.1449 30.1006 19.0637 30.0838 18.9906 30.0938C18.5357 30.156 18.375 30.915 18.3231 31.2488C18.2975 31.4134 18.3331 31.5619 18.3953 31.6969C18.4735 31.8666 18.645 31.9582 18.8422 31.9997C18.9562 32.0238 19.1012 32.0413 19.9697 32.0416C20.8381 32.0419 22.4262 32.0213 23.3578 31.9797C24.5197 31.9279 24.9356 31.7094 25.2581 31.5119C25.4984 31.3647 25.6656 31.1057 25.7806 30.9075C25.8955 30.7096 24.9012 31.64 24.3659 32.3107C24.1676 32.5591 23.6912 33.4094 23.0772 34.6372C22.6979 35.3955 22.5425 36.0175 22.3969 36.7753C22.0749 38.4509 22.395 39.1438 22.6031 39.4057C22.7333 39.5695 23.0406 39.3963 23.3722 39.1688C24.0118 38.7299 24.56 37.9413 25.0484 37.1725C25.55 36.383 25.8325 35.7107 26.009 35.14C26.2519 34.3552 26.3744 33.3594 26.4681 32.5163C26.5045 32.1892 26.5 32.065 26.4897 32.0425C26.3759 31.7943 26.1262 32.7888 25.4609 34.0575C25.0778 34.7881 24.9381 35.2688 24.865 35.4782C24.7973 35.672 25.0406 34.7944 25.2072 34.2953C25.5689 33.2115 25.625 31.8569 25.625 31.5125C25.625 31.2074 25.3962 32.31 25.2506 32.9657C25.0027 34.0816 25.1456 34.6244 25.2078 34.7388C25.2398 34.7976 25.3112 34.8325 25.374 34.8435C25.4973 34.8649 26.0987 34.4413 27.0762 33.6932C27.9295 33.0401 28.3731 32.2532 28.6337 31.8153C28.6719 31.7512 28.5631 31.9569 28.4075 32.2582C28.2292 32.6033 27.6912 33.3688 27.0359 34.5125C26.2095 35.955 26.1675 36.5188 26.1147 36.8738C26.1023 36.9572 26.0837 37.04 26.1247 37.031C26.1656 37.0219 26.2687 36.9188 27.549 36.0613C28.8294 35.2038 31.2837 33.595 32.5172 32.8385C33.7506 32.0819 33.6887 32.2263 33.0381 32.9503C32.3875 33.6744 31.15 34.9738 30.4094 35.736C29.4757 36.6968 29.1881 36.8957 29.1047 36.8857C29.0675 36.8812 29.1037 36.7725 30.2797 35.6266C31.4556 34.4807 33.7862 32.2738 35.0075 31.106C36.2287 29.9382 36.27 29.8763 35.0125 30.6385C33.755 31.4007 31.1975 32.9888 29.7872 33.8791C28.3769 34.7694 28.1912 34.9138 28.1162 34.9263C28.0016 34.9454 28.2487 34.4813 29.4984 33.055C30.5925 31.8064 32.7487 29.6075 33.9669 28.2847C35.185 26.9619 35.4325 26.6113 35.6631 26.2347C35.8937 25.8582 36.1 25.4663 36.2269 25.2128C36.3537 24.9594 36.395 24.8563 35.6428 25.6591C34.8906 26.4619 33.3437 28.1738 32.4128 29.2516C31.4819 30.3294 31.2137 30.7213 31.9831 30.2838C32.7525 29.8463 34.5675 28.5675 35.7603 27.6819C36.9531 26.7963 37.4687 26.3425 37.7859 26.0469C38.2203 25.6421 38.3744 25.4588 38.3959 25.4788C38.61 25.6774 37.815 26.0813 35.9447 27.3425C34.3399 28.4247 31.3312 30.295 29.7803 31.2313C28.2294 32.1675 28.2087 32.085 28.2394 31.991C28.27 31.8969 28.3525 31.7938 29.6944 30.5753C31.0362 29.3569 33.635 27.0263 35.015 25.7638C36.395 24.5013 36.4775 24.3775 36.5509 24.2932C36.6244 24.2088 36.6862 24.1675 35.46 25.0538C34.2337 25.94 31.7175 27.755 30.2975 28.8138C28.8775 29.8725 28.63 30.12 28.5231 30.2063C28.4162 30.2925 28.4575 30.21 29.8709 29.1878C31.2844 28.1657 34.0687 26.2063 35.9569 24.7844C37.845 23.3625 38.7525 22.5375 39.354 21.9578C40.7854 20.5785 41.1244 19.8138 41.2387 19.5953C41.289 19.4994 41.3325 19.4388 39.2397 20.7578C37.1469 22.0769 32.9187 24.7788 30.5756 26.3047C28.2325 27.8307 27.9025 28.0988 27.7119 28.2678C27.5212 28.4369 27.48 28.4988 27.4897 28.5203C27.4994 28.5419 27.5612 28.5213 29.1709 27.3557C30.7806 26.19 33.9362 23.88 35.634 22.6075C37.3319 21.335 37.4762 21.17 37.4784 21.1057C37.4833 20.9617 36.9812 21.2488 35.194 22.055C33.6244 22.7631 30.6637 23.975 28.8659 24.7775C27.0681 25.58 26.5112 25.91 26.1831 26.1213C25.855 26.3325 25.7725 26.415 25.8022 26.3853C25.8319 26.3557 25.9762 26.2113 27.4944 25.0644C29.0125 23.9175 31.9 21.7725 33.635 20.4303C35.37 19.0882 35.865 18.6138 36.2953 18.1425C37.1116 17.2486 37.4581 16.6675 37.3862 16.5735C37.3296 16.4994 37.0875 16.6238 35.424 17.5528C33.7606 18.4819 30.6462 20.2763 28.6087 21.5307C26.5712 22.785 25.705 23.445 25.0112 24.0222C23.7912 25.0373 23.2506 25.6863 23.1465 25.9047C23.102 25.9983 23.0837 26.0613 23.7331 25.7219C24.3825 25.3825 25.7025 24.64 27.4137 23.4016C29.125 22.1632 31.1875 20.4513 32.5181 19.2188C33.8487 17.9863 34.385 17.285 34.7128 16.8103C35.1807 16.1328 35.2912 15.7307 35.3537 15.4603C35.3825 15.3359 35.375 15.2313 35.2925 15.1678C35.0853 15.0085 34.6275 15.0625 33.9225 15.1141C33.4633 15.1477 32.805 15.2688 30.5365 15.9407C28.2681 16.6125 24.4112 17.85 22.1047 18.6422C19.7981 19.4344 19.1587 19.7438 18.7881 19.9444C18.4175 20.145 18.335 20.2275 18.3337 20.2288C18.3325 20.23 18.415 20.1475 19.53 19.3522C20.645 18.5569 22.79 17.0513 24.2044 15.9972C25.6187 14.9432 26.2375 14.3863 26.7522 13.8725C27.2669 13.3588 27.6587 12.905 27.974 12.4753C28.5564 11.6817 28.8944 10.8375 29.1337 10.1094C29.3022 9.59701 29.3125 9.14815 29.2712 8.77346C29.2544 8.62092 29.1475 8.56378 29.0637 8.52159C28.6179 8.29699 27.8356 8.79003 26.9969 9.35971C26.39 9.77189 25.395 10.4038 24.8128 10.795C23.6743 11.5601 23.3337 12.2488 23.2087 12.5197C23.1727 12.5979 23.1875 12.7063 23.2184 12.7697C23.2733 12.8823 23.7256 12.8132 24.8962 12.5132C25.7234 12.3012 26.995 11.8625 27.86 11.5366C29.1626 11.0458 29.6656 10.6675 29.8425 10.5116C29.9206 10.4428 29.9575 10.3763 29.9065 10.365C29.8556 10.3538 29.7112 10.395 29.1934 10.6844C28.6756 10.9738 27.7887 11.51 26.7234 12.2503C25.6581 12.9907 24.4412 13.9188 23.7112 14.5207C22.9812 15.1225 22.775 15.37 24.7828 14.3219C26.7906 13.2738 31.0187 10.9225 33.1659 9.77315C35.3131 8.62378 35.2512 8.74753 35.0956 8.95565C34.94 9.16378 34.6925 9.45253 33.6987 10.3438C32.705 11.235 30.9725 12.72 29.9975 13.5263C28.8835 14.4474 28.5431 14.6032 28.314 14.7182C28.2376 14.7565 28.2087 14.6475 28.2084 14.5535C28.207 14.1183 28.4781 13.6894 28.9437 13.0472C29.2859 12.5752 29.925 11.8688 30.3572 11.3938C31.3743 10.2759 31.9975 9.7519 32.259 9.57378C32.5084 9.404 31.0906 10.4332 29.77 11.1925C28.7474 11.7805 27.9406 12.02 27.4615 12.0935C27.2936 12.1192 27.2712 11.9813 27.3225 11.825C27.4479 11.4425 27.9756 10.8582 28.5894 10.2025C29.1884 9.56259 29.6225 9.33503 29.9884 9.12565C30.3599 8.91312 30.8737 8.73003 31.2069 8.61503C31.6162 8.47371 32.245 8.37628 32.894 8.30221C33.3722 8.24765 34.04 8.20878 34.5294 8.21846C34.9171 8.22614 35.165 8.52003 35.4572 8.62471C35.8238 8.75608 36.1237 8.85378 36.3844 8.93721C36.7077 9.04072 37.04 9.16628 37.4672 9.34315C37.8521 9.50253 38.58 9.72753 38.9469 9.94721C39.3168 10.1687 40.0362 10.9113 40.5506 11.4775C41.062 12.0405 41.27 12.3738 41.5612 12.8107C41.7275 13.06 41.895 13.3525 42.0819 13.9016C42.4067 14.8561 42.4375 15.6238 42.4581 15.9247C42.4861 16.3325 42.5625 16.7069 42.5728 16.9875C42.5824 17.2492 42.625 18.2413 42.594 19.6672C42.5769 20.459 42.3344 20.9144 42.075 21.4335C41.7451 22.0936 41.17 22.8707 40.6184 23.5785C40.0304 24.3331 39.5012 24.9363 39.3337 25.1247C39.2909 25.1729 39.56 24.6082 40.5744 23.0966C41.3306 21.9697 42.62 20.1413 43.3612 19.0203C44.1025 17.8994 44.2675 17.5488 44.27 17.4094C44.2725 17.27 44.1075 17.3525 43.2181 18.0963C42.3287 18.84 40.72 20.2425 39.5406 21.3363C38.3612 22.43 37.66 23.1725 37.2781 23.586C36.8962 23.9994 36.855 24.0613 37.4215 23.691C37.9881 23.3207 39.1637 22.5163 40.3159 21.4935C41.4681 20.4707 42.5612 19.2538 41.7631 19.885C40.965 20.5163 38.2425 23.0325 36.809 24.3494C35.3756 25.6663 35.3137 25.7075 35.5087 25.5328C35.7037 25.3582 36.1575 24.9663 36.9069 24.3932C37.6562 23.82 38.6875 23.0775 39.4765 22.4578C40.2656 21.8382 40.7812 21.3638 41.0159 21.1813C41.2506 20.9988 41.1887 21.1225 41.0744 21.2997C40.96 21.4769 40.795 21.7038 39.8644 22.7282C38.9337 23.7525 37.2425 25.5675 36.299 26.616C35.3556 27.6644 35.2112 27.8913 35.1678 27.936C35.1244 27.9807 35.1862 27.8363 36.2081 26.6069C37.23 25.3775 39.21 23.0675 40.1887 21.8878C41.1675 20.7082 41.085 20.7288 40.7125 20.9353C40.34 21.1419 39.68 21.5338 37.8344 22.2925C35.9887 23.0513 32.9775 24.165 31.4572 24.6769C29.9369 25.1888 29.9987 25.065 30.1337 24.9085C30.2687 24.7519 30.475 24.5663 32.1487 23.3982C33.8225 22.23 36.9575 20.085 38.6447 18.9182C40.4875 17.6436 40.6869 17.4794 40.7187 17.4997C40.7615 17.527 40.565 17.6438 38.6347 18.79C36.7044 19.9363 32.9712 22.1225 30.9965 23.29C29.0219 24.4575 28.9187 24.54 28.9172 24.5103C28.9156 24.4807 29.0187 24.3363 30.8456 23.0863C32.6725 21.8363 36.22 19.485 37.8206 18.4594C39.4212 17.4338 38.9675 17.805 36.795 19.2957C34.6225 20.7863 30.745 23.385 28.7165 24.7547C26.6881 26.1244 26.6262 26.1863 26.6356 26.1563C26.645 26.1263 26.7275 26.0025 27.7497 25.3716C28.7719 24.7407 30.7312 23.6063 31.72 23.0632C32.7087 22.52 32.6675 22.6025 32.574 22.7482C32.4806 22.8938 32.3362 23.1 31.7772 23.7219C31.2181 24.3438 30.2487 25.375 29.6359 26.061C29.0231 26.7469 28.7962 27.0563 28.7825 27.1538C28.7554 27.3462 29.4556 26.8763 30.4187 26.3278C31.1265 25.9248 32.2275 25.1813 32.9559 24.6753C34.0193 23.9368 34.5187 23.3775 34.8931 22.8994C35.5206 22.098 35.5 21.4175 35.469 21.2822C35.4554 21.2225 35.3762 21.2088 33.6325 21.3219C31.8887 21.435 28.465 21.6825 26.5878 21.841C24.7106 21.9994 24.4837 22.0613 24.9134 21.691C25.3431 21.3207 26.4362 20.5163 28.2369 19.4007C30.0375 18.285 32.5125 16.8825 33.9112 16.0363C35.31 15.19 35.5575 14.9425 34.9425 15.5988C34.3275 16.255 32.8425 17.8225 32.0259 18.7022C31.2094 19.5819 31.1062 19.7263 31.1562 19.7697C31.3502 19.9382 31.9137 19.5432 32.5265 19.211C33.2228 18.8336 33.8719 18.315 34.454 17.8163C35.4992 16.9209 35.8112 15.8163 35.9269 15.2C35.9748 14.9443 35.9169 14.7094 35.8444 14.5119C35.6866 14.0821 34.8375 14.0425 33.7175 13.9278C33.0129 13.8557 32.02 13.9163 31.2109 13.9991C30.4019 14.0819 29.8037 14.2263 29.2275 14.4141C28.6512 14.6019 28.115 14.8288 27.4675 15.2035C26.0388 16.0302 25.1887 16.7488 24.9703 16.9878C24.8696 17.098 24.8137 17.2063 24.7715 17.2903C24.7294 17.3744 24.7087 17.4363 25.4612 17.2825C26.2137 17.1288 27.74 16.7575 28.6397 16.5147C29.7774 16.2076 30.1856 15.9182 30.5081 15.6582C30.9361 15.3131 30.9581 14.855 30.9584 14.7197C30.959 14.4724 30.3975 14.6457 29.3122 15.0172C28.3803 15.3362 26.7212 16.0488 25.974 16.3582C25.2269 16.6675 25.4537 16.585 26.8906 16.161C28.3275 15.7369 30.9675 14.9738 32.6575 14.426C34.3475 13.8782 35.0075 13.5688 35.5331 13.296C36.0587 13.0232 36.43 12.7963 36.8894 12.4422C38.6021 11.1221 38.7081 10.7507 38.7394 10.6878C38.8409 10.4837 38.5225 11.4963 38.2512 12.2672C37.9949 12.9958 37.7712 13.5819 37.7294 13.7594C37.6695 14.0133 38.33 12.6738 38.5519 11.9294C38.6731 11.5226 38.5419 11.1263 38.4797 10.8975C38.4235 10.6909 38.23 10.5425 38.0122 10.3866C37.729 10.1838 36.7369 10.1669 35.1165 10.2903C34.2498 10.3564 33.3312 10.7438 32.4509 11.1713C31.5706 11.5988 30.7662 12.135 30.29 12.4835C29.8137 12.8319 29.69 12.9763 29.6056 13.0816C29.5212 13.1869 29.48 13.2488 29.6134 13.2807C29.7469 13.3125 30.0562 13.3125 31.154 13.0341C32.2519 12.7557 34.1287 12.1988 35.4153 11.7469C36.7019 11.295 37.3412 10.965 37.7737 10.7125C38.2062 10.46 38.4125 10.295 38.5394 10.1791C38.6662 10.0632 38.7075 10.0013 37.4087 10.5985C36.11 11.1957 33.47 12.4538 31.8934 13.2463C29.8544 14.2712 29.3756 14.7075 29.3128 14.8119C29.3015 14.8307 29.3737 14.7925 30.3131 14.4413C31.2525 14.09 33.0675 13.43 34.0644 13.0591C35.1902 12.6401 35.3744 12.5419 35.499 12.5828C35.7278 12.6579 35.77 13.7007 35.895 14.9807C36.0285 16.3481 36.1456 17.1244 36.1975 17.2491C36.2244 17.3139 36.27 17.3738 36.3944 17.3644C36.7365 17.3386 37.3087 16.94 38.0156 16.3897C39.2258 15.4476 39.3112 14.5663 39.344 14.0535C39.361 13.7883 38.7312 13.8963 37.4009 13.8853C37.1254 13.8831 37.0637 13.9163 36.9906 13.9682C36.642 14.2154 36.3562 14.8088 35.9284 15.8297C35.8016 16.1323 35.8125 16.4563 35.8434 16.7894C35.8555 16.9194 35.9362 16.9575 35.999 16.9891C36.1198 17.0498 36.4969 17.0625 37.0481 17.0007C37.4925 16.9508 37.7487 16.5225 37.9569 16.2003C38.2494 15.7475 38.1662 15.3563 38.2394 14.95C38.2706 14.7762 38.25 14.485 38.219 14.3775C38.1881 14.27 38.1262 14.3525 38.0634 14.4466C37.7993 14.8421 37.73 15.3313 37.6978 15.8835C37.691 15.9997 37.7287 16.0613 37.8115 16.1138C38.0191 16.2454 38.3525 16.25 38.654 16.2397C39.1226 16.2237 39.4362 15.7725 39.6347 15.4388C39.8422 15.0897 39.875 14.4625 39.7197 13.8775C39.4614 12.9046 39.375 12.585 39.3128 12.1994C39.2839 12.02 39.25 11.7313 39.2809 11.4394C39.2905 11.3489 39.3737 11.395 39.4365 11.4472C39.7148 11.6784 39.9987 11.9775 40.4044 12.3007C41.0502 12.8151 41.3737 13.3725 41.51 13.6866C41.6233 13.9478 41.7287 14.1863 41.8122 14.4366C41.8956 14.6869 41.9375 14.9363 41.9997 15.1866C42.068 15.4617 42.125 15.7488 42.1769 16.1435C42.3048 17.1165 42.25 17.8688 42.1878 18.426C42.1558 18.7127 42.0837 18.9988 42.0522 19.301C42.0224 19.5858 41.67 21.0288 41.4897 21.8019C41.3646 22.3381 41.355 20.2113 41.2197 19.5666C40.996 18.5008 40.7087 17.565 40.6462 16.9219C40.4727 15.1365 40.75 14.3557 40.7603 14.1782C40.7637 14.12 40.8125 14.4157 40.6784 15.0153C40.5662 15.5173 40.2762 16.3988 39.9834 17.196C39.6906 17.9932 39.3812 18.6738 39.2322 18.9625C39.1363 19.1483 39.5375 18.1338 40.3275 16.5944C40.935 15.4106 41.4162 14.9382 41.4787 14.8857C41.4965 14.8707 41.5 14.9775 41.4484 15.1025C41.3969 15.2275 41.2937 15.3925 40.5806 16.1066C39.8675 16.8207 38.5475 18.0788 37.8159 18.7578C37.0844 19.4369 36.9812 19.4988 37.0106 19.4688C37.184 19.2917 37.8494 18.8988 38.9703 18.286C39.6049 17.939 40.4212 17.6113 40.815 17.4616C41.2087 17.3119 41.1675 17.3738 40.6203 17.6016C40.0731 17.8294 39.0212 18.2213 37.6956 18.6294C36.37 19.0375 34.8025 19.45 33.9331 19.6935C33.0637 19.9369 32.94 19.9988 32.8453 20.041C32.7506 20.0832 32.6887 20.1038 32.8012 20.0216C32.9137 19.9394 33.2025 19.7538 33.9597 19.4003C34.7169 19.0469 35.9337 18.5313 36.674 18.2347C37.6315 17.8511 37.9575 17.7713 37.9072 17.781C37.7744 17.8319 37.4237 17.9763 36.48 18.2466C35.5362 18.5169 34.01 18.9088 32.4375 19.3125" stroke="#322F2C" stroke-width="2" stroke-linecap="round"/>
<path d="M41.68 9.21999C40.6585 8.198 39.4456 7.38728 38.1107 6.83416C36.7758 6.28103 35.345 5.99634 33.9 5.99634C32.455 5.99634 31.0242 6.28103 29.6893 6.83416C28.3544 7.38728 27.1415 8.198 26.12 9.21999L24 11.34L21.88 9.21999C19.8166 7.15661 17.0181 5.99741 14.1 5.99741C11.1819 5.99741 8.38338 7.15661 6.31999 9.21999C4.25661 11.2834 3.09741 14.0819 3.09741 17C3.09741 19.9181 4.25661 22.7166 6.31999 24.78L24 42.46L41.68 24.78C42.702 23.7585 43.5127 22.5456 44.0658 21.2107C44.6189 19.8758 44.9036 18.445 44.9036 17C44.9036 15.555 44.6189 14.1242 44.0658 12.7893C43.5127 11.4544 42.702 10.2415 41.68 9.21999Z" stroke="#B99EF6" stroke-width="4" stroke-linecap="round" stroke-linejoin="round"/>
</svg>
