<svg width="21" height="19" viewBox="0 0 21 19" fill="none" xmlns="http://www.w3.org/2000/svg">
<g clip-path="url(#clip0_57_61)">
<path d="M20.5252 6.84002C20.3491 6.33361 19.9972 5.89184 19.5216 5.58005C19.046 5.26825 18.4719 5.10298 17.8842 5.10869H14.122L12.9793 1.8918C12.7996 1.38543 12.4465 0.943698 11.9709 0.630293C11.4953 0.316889 10.9218 0.14801 10.3331 0.14801C9.74442 0.14801 9.17092 0.316889 8.69533 0.630293C8.21974 0.943698 7.86663 1.38543 7.68694 1.8918L6.54424 5.10869H2.78205C2.19627 5.10944 1.62574 5.27737 1.15195 5.5885C0.678156 5.89963 0.325335 6.33804 0.143882 6.8411C-0.0375705 7.34416 -0.0383737 7.88616 0.141588 8.38966C0.321549 8.89316 0.673069 9.33242 1.14594 9.64469L4.20805 11.6669L3.04383 14.9235C2.85568 15.4285 2.8533 15.975 3.03703 16.4814C3.22076 16.9878 3.58077 17.427 4.06338 17.7336C4.53773 18.05 5.11255 18.2195 5.70221 18.2168C6.29187 18.2141 6.86479 18.0395 7.33561 17.7188L10.3331 15.7261L13.3315 17.7165C13.805 18.031 14.3767 18.2019 14.9645 18.2045C15.5523 18.2071 16.1258 18.0413 16.6027 17.7309C17.0795 17.4205 17.4351 16.9815 17.6184 16.4771C17.8016 15.9726 17.803 15.4287 17.6224 14.9235L16.4582 11.6669L19.5238 9.64469C20.002 9.33634 20.3577 8.89709 20.5381 8.39196C20.7184 7.88683 20.7139 7.34266 20.5252 6.84002ZM18.5077 8.38858L14.9392 10.7445C14.7926 10.841 14.6836 10.977 14.6276 11.1328C14.5716 11.2887 14.5716 11.4566 14.6275 11.6125L15.9837 15.4002C16.0524 15.5924 16.0518 15.7992 15.9821 15.991C15.9124 16.1828 15.7771 16.3497 15.5958 16.4676C15.4144 16.5856 15.1963 16.6486 14.9728 16.6476C14.7493 16.6466 14.5319 16.5816 14.3519 16.4619L10.8429 14.1286C10.6951 14.0305 10.5165 13.9776 10.3331 13.9776C10.1497 13.9776 9.97115 14.0305 9.82335 14.1286L6.31433 16.4619C6.13443 16.5832 5.91644 16.6495 5.69197 16.6514C5.4675 16.6532 5.24822 16.5904 5.06591 16.4721C4.88361 16.3538 4.74775 16.1862 4.67804 15.9934C4.60833 15.8007 4.60839 15.5929 4.67822 15.4002L6.03877 11.6125C6.09467 11.4566 6.09463 11.2887 6.03865 11.1328C5.98267 10.977 5.87362 10.841 5.72705 10.7445L2.15861 8.38858C1.97889 8.26973 1.84536 8.10262 1.77708 7.91113C1.7088 7.71964 1.70927 7.51356 1.77841 7.32232C1.84755 7.13108 1.98184 6.96447 2.16209 6.84628C2.34233 6.7281 2.55932 6.66438 2.78205 6.66424H7.17372C7.35603 6.66424 7.53363 6.61197 7.68095 6.51497C7.82827 6.41797 7.93771 6.28123 7.99349 6.12447L9.32822 2.36702C9.39673 2.17474 9.53102 2.00706 9.71176 1.8881C9.8925 1.76915 10.1104 1.70506 10.334 1.70506C10.5576 1.70506 10.7755 1.76915 10.9562 1.8881C11.137 2.00706 11.2713 2.17474 11.3398 2.36702L12.6745 6.12447C12.7303 6.28123 12.8397 6.41797 12.987 6.51497C13.1344 6.61197 13.312 6.66424 13.4943 6.66424H17.8859C18.1087 6.66438 18.3257 6.7281 18.5059 6.84628C18.6861 6.96447 18.8204 7.13108 18.8896 7.32232C18.9587 7.51356 18.9592 7.71964 18.8909 7.91113C18.8226 8.10262 18.6891 8.26973 18.5094 8.38858H18.5077Z" fill="#B99EF6"/>
</g>
<path d="M8.32815 13.2656C8.22502 13.3275 8.13065 13.3851 8.01658 13.4732C7.82821 13.6186 7.70346 13.7859 7.65143 13.8873C7.60521 13.9772 7.6094 14.057 7.62744 14.0961C7.70844 14.2714 8.10846 13.8912 8.25479 13.7712C8.34126 13.7003 8.3644 13.5478 8.37244 13.4378C8.37553 13.3956 8.33877 13.3492 8.29721 13.305C8.2214 13.2243 7.99096 13.2344 7.68729 13.2524C7.51702 13.2625 7.31658 13.3065 7.02737 13.3793C6.73815 13.452 6.3669 13.5603 6.09315 13.6548C5.8194 13.7492 5.6544 13.8265 5.52815 13.8922C5.31574 14.0026 5.1158 14.1656 4.9258 14.3425C4.85067 14.4124 4.83377 14.4575 4.84119 14.4787C4.84862 14.5 4.88471 14.5 5.06573 14.4149C5.24674 14.3298 5.57158 14.1597 5.75182 14.0591C5.96286 13.9414 5.99987 13.8856 6.02588 13.8466C6.03763 13.829 6.04158 13.8128 6.02877 13.8126C5.98245 13.8117 5.92737 13.8695 5.83674 13.9756C5.65985 14.1827 5.52643 14.4158 5.46916 14.5563C5.42967 14.6532 5.40658 14.7906 5.31026 14.9578C5.24665 15.0682 5.13065 15.1612 5.0783 15.2185C5.00844 15.2949 5.05721 15.4528 5.08065 15.5283C5.11039 15.6242 5.23408 15.6822 5.31479 15.7315C5.4329 15.8038 5.56221 15.8697 5.65073 15.8905C5.68765 15.8992 5.72893 15.9062 5.7783 15.9011C5.86657 15.8919 5.92158 15.8128 5.98416 15.7373C6.0396 15.6703 6.08315 15.5994 6.14823 15.503C6.20114 15.4246 6.22908 15.344 6.37182 15.144C6.43247 15.059 6.50502 15.0314 6.54401 15.0054C6.56162 14.9936 6.57783 14.9897 6.59354 15.0102C6.68284 15.1271 6.77502 15.2906 6.89026 15.3619C7.02545 15.4455 7.17127 15.37 7.29385 15.3076C7.35785 15.275 7.49877 15.0642 7.6708 14.7961C7.72978 14.7042 7.68815 14.6775 7.65932 14.6643C7.60694 14.6403 7.46987 14.5942 7.24908 14.4904C7.13479 14.4366 7.02315 14.3659 6.82033 14.2257C6.61752 14.0855 6.32877 13.874 6.13877 13.7471C5.87474 13.5707 5.75549 13.5417 5.71127 13.5236C5.67036 13.5068 5.6719 13.4481 5.67448 13.4065C5.67709 13.3644 5.72877 13.2561 5.87635 12.966C5.98003 12.7622 6.15283 12.449 6.26885 12.2148C6.38487 11.9806 6.44158 11.8362 6.48627 11.6923C6.53096 11.5483 6.5619 11.409 6.58041 11.3528C6.59893 11.2965 6.60408 11.3275 6.59901 11.3873C6.5864 11.5356 6.55221 11.8003 6.53916 12.1226C6.53322 12.2696 6.54158 12.3831 6.5726 12.5421C6.60362 12.7011 6.66033 12.9022 6.74369 13.0857C6.90632 13.4437 7.08299 13.6298 7.17635 13.7051C7.23037 13.7487 7.31096 13.7856 7.65244 13.8198C7.99393 13.8539 8.59721 13.8797 9.01885 13.8775C9.44049 13.8753 9.66221 13.8444 9.85377 13.8052C10.2032 13.7338 10.411 13.6358 10.5071 13.563C10.5532 13.5282 10.5878 13.4903 10.6064 13.464C10.625 13.4376 10.625 13.4222 10.6096 13.4194C10.5941 13.4165 10.5631 13.4269 10.31 13.5482C10.0569 13.6695 9.58252 13.9015 9.30979 14.0288C8.98442 14.1806 8.85487 14.2133 8.71463 14.2601C8.64239 14.2842 8.56408 14.2965 8.51651 14.3019C8.46893 14.3073 8.45346 14.3022 8.44807 14.2376C8.44268 14.1731 8.44783 14.0494 8.49174 13.7304C8.53565 13.4114 8.61815 12.9009 8.66065 12.5864C8.71686 12.1704 8.69283 11.98 8.66948 11.824C8.63238 11.5764 8.49533 11.4381 8.3626 11.3622C8.27259 11.3107 8.04846 11.3281 7.77026 11.341C7.6462 11.3467 7.55908 11.3797 7.40307 11.4548C7.24705 11.53 7.02533 11.6537 6.81573 11.7897C6.60612 11.9256 6.41533 12.07 6.29127 12.1753C6.10641 12.3322 6.04705 12.4578 6.02104 12.5565C5.99816 12.6434 6.00518 12.7184 6.02588 12.7808C6.04945 12.8518 6.14018 12.8905 6.24916 12.919C6.38639 12.9551 6.57705 12.9531 6.86744 12.9196C7.05139 12.8984 7.30221 12.819 7.49424 12.7562C7.68627 12.6933 7.81002 12.6365 7.92533 12.5764C8.14718 12.4607 8.33768 12.3133 8.49885 12.1548C8.64797 12.0082 8.72362 11.8237 8.78604 11.6626C8.84257 11.5167 8.84377 11.3756 8.83346 11.2587C8.82414 11.153 8.72971 11.063 8.59744 10.972C8.42642 10.8544 8.1783 10.818 7.92643 10.7763C7.65171 10.7309 7.38143 10.7655 7.15791 10.8095C6.95693 10.8491 6.75127 11.0044 6.55604 11.1423C6.45888 11.2109 6.44799 11.2655 6.44018 11.3018C6.43576 11.3223 6.43752 11.3484 6.45299 11.3669C6.61377 11.4062 6.84315 11.3959 6.93463 11.3569C6.95299 11.3439 6.96846 11.3284 6.9844 11.3125" stroke="#B99EF6" stroke-width="2" stroke-linecap="round"/>
<path d="M5.79684 10.3437C5.78653 10.3437 5.7709 10.3283 5.68567 10.2326C5.47922 10.001 5.27137 9.81295 5.16739 9.73233C5.02957 9.62547 4.93246 9.61983 4.89864 9.62748C4.7576 9.65941 4.88528 9.9578 4.92168 10.0725C4.95205 10.1681 5.02059 10.2289 5.04668 10.2525C5.07152 10.2749 4.98481 10.1205 4.8552 9.96217C4.77696 9.86663 4.6534 9.75748 4.44536 9.58819C4.23731 9.41889 3.9434 9.19717 3.77395 9.07264C3.50107 8.8721 3.35996 8.79717 3.25036 8.7242C3.16087 8.66463 3.08371 8.61998 3.00286 8.56787C2.93621 8.52493 2.78746 8.4278 2.67215 8.35436C2.57887 8.29495 2.52121 8.19311 2.47926 8.12264C2.42493 8.03137 2.30278 7.88123 2.22411 7.75295C2.17873 7.67897 2.17184 7.62514 2.177 7.59397C2.18789 7.52809 2.2809 7.5003 2.35645 7.47139C2.4226 7.44608 2.50996 7.45311 2.60895 7.44014C2.66053 7.43338 2.72356 7.43233 2.94325 7.42452C3.12674 7.41799 3.45684 7.42186 3.64746 7.42444C3.87945 7.42757 4.09715 7.43748 4.38082 7.43491C4.60409 7.43288 4.75965 7.41155 5.04497 7.38561C5.21118 7.3705 5.49934 7.32373 5.66098 7.29733C5.84947 7.26654 6.04512 7.21905 6.31067 7.16959C6.4062 7.1518 6.42153 7.14592 6.43981 7.14069C6.45809 7.13545 6.47872 7.1303 6.08457 7.16373C5.69043 7.19717 4.8809 7.26936 4.39684 7.32975C3.91278 7.39014 3.77871 7.43655 3.69418 7.47334C3.57376 7.52576 3.53137 7.58827 3.50278 7.6428C3.44604 7.75101 3.47903 7.87436 3.53614 8.03061C3.56886 8.12013 3.65575 8.20264 3.76473 8.30131C3.89621 8.42035 4.08746 8.52545 4.30043 8.63459C4.40875 8.6901 4.52372 8.73342 4.70075 8.78827C4.87778 8.84311 5.11497 8.90498 5.34286 8.94975C5.57075 8.99452 5.78215 9.0203 5.91942 9.03358C6.11295 9.0523 6.2234 9.03655 6.317 9.01319C6.4745 8.97388 6.56215 8.81811 6.66364 8.65686C6.73403 8.54501 6.83809 8.44842 6.99153 8.28194C7.11836 8.14432 7.10403 8.04217 7.10418 7.88858C7.10435 7.72819 7.01043 7.55748 6.99489 7.52366C6.98787 7.50839 6.96903 7.5053 6.9559 7.51038C6.84993 7.55138 6.79715 7.82186 6.7527 8.16467C6.73134 8.32942 6.73965 8.59873 6.74989 8.78069C6.77352 9.20089 6.93184 9.35873 7.0127 9.44506C7.03901 9.47315 7.07793 9.47905 7.10911 9.49467C7.13737 9.50884 7.19231 9.49483 7.31661 9.46639C7.54705 9.41367 7.78543 9.31811 7.98028 9.22983C8.175 9.1416 8.34809 9.01108 8.51434 8.86827C8.60002 8.79467 8.68059 8.70998 8.7695 8.59014C8.96565 8.32573 9.07778 8.07373 9.13239 7.91522C9.18069 7.775 9.18746 7.61545 9.18231 7.46202C9.17868 7.35393 9.10981 7.22998 8.98536 7.01733C8.9087 6.88635 8.79903 6.71186 8.7252 6.58287C8.65137 6.45389 8.61528 6.37655 8.5709 6.21553C8.52653 6.05452 8.47496 5.81217 8.44582 5.56616C8.41668 5.32014 8.41153 5.0778 8.41918 4.88592C8.42684 4.69405 8.44747 4.55998 8.48129 4.41358C8.55144 4.10998 8.62481 3.93764 8.65082 3.92452C8.72941 3.88487 8.66153 4.1453 8.53184 4.45436C8.39525 4.77987 8.22934 4.94233 8.11817 5.10014C8.0308 5.22416 7.86778 5.42811 7.73129 5.62717C7.47346 6.00322 7.36465 6.22889 7.34387 6.286C7.31975 6.3523 7.31246 6.41123 7.32278 6.44248C7.34398 6.50673 7.4734 6.40123 7.56473 6.29733C7.6172 6.23763 7.66637 6.16186 7.71832 6.06842C7.77923 5.95888 7.84325 5.7153 7.91614 5.42389C8.00358 5.07431 8.03121 4.75561 8.04418 4.67475C8.06049 4.57311 8.15559 4.34498 8.29114 4.12827C8.3705 4.00138 8.48903 3.92748 8.59332 3.86998C8.7248 3.7975 8.8434 3.70342 8.92668 3.64608C9.04232 3.56645 9.0934 3.5003 9.15075 3.42998C9.24986 3.30845 9.33809 3.20873 9.39301 3.13827C9.45233 3.06216 9.50496 3.0003 9.55965 2.93514C9.62237 2.86042 9.67684 2.77123 9.74707 2.69819C9.83338 2.60843 9.91622 2.4953 9.97114 2.39616C9.99358 2.35565 10.0259 2.32827 10.0518 2.31256C10.132 2.26402 10.1925 2.43717 10.2601 2.52827C10.3397 2.63543 10.4475 2.77561 10.5438 2.89788C10.6786 3.06894 10.7859 3.15061 10.8747 3.24444C10.9459 3.31972 11.0153 3.38498 11.0778 3.50194C11.2186 3.76549 11.2393 3.90061 11.3531 4.21061C11.4511 4.47763 11.6112 4.97436 11.6988 5.25256C11.8002 5.57458 11.8123 5.67139 11.8461 5.78553C11.8915 5.93914 11.9217 6.13436 11.9735 6.37569C12.0035 6.5154 12.0665 6.68405 12.1009 6.77944C12.1353 6.87483 12.1456 6.8903 12.1509 6.81834C12.168 6.58712 12.1407 6.31358 12.0838 6.08248C12.0528 5.95662 11.9753 5.82561 11.8814 5.6792C11.7876 5.5328 11.669 5.37811 11.5177 5.20819C11.3664 5.03827 11.1859 4.8578 10.9408 4.65397C10.6957 4.45014 10.3915 4.22842 10.1059 4.04459C9.82028 3.86077 9.56246 3.72155 9.37036 3.6292C9.06554 3.48268 8.82918 3.43248 8.65739 3.40123C8.59403 3.38971 8.5784 3.39061 8.55754 3.4035C8.53668 3.41639 8.5109 3.44217 8.4409 3.58178C8.3709 3.72139 8.25746 3.97405 8.17067 4.20733C8.08387 4.44061 8.02715 4.64686 7.99278 4.89491C7.9584 5.14295 7.94809 5.42655 7.94793 5.601C7.94773 5.83239 7.98934 5.93186 8.03606 6.01241C8.08349 6.09418 8.17137 6.14561 8.2752 6.18459C8.39594 6.22993 8.64403 6.23952 8.95864 6.23959C9.09803 6.23963 9.1959 6.21905 9.42684 6.15436C9.65778 6.08967 10.0187 5.97623 10.2407 5.89202C10.5437 5.77709 10.6248 5.68248 10.6302 5.64608C10.638 5.59361 10.4747 5.62483 10.2854 5.68436C10.166 5.7219 10.0084 5.80061 9.70434 6.0028C9.40028 6.20498 8.95684 6.53498 8.64332 6.78491C8.32981 7.03483 8.15965 7.19467 8.05395 7.30538C7.90243 7.46406 7.86981 7.55186 7.87746 7.5728C7.88187 7.58483 7.92121 7.55248 8.05575 7.39233C8.19028 7.23217 8.42747 6.93311 8.58575 6.71975C8.74403 6.50639 8.81622 6.3878 8.87145 6.28288C9.03571 5.97085 9.05184 5.74092 9.10371 5.54483C9.16803 5.30171 9.432 5.46358 9.502 5.45577C9.54602 5.45085 9.60809 5.45311 9.79465 5.75733C9.98121 6.06155 10.2906 6.66998 10.5041 7.13811C10.7176 7.60623 10.8259 7.91561 10.8894 8.1085C11.0109 8.47751 11 8.70186 10.9714 8.84077C10.9622 8.88593 10.9531 8.95264 10.9634 9.00748C11.0207 8.93764 11.0518 8.8753 11.0754 8.80498C11.0781 8.78155 11.0781 8.75061 11.0468 8.70311" stroke="#B99EF6" stroke-width="2" stroke-linecap="round"/>
<path d="M11.5782 9.67187C11.5472 9.67187 11.4488 9.70281 11.2258 9.85796C11.0719 9.96507 10.8894 10.1987 10.7627 10.3464C10.5784 10.5612 10.5055 10.7025 10.4613 10.8194C10.38 11.0346 10.4322 11.2547 10.4764 11.3305C10.5059 11.3812 10.5624 11.3958 10.6194 11.4036C10.7269 11.4183 10.864 11.3856 10.9836 11.3312C11.0924 11.2816 11.1455 11.0742 11.2054 10.817C11.263 10.5693 11.2449 10.3653 11.2242 10.2121C11.2009 10.04 11.1099 9.86031 11.0164 9.68359C10.9714 9.59854 10.9229 9.52749 10.7881 9.37687C10.6533 9.22624 10.4316 8.99937 10.2607 8.8464C9.99039 8.60452 9.81819 8.5314 9.73764 8.50538C9.59476 8.45924 9.43319 8.50499 9.25076 8.59851C9.14817 8.6511 9.06303 8.74953 8.97209 8.85078C8.8753 8.95854 8.77162 9.21171 8.65451 9.55992C8.59916 9.7245 8.59412 9.87718 8.58615 10.0084C8.57819 10.1395 8.57819 10.2478 8.6117 10.399C8.64522 10.5502 8.71225 10.7409 8.7674 10.8727C8.85271 11.0766 8.95272 11.1819 9.04881 11.2573C9.14138 11.3299 9.2599 11.3541 9.41287 11.3697C9.64205 11.3931 9.84834 11.3595 9.98084 11.3232C10.2244 11.2564 10.3485 11.11 10.4321 10.9667C10.5354 10.7897 10.5572 10.5734 10.5548 10.508C10.5522 10.4379 10.3755 10.5414 10.2356 10.6423C10.1383 10.7125 10.0029 10.8412 9.82545 11.0365C9.64803 11.2317 9.43662 11.4947 9.30967 11.6611C9.06455 11.9824 9.04178 12.1195 9.0417 12.1534C9.04165 12.1741 9.171 12.053 9.36834 11.848C9.47733 11.7347 9.58631 11.5862 9.7092 11.3598C9.83209 11.1333 9.961 10.8291 10.0609 10.5666C10.1608 10.3042 10.2279 10.0928 10.2727 9.91687C10.351 9.60985 10.3594 9.42749 10.3517 9.37531C10.348 9.35043 10.2249 9.59187 10.0612 10.0175C9.97075 10.2525 9.92319 10.5462 9.88873 10.7749C9.83055 11.1611 9.85412 11.3797 9.8749 11.4707C9.89015 11.5374 9.92178 11.5831 9.95295 11.6144C9.97621 11.6377 10.0465 11.5941 10.3333 11.4853C10.5697 11.3957 11.0069 11.2837 11.328 11.2097C11.6491 11.1356 11.8451 11.115 11.964 11.1069C12.083 11.0989 12.1191 11.1041 12.148 11.1196C12.2048 11.1502 12.224 11.2081 12.2318 11.278C12.2458 11.4039 12.219 11.5308 12.1723 11.6862C12.1397 11.7947 12.0947 11.9653 12.0451 12.1226C11.9954 12.2798 11.9438 12.4191 11.8889 12.5501C11.7122 12.9717 11.5994 13.0984 11.5056 13.1794C11.4446 13.2321 11.3701 13.2653 11.3309 13.3279C11.2944 13.3862 11.271 13.4528 11.2527 13.5774C11.2141 13.8407 11.3019 13.9475 11.3592 14.0413C11.3842 14.0823 11.5094 14.2227 11.6966 14.4489C11.9151 14.713 12.0204 14.8172 12.1221 14.9059C12.2097 14.9824 12.3788 15.1756 12.5387 15.3044C12.67 15.4102 12.7497 15.4322 12.9026 15.5098C13.4145 15.77 13.5047 15.7862 13.578 15.828C13.6409 15.8638 13.7235 15.8956 13.8122 15.9425C13.9606 16.0209 14.0569 16.0778 14.1404 16.1274C14.2459 16.1901 14.3591 16.255 14.4347 16.2837C14.4705 16.2974 14.5051 16.3176 14.6033 16.3538C14.8184 16.433 15.0666 16.5258 15.2462 16.5519C15.3117 16.5615 15.3279 16.5266 15.3384 16.503C15.3785 16.4132 15.4166 16.3181 15.4505 16.2477C15.489 16.1673 15.4844 15.9444 15.4379 15.7144C15.38 15.4283 15.266 15.3131 15.1905 15.1257C15.141 15.0031 15.0735 14.8397 15.0107 14.6854C14.9966 14.6507 14.9744 14.6153 14.8865 14.4059C14.7985 14.1966 14.6438 13.815 14.5151 13.5437C14.3865 13.2723 14.2885 13.1228 14.1916 12.9968C14.0127 12.7641 13.8805 12.6512 13.808 12.6045C13.7009 12.5356 13.5477 12.5053 13.3841 12.4923C13.2056 12.478 13.0579 12.5258 12.9591 12.5829C12.7705 12.692 12.6726 12.9156 12.5862 13.1191C12.551 13.2022 12.5626 13.3016 12.5677 13.3874C12.5748 13.505 12.7807 13.5778 12.9214 13.6144C13.0793 13.6556 13.3369 13.7028 13.5205 13.7084C13.5724 13.71 13.5833 13.6408 13.5912 13.5967C13.6034 13.5279 13.5835 13.4586 13.5601 13.4066C13.5358 13.3526 13.4899 13.3075 13.4354 13.2685C13.3796 13.2286 13.251 13.2187 13.0975 13.2265C13.0081 13.231 12.9329 13.3172 12.8419 13.4185C12.7642 13.505 12.714 13.6605 12.6567 13.8682C12.5496 14.2567 12.6716 14.4575 12.7601 14.5752C12.8111 14.643 12.9008 14.6406 12.958 14.638C13.0257 14.635 13.0883 14.6095 13.1377 14.5758C13.1863 14.5425 13.2547 14.3816 13.3406 14.1501C13.4562 13.8385 13.4688 13.5269 13.4585 13.456C13.4127 13.141 13.4166 14.0097 13.4841 14.1584C13.5093 14.2138 13.5676 14.2239 13.604 14.224C13.678 14.2241 13.6822 14.0528 13.6798 13.728C13.6785 13.5522 13.5943 13.3708 13.4801 13.1682C13.419 13.0596 13.3247 12.9553 13.228 12.848C13.1313 12.7406 13.0282 12.6375 12.8668 12.5122C12.7054 12.3869 12.4888 12.2425 12.2019 12.0959C11.9151 11.9494 11.5644 11.805 11.2884 11.7074C11.0124 11.6098 10.8216 11.5634 10.6821 11.5395C10.462 11.5018 10.3544 11.5208 10.3155 11.5389C10.2722 11.559 10.2554 11.6144 10.2397 11.6611C10.2313 11.6863 10.2344 11.7181 10.2499 11.7444C10.2654 11.7706 10.2963 11.7912 10.4437 11.8225C10.5912 11.8537 10.8541 11.895 11.1365 11.9137C11.419 11.9323 11.7129 11.9272 11.8978 11.9168C12.1507 11.9026 12.2704 11.8492 12.382 11.7844C12.62 11.6461 12.7129 11.4491 12.8355 11.2741C12.9227 11.1498 12.9996 10.9027 13.0776 10.5857C13.1518 10.2845 13.1407 10.0373 13.1123 9.81687C13.095 9.68217 13.0272 9.50874 12.9413 9.3282C12.8554 9.14765 12.7419 8.96718 12.6629 8.84843C12.5838 8.72968 12.5426 8.67812 12.3924 8.52781C12.2422 8.37749 11.9844 8.12999 11.8387 7.98703C11.6644 7.81597 11.6252 7.75546 11.5966 7.69578C11.5199 7.53554 11.5729 7.38046 11.5962 7.33624C11.6068 7.31627 11.6247 7.30749 11.6508 7.30218C11.7118 7.28971 11.7758 7.31234 11.9696 7.38734C12.1358 7.45167 12.4469 7.54999 12.6115 7.59281C12.776 7.63562 12.7863 7.61499 12.7916 7.58632C12.813 7.47076 12.7554 7.40656 12.7215 7.3414C12.6684 7.23903 12.6147 7.09937 12.6223 6.98999C12.6309 6.86619 12.8226 6.89062 12.906 6.86468C13.0211 6.8289 13.3469 6.82812 13.6728 6.81515C13.8304 6.80888 14.1141 6.81249 14.2783 6.80992C14.4424 6.80734 14.4785 6.80218 14.8683 6.79953C15.2582 6.79687 16.0007 6.79687 16.3961 6.79429C16.8173 6.79154 16.9418 6.78124 17.1057 6.77867C17.2029 6.77714 17.4819 6.76562 17.8672 6.7682C18.068 6.76954 18.1507 6.79156 18.2964 6.8539C18.3936 6.89549 18.4479 6.98406 18.5206 7.07257C18.5473 7.1051 18.5521 7.14046 18.5573 7.17421C18.5724 7.2715 18.4847 7.38499 18.4481 7.45804C18.3685 7.61671 18.1722 7.75499 18.0941 7.8382C18.0132 7.92434 17.8913 8.00999 17.7609 8.12718C17.6851 8.19537 17.5994 8.24468 17.5419 8.29406C17.475 8.35151 17.4066 8.39562 17.3259 8.44249C17.2151 8.50688 17.141 8.59343 17.0784 8.64304C17.0102 8.69715 16.9379 8.74968 16.8105 8.82523C16.7113 8.88403 16.6047 8.95812 16.4278 9.0621C16.337 9.11544 16.2401 9.15093 16.154 9.20031C16.06 9.2543 15.9641 9.31218 15.8469 9.36952C15.6729 9.45471 15.5941 9.50499 15.516 9.53632C15.4206 9.57458 15.3338 9.64031 15.1858 9.70796C14.8991 9.83897 14.8338 9.90593 14.7659 9.95296C14.6957 10.0016 14.6254 10.0572 14.5524 10.1221C14.493 10.175 14.4482 10.2341 14.3935 10.2992C14.3643 10.334 14.344 10.38 14.2561 10.5479C14.18 10.6933 14.0547 10.9684 13.9832 11.1247C13.8698 11.3723 13.8232 11.4994 13.7789 11.6141C13.7402 11.7141 13.7344 11.8741 13.7422 12.0173C13.7449 12.0682 13.7654 12.0728 13.7965 12.0523C13.9538 11.9486 14.0101 11.8753 14.0754 11.8541C14.105 11.8445 14.1094 11.9061 14.112 11.9218C14.1212 11.9779 14.1872 11.7869 14.2862 11.579C14.3266 11.494 14.3437 11.417 14.3774 11.2927C14.4379 11.0701 14.4376 10.86 14.4298 10.7198C14.4203 10.5474 14.3701 10.3912 14.3208 10.2614C14.266 10.1171 14.1621 9.96437 13.9369 9.70273C13.7765 9.51635 13.4901 9.25031 13.3466 9.10179C13.1953 8.94508 13.198 8.9064 13.1902 8.8546C13.1763 8.76256 13.1927 8.68765 13.2057 8.6539C13.2371 8.57213 13.3638 8.48499 13.585 8.35984C13.7454 8.26903 13.9832 8.25015 14.1939 8.22671C14.4153 8.20208 14.7269 8.20312 14.9707 8.23421C15.1997 8.26342 15.3016 8.30718 15.4058 8.32023C15.5709 8.3409 15.6249 8.36968 15.6509 8.39304C15.6634 8.40425 15.6666 8.42156 15.6538 8.43984C15.5545 8.5815 15.2768 8.57281 14.9277 8.59874C14.646 8.61967 14.1507 8.63499 13.9112 8.63531C13.6716 8.63562 13.7026 8.61499 13.8242 8.57085C13.9458 8.52671 14.1572 8.45968 14.4518 8.39679C14.7463 8.3339 15.1176 8.27718 15.3217 8.24796C15.5988 8.2083 15.7438 8.18749 15.9006 8.17453C16.005 8.16589 16.0779 8.15624 16.1093 8.15109C16.1144 8.15025 16.0788 8.13562 15.8076 8.15351C15.5365 8.1714 15.026 8.21781 14.6934 8.26234C14.2216 8.34812 14.0472 8.40609 13.9901 8.4321C13.9638 8.44265 13.9432 8.44781 13.9063 8.45312" stroke="#B99EF6" stroke-width="2" stroke-linecap="round"/>
<defs>
<clipPath id="clip0_57_61">
<rect width="20.6667" height="18.6667" fill="white"/>
</clipPath>
</defs>
</svg>
