<svg width="21" height="19" viewBox="0 0 21 19" fill="none" xmlns="http://www.w3.org/2000/svg">
<g clip-path="url(#clip0_5_293)">
<path d="M20.5252 6.84002C20.3491 6.33361 19.9972 5.89184 19.5216 5.58005C19.046 5.26825 18.4719 5.10299 17.8842 5.10869H14.122L12.9793 1.8918C12.7996 1.38543 12.4465 0.943698 11.9709 0.630293C11.4953 0.316889 10.9218 0.14801 10.3331 0.14801C9.74442 0.14801 9.17092 0.316889 8.69533 0.630293C8.21974 0.943698 7.86663 1.38543 7.68694 1.8918L6.54424 5.10869H2.78205C2.19627 5.10944 1.62574 5.27737 1.15195 5.5885C0.678156 5.89963 0.325335 6.33804 0.143882 6.8411C-0.0375705 7.34416 -0.0383737 7.88616 0.141588 8.38966C0.321549 8.89316 0.673069 9.33242 1.14594 9.64469L4.20805 11.6669L3.04383 14.9235C2.85568 15.4285 2.8533 15.975 3.03703 16.4814C3.22076 16.9878 3.58077 17.427 4.06338 17.7336C4.53773 18.05 5.11255 18.2195 5.70221 18.2168C6.29187 18.2141 6.86479 18.0395 7.33561 17.7188L10.3331 15.7261L13.3315 17.7165C13.805 18.031 14.3767 18.2019 14.9645 18.2045C15.5523 18.2071 16.1258 18.0413 16.6027 17.7309C17.0795 17.4205 17.4351 16.9815 17.6184 16.4771C17.8016 15.9726 17.803 15.4287 17.6224 14.9235L16.4582 11.6669L19.5238 9.64469C20.002 9.33634 20.3577 8.89708 20.5381 8.39196C20.7184 7.88683 20.7139 7.34266 20.5252 6.84002ZM18.5077 8.38858L14.9392 10.7445C14.7926 10.841 14.6836 10.977 14.6276 11.1328C14.5716 11.2887 14.5716 11.4566 14.6275 11.6125L15.9837 15.4002C16.0524 15.5924 16.0518 15.7992 15.9821 15.991C15.9124 16.1828 15.7771 16.3497 15.5958 16.4676C15.4144 16.5856 15.1963 16.6486 14.9728 16.6476C14.7493 16.6466 14.5319 16.5816 14.3519 16.4619L10.8429 14.1286C10.6951 14.0305 10.5165 13.9776 10.3331 13.9776C10.1497 13.9776 9.97115 14.0305 9.82336 14.1286L6.31433 16.4619C6.13443 16.5832 5.91644 16.6495 5.69197 16.6514C5.4675 16.6532 5.24822 16.5904 5.06591 16.4721C4.88361 16.3538 4.74775 16.1862 4.67804 15.9934C4.60833 15.8007 4.60839 15.5929 4.67822 15.4002L6.03877 11.6125C6.09467 11.4566 6.09463 11.2887 6.03865 11.1328C5.98267 10.977 5.87362 10.841 5.72705 10.7445L2.15861 8.38858C1.97889 8.26973 1.84536 8.10262 1.77708 7.91113C1.7088 7.71964 1.70927 7.51356 1.77841 7.32232C1.84755 7.13108 1.98184 6.96447 2.16209 6.84628C2.34233 6.7281 2.55932 6.66438 2.78205 6.66424H7.17372C7.35603 6.66424 7.53363 6.61197 7.68095 6.51497C7.82827 6.41797 7.93771 6.28123 7.99349 6.12447L9.32822 2.36702C9.39673 2.17474 9.53102 2.00706 9.71176 1.8881C9.8925 1.76915 10.1104 1.70506 10.334 1.70506C10.5576 1.70506 10.7755 1.76915 10.9562 1.8881C11.137 2.00706 11.2713 2.17474 11.3398 2.36702L12.6745 6.12447C12.7303 6.28123 12.8397 6.41797 12.987 6.51497C13.1344 6.61197 13.312 6.66424 13.4943 6.66424H17.8859C18.1087 6.66438 18.3257 6.7281 18.5059 6.84628C18.6861 6.96447 18.8204 7.13108 18.8896 7.32232C18.9587 7.51356 18.9592 7.71964 18.8909 7.91113C18.8226 8.10262 18.6891 8.26973 18.5094 8.38858H18.5077Z" fill="#FF6C00"/>
</g>
<defs>
<clipPath id="clip0_5_293">
<rect width="20.6667" height="18.6667" fill="white"/>
</clipPath>
</defs>
</svg>
