<svg width="21" height="19" viewBox="0 0 21 19" fill="none" xmlns="http://www.w3.org/2000/svg">
<path d="M11.8124 5.25002C11.7293 5.00065 11.6049 4.75127 11.4899 4.40783C11.3108 3.87299 11.3337 3.43877 11.2087 2.98127C11.0597 2.43596 11.1043 2.18815 11.0421 2.0944C10.904 1.88618 9.71742 2.43502 9.47773 2.51065C8.99252 2.66374 10.3112 2.89502 10.5409 3.07221C10.7479 3.23197 10.7699 3.60252 10.8849 3.87408C10.9959 4.13624 11.1449 4.37377 11.3534 4.6344C11.5631 4.89669 11.7487 5.31002 11.8952 5.6344C12.0465 5.96917 12.2287 6.18627 12.4365 6.42627C12.6374 6.65825 12.9774 6.77002 14.1309 7.12377C14.6938 7.29644 15.4137 7.37502 16.0274 7.4269C17.7015 7.56839 18.2462 7.37502 18.6034 7.50971C18.7252 7.55565 18.6874 7.77002 18.6565 7.91565C18.6255 7.97877 18.5637 8.02002 18.4287 8.04127C18.2937 8.06252 18.0874 8.06252 17.8749 8.06252" stroke="#1A191B" stroke-width="2" stroke-linecap="round"/>
<path d="M9.48375 10.3399C9.1925 10.7143 8.985 10.9224 8.68282 11.193C8.44569 11.4054 8.235 11.6099 8.08844 11.8183C7.95163 12.0129 7.4875 12.4612 7.05782 12.8805C6.83001 13.1029 6.61 13.2974 6.35969 13.568C6.29922 13.6334 6.235 13.6724 6.20313 13.6627C5.99453 13.5993 6.3375 13.1124 6.47282 12.8408C6.5331 12.7199 6.56688 12.5905 6.59813 12.5999C7.12681 12.7585 6.46375 13.4012 6.34875 13.6515C6.21367 13.9455 5.9225 14.2549 5.70313 14.4127C5.5428 14.5281 5.89875 13.8424 6.10813 13.4765C6.26195 13.2076 6.44125 12.9662 6.60813 12.7055C6.70327 12.557 6.75438 12.403 6.78563 12.3402C6.8807 12.1491 6.5675 12.8387 6.52563 13.1096C6.46819 13.4813 6.3175 13.7137 6.23407 13.964C6.15063 14.2143 6.0675 14.4637 5.90125 14.7243C5.68999 15.0555 5.54688 15.1937 5.44282 15.2252C5.40139 15.2378 5.38 15.1537 5.40032 15.0805C5.49854 14.7269 5.81625 14.5287 5.94188 14.3608C6.1315 14.1076 5.65125 14.9424 5.49469 15.2243C5.33761 15.5071 5.21375 15.7762 5.13969 15.9955C4.98974 16.4397 5.9825 15.7987 6.24313 15.6946C6.59022 15.556 6.89875 15.3412 7.2325 15.1012C7.53334 14.8848 7.795 14.6949 8.1075 14.4555C8.44196 14.1993 8.71125 13.9662 8.93094 13.7158C9.14992 13.4663 9.42 13.2787 9.7325 13.018C9.81789 12.9468 9.89875 12.8624 9.88969 12.8715C9.52454 13.2366 8.94375 13.5262 8.20532 13.9218C8.04709 14.0066 7.985 14.0474 7.95313 13.9655C7.70393 13.3254 8.12938 12.8405 8.07813 12.788C7.60732 12.3057 6.985 13.5262 6.2575 14.0462C5.82123 14.358 5.5475 14.5474 5.24532 14.7662C5.17219 14.8191 5.11 14.8599 5.08844 14.8502C4.90001 14.7656 5.44 14.3212 5.63938 13.9871C5.90991 13.5338 5.98375 13.2374 6.12875 12.8105C6.31804 12.2533 6.6275 11.8637 6.86844 11.4662C6.97295 11.2937 7.06688 11.1324 7.06719 11.0487C7.06835 10.7374 6.63125 11.6712 6.43219 11.964C6.21787 12.2792 6.3175 12.8387 6.23407 13.089C6.15063 13.3393 6.0675 13.5887 5.87 13.839C5.67226 14.0896 5.46375 14.3387 5.29688 14.5993C5.11059 14.8902 4.96375 15.1512 4.77625 15.4118C4.65203 15.5845 4.52563 15.7143 4.50469 15.7565C4.33148 16.1055 5.08625 14.9462 5.3475 14.6533C5.54417 14.4329 5.62875 14.1537 5.775 13.9033C5.90516 13.6806 6.045 13.3624 6.295 12.9874C6.51432 12.6584 6.775 12.4655 6.78594 12.4543C7.15027 12.0795 6.3175 13.0887 6.14063 13.2771C6.01279 13.4133 6.275 12.8412 6.36875 12.539C6.53515 12.0026 6.4425 11.1537 6.33844 10.924C6.22972 10.684 5.75625 10.7574 5.43282 10.6527C5.10358 10.5462 4.69375 10.3199 4.34969 10.1427C3.95516 9.93955 3.6725 9.71616 3.37031 9.57991C3.09305 9.4549 2.86 9.29866 2.60969 9.15304C2.34966 9.00176 2.1925 8.77866 2.05719 8.52835C1.99291 8.40944 1.98375 8.17491 2.025 7.88366C2.09 7.42477 2.545 7.25741 2.86781 7.11116C3.20275 6.95942 3.93625 7.02741 4.48219 6.97554C5.06447 6.92021 5.605 6.90241 5.99313 6.98522C6.35864 7.06321 6.6075 7.29741 6.85781 7.41241C6.98888 7.47262 7.12875 7.60991 7.25375 7.76585C7.34246 7.87651 7.31688 8.02679 7.33781 8.16179C7.39086 8.50382 6.9225 8.73491 6.62032 8.94335C6.37304 9.11391 5.5525 9.08991 5.04719 9.01741C4.90442 8.99693 4.77625 8.86116 4.63063 8.76772C4.56169 8.72349 4.52625 8.65366 4.55657 8.58054C4.63507 8.39116 5.37375 8.33991 6.19719 8.3296C6.72007 8.32305 4.48438 8.29804 4.35969 8.3396C4.29688 8.36054 4.235 8.38116 4.36813 8.43304C4.50125 8.48491 4.83125 8.56741 4.94969 8.5996C5.16261 8.65746 4.36 8.38241 3.99563 8.23616C3.8303 8.1698 3.67188 8.19429 3.54719 8.17335C3.48524 8.16295 3.4225 8.19366 3.41125 8.23522C3.4 8.27679 3.44125 8.33866 3.51407 8.37054C3.67786 8.44224 4.3325 8.50554 5.46469 8.7546C6.06391 8.88642 6.7 9.08616 7.2975 9.30554C8.44849 9.72813 9.14875 10.1305 9.46063 10.3383C9.74457 10.5276 10.1475 10.8587 10.5953 11.1196C10.7406 11.2043 10.775 11.0712 10.7753 10.9768C10.7776 10.2741 10.4225 8.94866 10.2344 8.4246C10.1776 8.26652 10.0675 8.15304 9.96375 8.05929C9.66828 7.79229 8.82125 8.64866 8.39094 9.28585C8.31964 9.39143 8.3175 9.46366 8.33781 9.48522C8.61019 9.77436 9.14875 8.48866 9.59594 7.56366C10.4796 5.73573 10.65 5.19616 10.7234 4.91335C10.8112 4.57542 10.1313 5.42116 9.65219 5.9421C9.18106 6.45441 8.6725 6.98491 8.47406 7.20366C8.42433 7.25849 8.36 7.29741 8.32813 7.28772C8.11945 7.2243 8.68875 6.28366 9.04531 5.69554C9.1801 5.47323 9.275 5.25741 9.31688 5.18397C9.48235 4.89379 8.7575 6.18866 8.44281 6.70335C8.365 6.83062 8.29688 6.98491 8.20313 7.06866C7.88705 7.35102 8.62875 5.90491 8.86813 5.48741C9.15842 4.98111 9.25375 4.71616 9.52438 4.10272C9.67584 3.7594 9.87875 3.52866 10.0975 3.26804C10.1554 3.19909 10.1913 3.11241 10.2538 3.1421C10.4584 3.2393 10.4838 3.85679 10.4528 4.47116C10.4415 4.69552 10.36 4.73491 10.2972 4.74585C10.174 4.7673 10.0056 4.61179 9.81844 4.38335C9.48627 3.97797 9.5675 3.61241 9.54625 3.2371C9.5415 3.15317 9.54625 3.09116 9.62875 3.05929C10.076 2.88647 10.3575 3.13116 10.5975 3.2871C10.8377 3.44317 10.8375 3.81741 10.8691 4.2446C10.8992 4.65276 10.9625 5.19241 11.0044 5.5571C11.0639 6.07518 11.15 6.40116 11.1816 6.97304C11.1891 7.11009 11.2125 7.19241 11.2231 8.00835C11.2338 8.82429 11.2338 10.3712 11.2234 11.199C11.21 12.2785 10.985 12.8987 10.7763 13.2558C10.7382 13.321 10.6313 13.3187 10.5372 13.3087C10.1423 13.2667 9.7575 12.8212 9.38063 12.5283C9.12016 12.326 9.0675 11.9249 9.015 11.643C8.985 11.482 9.17063 11.3405 9.30563 11.2262C9.56562 11.0059 9.83688 11.0274 10.0034 11.0583C10.5127 11.1529 10.0263 12.4012 9.97344 12.7552C9.95143 12.9028 9.92125 13.068 9.97282 13.2758C10.089 13.744 10.4825 13.8187 10.7328 13.9643C10.9928 14.1156 11.1913 14.3387 11.4203 14.5371C11.7056 14.7842 12.21 15.1087 12.6594 15.4533C12.9793 15.6987 13.2325 15.8599 13.4828 16.0268C13.7476 16.2033 14.045 16.3599 14.2953 16.5062C14.532 16.6445 15.0638 16.5899 15.41 16.4033C15.6609 16.2682 15.5875 15.9037 15.5259 15.6637C15.4539 15.383 15.0063 15.3199 14.6931 15.0805C14.3325 14.8049 14.0888 14.2587 13.8494 13.9143C13.3307 13.1681 13.2963 12.1124 13.2444 11.5412C13.1264 10.2421 13.3788 9.86241 13.4834 9.54897C13.6481 9.056 13.4638 11.1912 13.3175 12.1696C13.246 12.6483 13.2338 13.5612 13.3684 14.1412C13.4359 14.4317 13.94 14.4849 14.4819 14.5583C14.654 14.5817 14.7125 14.7768 14.775 14.819C15.0161 14.9817 14.6925 14.1962 14.6609 13.8308C14.625 13.4152 14.4838 13.0912 14.4216 12.7371C14.3664 12.4229 14.3175 12.0499 14.2756 11.4252C14.2697 11.337 14.2138 11.4012 14.1719 11.4743C13.9862 11.7985 13.7763 12.1299 13.5678 12.4533C13.4009 12.7124 13.3175 13.0262 13.1822 13.2765C13.0581 13.506 13.0675 13.7143 12.9638 13.7977C12.9122 13.8392 12.8188 13.7987 12.7144 13.7055C12.0207 13.0866 12.1088 11.4299 12.1606 10.779C12.1906 10.4029 12.3163 10.1124 12.4313 9.72679C12.537 9.3721 12.6913 9.04991 12.8063 8.72647C12.9048 8.44939 13.0663 8.21616 13.1813 7.94522C13.3361 7.58038 13.525 7.40304 13.6184 7.29897C13.848 7.04336 14.5438 7.56741 14.8372 7.83897C15.0701 8.05453 15.0463 8.46366 14.9219 9.08741C14.8413 9.49162 14.5063 9.79616 14.2141 10.0062C14.0616 10.1157 13.8388 10.0068 13.6931 9.9446C13.4081 9.82288 13.2138 9.52866 12.9847 9.21616C12.7452 8.8894 12.5888 8.59116 12.4219 8.18522C12.301 7.89126 12.1513 7.65366 12.0466 7.39304C11.9222 7.08336 11.88 6.73741 11.8069 6.41397C11.7489 6.15764 11.7338 5.94491 11.7647 5.85085C11.8664 5.54146 12.3988 6.42116 12.7741 6.82804C13.0606 7.13864 13.295 7.44241 13.6075 7.75554C13.8655 8.01409 14.17 8.06866 14.4722 8.1521C15.0055 8.29935 15.8575 8.13241 16.1078 7.97585C16.3345 7.83405 16.6075 7.75741 17.1691 7.73554C17.3673 7.72782 17.4625 7.90179 17.5353 8.03679C17.6132 8.18125 17.5881 8.35991 17.5363 8.52616C17.4311 8.86307 17.0475 9.02616 16.7869 9.17272C16.4019 9.38924 16.0063 9.67241 15.7244 9.83929C15.4181 10.0206 15.2344 10.1937 15.2128 10.2355C15.0112 10.6272 15.9613 9.92366 16.3263 9.71585C16.6023 9.5587 16.7538 9.27866 16.9103 9.01804C17.0734 8.74648 17.0875 8.46616 17.1191 8.1121C17.1323 7.96351 17.1713 7.81991 17.1403 7.6846C17.0853 7.44381 16.6313 7.48616 14.9072 7.47522C14.5469 7.48554 14.485 7.50616 14.3603 7.51679C14.2356 7.52741 14.05 7.52741 13.7963 7.58991" stroke="#1A191B" stroke-width="2" stroke-linecap="round"/>
<g clip-path="url(#clip0_252_62)">
<path d="M20.5252 6.84002C20.3491 6.33361 19.9972 5.89184 19.5216 5.58005C19.046 5.26825 18.4719 5.10299 17.8842 5.10869H14.122L12.9793 1.8918C12.7996 1.38543 12.4465 0.943698 11.9709 0.630293C11.4953 0.316889 10.9218 0.14801 10.3331 0.14801C9.74442 0.14801 9.17092 0.316889 8.69533 0.630293C8.21974 0.943698 7.86663 1.38543 7.68694 1.8918L6.54424 5.10869H2.78205C2.19627 5.10944 1.62574 5.27737 1.15195 5.5885C0.678156 5.89963 0.325335 6.33804 0.143882 6.8411C-0.0375705 7.34416 -0.0383737 7.88616 0.141588 8.38966C0.321549 8.89316 0.673069 9.33242 1.14594 9.64469L4.20805 11.6669L3.04383 14.9235C2.85568 15.4285 2.8533 15.975 3.03703 16.4814C3.22076 16.9878 3.58077 17.427 4.06338 17.7336C4.53773 18.05 5.11255 18.2195 5.70221 18.2168C6.29187 18.2141 6.86479 18.0395 7.33561 17.7188L10.3331 15.7261L13.3315 17.7165C13.805 18.031 14.3767 18.2019 14.9645 18.2045C15.5523 18.2071 16.1258 18.0413 16.6027 17.7309C17.0795 17.4205 17.4351 16.9815 17.6184 16.4771C17.8016 15.9726 17.803 15.4287 17.6224 14.9235L16.4582 11.6669L19.5238 9.64469C20.002 9.33634 20.3577 8.89708 20.5381 8.39196C20.7184 7.88683 20.7139 7.34266 20.5252 6.84002ZM18.5077 8.38858L14.9392 10.7445C14.7926 10.841 14.6836 10.977 14.6276 11.1328C14.5716 11.2887 14.5716 11.4566 14.6275 11.6125L15.9837 15.4002C16.0524 15.5924 16.0518 15.7992 15.9821 15.991C15.9124 16.1828 15.7771 16.3497 15.5958 16.4676C15.4144 16.5856 15.1963 16.6486 14.9728 16.6476C14.7493 16.6466 14.5319 16.5816 14.3519 16.4619L10.8429 14.1286C10.6951 14.0305 10.5165 13.9776 10.3331 13.9776C10.1497 13.9776 9.97115 14.0305 9.82336 14.1286L6.31433 16.4619C6.13443 16.5832 5.91644 16.6495 5.69197 16.6514C5.4675 16.6532 5.24822 16.5904 5.06591 16.4721C4.88361 16.3538 4.74775 16.1862 4.67804 15.9934C4.60833 15.8007 4.60839 15.5929 4.67822 15.4002L6.03877 11.6125C6.09467 11.4566 6.09463 11.2887 6.03865 11.1328C5.98267 10.977 5.87362 10.841 5.72705 10.7445L2.15861 8.38858C1.97889 8.26973 1.84536 8.10262 1.77708 7.91113C1.7088 7.71964 1.70927 7.51356 1.77841 7.32232C1.84755 7.13108 1.98184 6.96447 2.16209 6.84628C2.34233 6.7281 2.55932 6.66438 2.78205 6.66424H7.17372C7.35603 6.66424 7.53363 6.61197 7.68095 6.51497C7.82827 6.41797 7.93771 6.28123 7.99349 6.12447L9.32822 2.36702C9.39673 2.17474 9.53102 2.00706 9.71176 1.8881C9.8925 1.76915 10.1104 1.70506 10.334 1.70506C10.5576 1.70506 10.7755 1.76915 10.9562 1.8881C11.137 2.00706 11.2713 2.17474 11.3398 2.36702L12.6745 6.12447C12.7303 6.28123 12.8397 6.41797 12.987 6.51497C13.1344 6.61197 13.312 6.66424 13.4943 6.66424H17.8859C18.1087 6.66438 18.3257 6.7281 18.5059 6.84628C18.6861 6.96447 18.8204 7.13108 18.8896 7.32232C18.9587 7.51356 18.9592 7.71964 18.8909 7.91113C18.8226 8.10262 18.6891 8.26973 18.5094 8.38858H18.5077Z" fill="#B99EF6"/>
</g>
<defs>
<clipPath id="clip0_252_62">
<rect width="20.6667" height="18.6667" fill="white"/>
</clipPath>
</defs>
</svg>
