<svg width="24" height="25" viewBox="0 0 24 25" fill="none" xmlns="http://www.w3.org/2000/svg">
<rect width="24" height="24.824" rx="5" fill="#B99EF6"/>
<path d="M9.33 21.835C8.93 21.795 8.61 21.695 8.37 21.535C8.15 21.355 7.98 21.135 7.86 20.875C7.7 20.695 7.6 20.555 7.56 20.455C7.54 20.355 7.54 20.265 7.56 20.185C7.66 20.185 7.75 20.185 7.83 20.185C7.91 20.165 7.96 20.125 7.98 20.065C7.98 20.005 8.01 19.965 8.07 19.945C8.15 19.925 8.23 19.925 8.31 19.945C8.69 19.965 9.15 19.835 9.69 19.555C10.25 19.275 10.86 18.885 11.52 18.385C12.18 17.865 12.84 17.305 13.5 16.705C14.02 16.025 14.38 15.525 14.58 15.205C14.8 14.885 14.91 14.645 14.91 14.485C14.93 14.305 14.89 14.125 14.79 13.945C14.71 13.785 14.52 13.705 14.22 13.705C13.92 13.705 13.46 13.905 12.84 14.305C11.98 14.845 11.29 15.345 10.77 15.805C10.25 16.265 9.77 16.785 9.33 17.365C9.17 17.565 8.99 17.785 8.79 18.025C8.61 18.245 8.45 18.435 8.31 18.595C8.19 18.755 8.13 18.835 8.13 18.835C8.13 18.915 8.01 19.015 7.77 19.135C7.55 19.255 7.36 19.315 7.2 19.315C7.12 19.275 7.01 19.205 6.87 19.105C6.75 18.985 6.67 18.835 6.63 18.655C6.45 18.515 6.3 18.395 6.18 18.295C6.06 18.175 6 17.985 6 17.725C6 17.565 6.02 17.365 6.06 17.125C6.12 16.885 6.2 16.575 6.3 16.195C6.42 15.675 6.55 15.135 6.69 14.575C6.83 13.995 6.96 13.505 7.08 13.105C7.22 12.685 7.32 12.455 7.38 12.415C7.38 12.415 7.42 12.325 7.5 12.145C7.58 11.965 7.62 11.755 7.62 11.515C7.66 11.275 7.72 11.065 7.8 10.885C7.9 10.705 7.95 10.575 7.95 10.495C8.03 10.435 8.15 10.195 8.31 9.775C8.47 9.355 8.67 8.805 8.91 8.125C8.91 8.065 8.98 7.875 9.12 7.555C9.26 7.215 9.43 6.825 9.63 6.385C9.83 5.925 10.03 5.455 10.23 4.975C10.45 4.475 10.63 4.035 10.77 3.655C11.01 3.315 11.21 2.975 11.37 2.635C11.55 2.275 11.71 2.065 11.85 2.005C11.95 1.985 12.12 2.025 12.36 2.125C12.62 2.225 12.88 2.355 13.14 2.515C13.4 2.675 13.58 2.835 13.68 2.995C13.74 3.095 13.77 3.195 13.77 3.295C13.79 3.395 13.75 3.565 13.65 3.805C13.55 4.025 13.38 4.395 13.14 4.915C12.9 5.415 12.56 6.125 12.12 7.045C11.56 8.245 11.12 9.245 10.8 10.045C10.5 10.845 10.25 11.535 10.05 12.115C9.87 12.695 9.68 13.245 9.48 13.765L9.33 14.425L10.11 13.555C10.31 13.355 10.52 13.165 10.74 12.985C10.96 12.805 11.2 12.625 11.46 12.445C11.62 12.325 11.83 12.205 12.09 12.085C12.37 11.945 12.64 11.825 12.9 11.725C13.16 11.625 13.35 11.565 13.47 11.545C13.53 11.525 13.73 11.485 14.07 11.425C14.43 11.345 14.78 11.305 15.12 11.305C15.56 11.305 15.94 11.465 16.26 11.785C16.6 12.085 16.9 12.455 17.16 12.895C17.38 13.315 17.46 13.855 17.4 14.515C17.34 15.155 17.17 15.705 16.89 16.165C16.79 16.245 16.69 16.355 16.59 16.495C16.49 16.615 16.44 16.715 16.44 16.795C16.42 16.935 16.24 17.225 15.9 17.665C15.56 18.085 15.22 18.485 14.88 18.865C14.52 19.245 14.08 19.625 13.56 20.005C13.04 20.365 12.52 20.695 12 20.995C11.5 21.275 11.07 21.475 10.71 21.595C10.55 21.615 10.32 21.655 10.02 21.715C9.72 21.755 9.49 21.795 9.33 21.835Z" fill="white"/>
</svg>
