<svg width="40" height="40" viewBox="0 0 40 40" fill="none" xmlns="http://www.w3.org/2000/svg">
<circle cx="20" cy="20" r="20" fill="#FFF5ED"/>
<g clip-path="url(#clip0_69_81)">
<path d="M30.2 10.163C29.6378 9.6929 28.9791 9.35236 28.2705 9.16554C27.5619 8.97871 26.8209 8.95018 26.1 9.08197L22.278 9.77597C21.3956 9.93802 20.5933 10.392 20 11.065C19.4052 10.3908 18.6006 9.93675 17.716 9.77597L13.9 9.08197C13.1792 8.95007 12.4381 8.97822 11.7294 9.16445C11.0206 9.35067 10.3615 9.69042 9.79857 10.1596C9.23567 10.6288 8.78279 11.216 8.47198 11.8797C8.16118 12.5433 8.00005 13.2672 8 14V24.793C8.00006 25.9638 8.41098 27.0974 9.16113 27.9963C9.91129 28.8952 10.9531 29.5024 12.105 29.712L18.391 30.855C19.455 31.0483 20.545 31.0483 21.609 30.855L27.9 29.712C29.051 29.5014 30.0916 28.8938 30.8408 27.9949C31.5899 27.0961 32.0002 25.9631 32 24.793V14C32.0005 13.2674 31.8394 12.5438 31.5283 11.8806C31.2171 11.2174 30.7636 10.6309 30.2 10.163V10.163ZM19 28.928C18.916 28.916 18.832 28.902 18.748 28.887L12.463 27.745C11.7718 27.6192 11.1466 27.2548 10.6965 26.7154C10.2464 26.1759 9.99989 25.4956 10 24.793V14C10 13.2043 10.3161 12.4413 10.8787 11.8787C11.4413 11.316 12.2044 11 13 11C13.1811 11.0004 13.3618 11.0168 13.54 11.049L17.36 11.749C17.8196 11.8331 18.2353 12.0754 18.5348 12.434C18.8344 12.7926 18.999 13.2447 19 13.712V28.928ZM30 24.793C30.0001 25.4956 29.7536 26.1759 29.3035 26.7154C28.8534 27.2548 28.2282 27.6192 27.537 27.745L21.252 28.887C21.168 28.902 21.084 28.916 21 28.928V13.712C20.9999 13.2436 21.1643 12.79 21.4643 12.4304C21.7644 12.0707 22.1812 11.8278 22.642 11.744L26.463 11.044C26.8957 10.9652 27.3405 10.9826 27.7657 11.0949C28.191 11.2071 28.5863 11.4115 28.9238 11.6936C29.2613 11.9756 29.5326 12.3284 29.7186 12.727C29.9046 13.1256 30.0007 13.5602 30 14V24.793Z" fill="#FF6C00"/>
</g>
<defs>
<clipPath id="clip0_69_81">
<rect width="24" height="24" fill="white" transform="translate(8 8)"/>
</clipPath>
</defs>
</svg>
