<svg width="129" height="24" viewBox="0 0 129 24" fill="none" xmlns="http://www.w3.org/2000/svg">
<path d="M3.885 23.17C3.41833 23.1233 3.045 23.0067 2.765 22.82C2.50833 22.61 2.31 22.3533 2.17 22.05C1.98333 21.84 1.86666 21.6767 1.82 21.56C1.79666 21.4433 1.79666 21.3383 1.82 21.245C1.93666 21.245 2.04166 21.245 2.135 21.245C2.22833 21.2217 2.28666 21.175 2.31 21.105C2.31 21.035 2.345 20.9883 2.415 20.965C2.50833 20.9417 2.60166 20.9417 2.695 20.965C3.13833 20.9883 3.675 20.8367 4.305 20.51C4.95833 20.1833 5.67 19.7283 6.44 19.145C7.21 18.5383 7.98 17.885 8.75 17.185C9.35666 16.3917 9.77666 15.8083 10.01 15.435C10.2667 15.0617 10.395 14.7817 10.395 14.595C10.4183 14.385 10.3717 14.175 10.255 13.965C10.1617 13.7783 9.94 13.685 9.59 13.685C9.24 13.685 8.70333 13.9183 7.98 14.385C6.97666 15.015 6.17166 15.5983 5.565 16.135C4.95833 16.6717 4.39833 17.2783 3.885 17.955C3.69833 18.1883 3.48833 18.445 3.255 18.725C3.045 18.9817 2.85833 19.2033 2.695 19.39C2.555 19.5767 2.485 19.67 2.485 19.67C2.485 19.7633 2.345 19.88 2.065 20.02C1.80833 20.16 1.58666 20.23 1.4 20.23C1.30666 20.1833 1.17833 20.1017 1.015 19.985C0.874995 19.845 0.781662 19.67 0.734996 19.46C0.524996 19.2967 0.349995 19.1567 0.209995 19.04C0.0699954 18.9 -4.59701e-06 18.6783 -4.59701e-06 18.375C-4.59701e-06 18.1883 0.0233287 17.955 0.0699953 17.675C0.139995 17.395 0.233329 17.0333 0.349995 16.59C0.489995 15.9833 0.641662 15.3533 0.804995 14.7C0.968329 14.0233 1.12 13.4517 1.26 12.985C1.42333 12.495 1.54 12.2267 1.61 12.18C1.61 12.18 1.65666 12.075 1.75 11.865C1.84333 11.655 1.89 11.41 1.89 11.13C1.93666 10.85 2.00666 10.605 2.1 10.395C2.21666 10.185 2.275 10.0333 2.275 9.94C2.36833 9.87 2.50833 9.59 2.695 9.1C2.88166 8.61 3.115 7.96834 3.395 7.175C3.395 7.105 3.47666 6.88334 3.64 6.51C3.80333 6.11334 4.00166 5.65834 4.235 5.145C4.46833 4.60834 4.70166 4.06 4.935 3.5C5.19166 2.91667 5.40166 2.40334 5.565 1.96C5.845 1.56334 6.07833 1.16667 6.265 0.770004C6.475 0.350004 6.66166 0.105003 6.825 0.0350029C6.94166 0.0116699 7.14 0.0583367 7.42 0.175003C7.72333 0.29167 8.02666 0.443337 8.33 0.630004C8.63333 0.816671 8.84333 1.00334 8.96 1.19C9.03 1.30667 9.065 1.42334 9.065 1.54C9.08833 1.65667 9.04166 1.855 8.925 2.135C8.80833 2.39167 8.61 2.82334 8.33 3.43C8.05 4.01334 7.65333 4.84167 7.14 5.915C6.48666 7.315 5.97333 8.48167 5.6 9.415C5.25 10.3483 4.95833 11.1533 4.725 11.83C4.515 12.5067 4.29333 13.1483 4.06 13.755L3.885 14.525L4.795 13.51C5.02833 13.2767 5.27333 13.055 5.53 12.845C5.78666 12.635 6.06666 12.425 6.37 12.215C6.55666 12.075 6.80166 11.935 7.105 11.795C7.43166 11.6317 7.74666 11.4917 8.05 11.375C8.35333 11.2583 8.575 11.1883 8.715 11.165C8.785 11.1417 9.01833 11.095 9.415 11.025C9.835 10.9317 10.2433 10.885 10.64 10.885C11.1533 10.885 11.5967 11.0717 11.97 11.445C12.3667 11.795 12.7167 12.2267 13.02 12.74C13.2767 13.23 13.37 13.86 13.3 14.63C13.23 15.3767 13.0317 16.0183 12.705 16.555C12.5883 16.6483 12.4717 16.7767 12.355 16.94C12.2383 17.08 12.18 17.1967 12.18 17.29C12.1567 17.4533 11.9467 17.7917 11.55 18.305C11.1533 18.795 10.7567 19.2617 10.36 19.705C9.94 20.1483 9.42666 20.5917 8.82 21.035C8.21333 21.455 7.60666 21.84 7 22.19C6.41666 22.5167 5.915 22.75 5.495 22.89C5.30833 22.9133 5.04 22.96 4.69 23.03C4.34 23.0767 4.07166 23.1233 3.885 23.17ZM17.3018 23.135C16.9984 23.135 16.7534 23.0767 16.5668 22.96C16.4034 22.8433 16.1934 22.68 15.9368 22.47C15.4934 22.0033 15.1318 21.5017 14.8518 20.965C14.5951 20.4283 14.5018 19.9617 14.5718 19.565C14.6418 19.3783 14.6651 19.2033 14.6418 19.04C14.6418 18.8533 14.6418 18.76 14.6418 18.76C14.5251 18.6433 14.4901 18.5733 14.5368 18.55C14.5834 18.5033 14.6301 18.4333 14.6768 18.34C14.8168 18.34 14.8634 18.2117 14.8168 17.955C14.7701 17.7683 14.8401 17.3717 15.0268 16.765C15.2368 16.135 15.5168 15.54 15.8668 14.98C16.0068 14.7467 16.2168 14.4433 16.4968 14.07C16.7768 13.6733 17.0801 13.2883 17.4068 12.915C17.7568 12.5183 18.0718 12.2033 18.3518 11.97C18.9351 11.48 19.4718 11.0833 19.9618 10.78C20.4751 10.4767 20.9884 10.2667 21.5018 10.15C22.0151 10.0333 22.5401 9.975 23.0768 9.975C23.6368 9.975 24.0918 10.1617 24.4418 10.535C24.9784 10.7683 25.3518 11.0833 25.5618 11.48C25.7951 11.8767 25.9468 12.39 26.0168 13.02C26.0868 13.72 26.0168 14.5833 25.8068 15.61C25.5968 16.6133 25.0251 17.78 24.0918 19.11C23.5084 19.95 22.9368 20.6033 22.3768 21.07C21.8168 21.5367 21.1984 21.9683 20.5218 22.365C20.0318 22.6917 19.5068 22.89 18.9468 22.96C18.3868 23.03 17.8384 23.0883 17.3018 23.135ZM20.8718 18.865C21.3851 18.4217 21.7468 17.9317 21.9568 17.395C22.1901 16.8583 22.4351 16.2283 22.6918 15.505C22.7851 15.365 22.8434 15.1317 22.8668 14.805C22.9134 14.4783 22.9251 14.1633 22.9018 13.86C22.8784 13.5333 22.7968 13.3467 22.6568 13.3C22.4468 13.1367 22.2368 13.1017 22.0268 13.195C21.8168 13.265 21.5484 13.4167 21.2218 13.65C20.5218 14.2333 19.8684 14.91 19.2618 15.68C18.6784 16.4267 18.2701 17.3483 18.0368 18.445C17.9668 19.0283 18.0251 19.4717 18.2118 19.775C18.4218 20.055 18.7484 20.1367 19.1918 20.02C19.6584 19.88 20.2184 19.495 20.8718 18.865ZM30.9274 23.1C30.4374 23.1933 30.0641 23.17 29.8074 23.03C29.5741 22.8667 29.3291 22.6683 29.0724 22.435C28.6991 22.2483 28.3608 21.9917 28.0574 21.665C27.7541 21.315 27.5208 20.9533 27.3574 20.58C27.1941 20.2067 27.1241 19.915 27.1474 19.705C27.2174 18.8883 27.4041 18.0017 27.7074 17.045C28.0341 16.0883 28.4424 15.155 28.9324 14.245C29.4458 13.335 30.0174 12.53 30.6474 11.83C31.3008 11.1067 32.0008 10.5817 32.7474 10.255C33.2141 10.0683 33.7158 9.99834 34.2524 10.045C34.7891 10.0917 35.1508 10.3133 35.3374 10.71C35.6874 11.3867 35.6058 11.8183 35.0924 12.005C35.0224 12.005 34.9408 12.04 34.8474 12.11C34.7541 12.1567 34.7074 12.2267 34.7074 12.32C34.8008 12.3667 35.0574 12.3783 35.4774 12.355C35.8974 12.3083 36.3174 12.2383 36.7374 12.145C37.1808 12.0283 37.4724 11.9117 37.6124 11.795C37.7524 11.725 37.8574 11.69 37.9274 11.69C37.9974 11.69 38.1724 11.7133 38.4524 11.76C38.8491 11.8767 39.0474 12.0167 39.0474 12.18C39.0474 12.2733 39.0824 12.425 39.1524 12.635C39.2224 12.8217 39.3041 12.915 39.3974 12.915C39.5608 12.9383 39.5958 13.1017 39.5024 13.405C39.4324 13.7083 39.1641 14.0233 38.6974 14.35C38.2541 14.63 37.9741 14.8167 37.8574 14.91C37.7641 14.98 37.7524 15.1433 37.8224 15.4C38.0091 15.8433 37.9974 16.38 37.7874 17.01C37.5774 17.64 37.2274 18.2933 36.7374 18.97C36.2474 19.6467 35.6641 20.2883 34.9874 20.895C34.3341 21.4783 33.6458 21.98 32.9224 22.4C32.2224 22.7967 31.5574 23.03 30.9274 23.1ZM31.0324 20.16C31.1258 20.16 31.2891 20.1133 31.5224 20.02C31.7558 19.9033 31.9424 19.81 32.0824 19.74C32.1758 19.6467 32.2924 19.5417 32.4324 19.425C32.5958 19.285 32.7241 19.2033 32.8174 19.18C32.9108 19.18 32.9691 19.145 32.9924 19.075C33.0158 18.9817 33.0974 18.8067 33.2374 18.55C33.3774 18.27 33.6574 17.8617 34.0774 17.325C34.5441 16.8117 34.8474 16.4033 34.9874 16.1C35.1274 15.7733 35.1391 15.4233 35.0224 15.05C34.9991 14.9567 34.9291 14.8983 34.8124 14.875C34.7191 14.8517 34.5908 14.7933 34.4274 14.7C34.1941 14.7 34.0308 14.7583 33.9374 14.875C33.8674 14.9683 33.7041 14.91 33.4474 14.7L32.8874 14L32.2924 14.595C31.9191 14.9683 31.5808 15.435 31.2774 15.995C30.9974 16.555 30.7758 17.1267 30.6124 17.71C30.4491 18.2933 30.3441 18.8067 30.2974 19.25C30.2741 19.6 30.3324 19.8333 30.4724 19.95C30.6124 20.0667 30.7991 20.1367 31.0324 20.16ZM41.1931 23.135C40.8431 23.0183 40.5281 22.8317 40.2481 22.575C39.9914 22.3183 39.8864 21.8983 39.9331 21.315C39.9797 20.965 40.0497 20.6033 40.1431 20.23C40.2364 19.8333 40.3531 19.4483 40.4931 19.075C40.5631 18.655 40.6447 18.235 40.7381 17.815C40.8547 17.395 41.0414 16.9983 41.2981 16.625C41.6014 15.7617 41.9164 14.91 42.2431 14.07C42.5697 13.2067 42.8497 12.3083 43.0831 11.375C43.4331 10.535 43.7481 9.78834 44.0281 9.135C44.3314 8.48167 44.6931 7.64167 45.1131 6.615C45.3464 6.07834 45.5447 5.48334 45.7081 4.83C45.8947 4.15334 46.1747 3.55834 46.5481 3.045C46.7114 2.835 46.8281 2.66 46.8981 2.52C46.9914 2.35667 47.0847 2.205 47.1781 2.065C47.3414 1.73834 47.5864 1.58667 47.9131 1.61C48.2631 1.63334 48.4964 1.72667 48.6131 1.89C49.0097 2.05334 49.2897 2.35667 49.4531 2.8C49.6164 3.22 49.6747 3.52334 49.6281 3.71C49.6281 3.96667 49.5347 4.24667 49.3481 4.55C49.2547 4.64334 49.1614 4.78334 49.0681 4.97C48.9747 5.13334 48.8347 5.355 48.6481 5.635C48.5547 5.93834 48.4614 6.24167 48.3681 6.545C48.2747 6.84834 48.1697 7.12834 48.0531 7.385C47.9364 7.64167 47.8081 7.89834 47.6681 8.155C47.5281 8.41167 47.4347 8.62167 47.3881 8.785C47.1781 9.32167 46.9447 9.84667 46.6881 10.36C46.4547 10.85 46.2447 11.375 46.0581 11.935C45.8714 12.4717 45.6731 13.0433 45.4631 13.65C45.2531 14.2333 44.9847 14.7933 44.6581 15.33C44.4947 15.5633 44.4014 15.8783 44.3781 16.275C44.3781 16.6717 44.3314 17.0567 44.2381 17.43C44.0747 17.85 43.9231 18.235 43.7831 18.585C43.6664 18.935 43.6081 19.1567 43.6081 19.25C43.4447 19.7633 43.3164 20.2767 43.2231 20.79C43.1297 21.28 42.9781 21.7117 42.7681 22.085C42.7681 22.645 42.6164 22.995 42.3131 23.135C42.0097 23.275 41.6364 23.275 41.1931 23.135ZM49.2081 23.45C48.8347 23.4033 48.5547 23.3333 48.3681 23.24C48.1814 23.1233 47.8314 22.8783 47.3181 22.505C47.0381 22.225 46.6881 21.7933 46.2681 21.21C45.8481 20.6267 45.4281 20.0083 45.0081 19.355C44.5881 18.6783 44.2147 18.1067 43.8881 17.64L45.8131 15.19C46.1164 15.5633 46.3614 15.9133 46.5481 16.24C46.7347 16.5667 46.8864 16.7883 47.0031 16.905C47.5397 17.6983 47.9597 18.34 48.2631 18.83C48.5664 19.32 48.8231 19.7167 49.0331 20.02C49.2664 20.3233 49.5231 20.5917 49.8031 20.825C50.0831 21.0583 50.4447 21.3033 50.8881 21.56C50.9581 21.6067 51.0281 21.7233 51.0981 21.91C51.1681 22.0733 51.1914 22.2483 51.1681 22.435C51.1214 22.715 50.9464 22.9483 50.6431 23.135C50.3631 23.2983 49.8847 23.4033 49.2081 23.45ZM44.1331 16.975C43.9931 16.5783 43.9581 16.135 44.0281 15.645C44.1214 15.1317 44.3197 14.7933 44.6231 14.63C44.7164 14.4667 44.8097 14.3617 44.9031 14.315C45.0197 14.245 45.0897 14.1633 45.1131 14.07C45.1597 13.9767 45.2764 13.8483 45.4631 13.685C45.6731 13.5217 45.8597 13.37 46.0231 13.23C46.3964 12.9967 46.8047 12.7167 47.2481 12.39C47.7147 12.04 48.1581 11.69 48.5781 11.34C49.0214 10.99 49.3831 10.6867 49.6631 10.43C49.9664 10.1733 50.1531 10.01 50.2231 9.94C50.2931 9.84667 50.4331 9.78834 50.6431 9.765C50.8764 9.74167 51.0981 9.77667 51.3081 9.87C51.5881 9.94 51.8097 10.0917 51.9731 10.325C52.1597 10.5583 52.2531 10.885 52.2531 11.305C52.3231 11.5617 52.1714 11.8767 51.7981 12.25C51.4481 12.6 51.0047 12.95 50.4681 13.3C50.2814 13.4167 50.0247 13.5917 49.6981 13.825C49.3947 14.0583 49.1264 14.28 48.8931 14.49C48.7297 14.5833 48.4847 14.7467 48.1581 14.98C47.8547 15.19 47.5864 15.4 47.3531 15.61C47.1664 15.7267 46.9447 15.9367 46.6881 16.24C46.4547 16.52 46.1864 16.73 45.8831 16.87C45.1364 17.57 44.6814 17.9083 44.5181 17.885C44.3781 17.8617 44.2497 17.5583 44.1331 16.975Z" fill="white"/>
<path d="M55.1939 22.19C55.1006 22.19 54.8789 22.1083 54.5289 21.945C54.1789 21.7583 53.9572 21.6183 53.8639 21.525C53.7006 21.3383 53.5956 21.14 53.5489 20.93C53.5022 20.6967 53.4789 20.2533 53.4789 19.6C53.4789 18.8533 53.6306 18.0133 53.9339 17.08C54.2372 16.1233 54.7506 14.8517 55.4739 13.265L56.9089 10.36C57.0256 10.1967 57.1306 10.0567 57.2239 9.94C57.3172 9.8 57.4222 9.67167 57.5389 9.555C57.5856 9.555 57.6439 9.555 57.7139 9.555C57.8072 9.555 57.8772 9.56667 57.9239 9.59C58.1339 9.61334 58.4606 9.74167 58.9039 9.975C59.3706 10.2083 59.6506 10.5583 59.7439 11.025C59.7439 11.3283 59.6972 11.69 59.6039 12.11C59.5106 12.5067 59.2306 13.0317 58.7639 13.685C58.5772 13.9183 58.3906 14.2567 58.2039 14.7C58.0406 15.1433 57.8889 15.5633 57.7489 15.96C57.7256 16.0067 57.6556 16.1233 57.5389 16.31C57.4456 16.4733 57.3522 16.6483 57.2589 16.835C57.1656 16.9983 57.1189 17.1033 57.1189 17.15L56.9789 17.465L58.4839 15.995C59.5339 14.945 60.4206 14.1983 61.1439 13.755C61.8672 13.3117 62.4739 13.125 62.9639 13.195C63.4772 13.265 63.8856 13.5567 64.1889 14.07C64.3522 14.3033 64.4689 14.56 64.5389 14.84C64.6089 15.0967 64.6556 15.4 64.6789 15.75C64.7022 16.1 64.6906 16.5433 64.6439 17.08V19.075C65.0872 18.9583 65.4256 18.865 65.6589 18.795C65.8922 18.7017 66.1256 18.62 66.3589 18.55C66.5456 18.5033 66.7322 18.4567 66.9189 18.41C67.1289 18.3633 67.3856 18.3283 67.6889 18.305C67.6656 18.6083 67.5372 18.9817 67.3039 19.425C67.0706 19.8683 66.7789 20.3117 66.4289 20.755C66.1022 21.1983 65.7406 21.5717 65.3439 21.875C64.9706 22.1783 64.6206 22.33 64.2939 22.33C63.9906 22.33 63.6406 22.2367 63.2439 22.05C62.8472 21.84 62.5089 21.4433 62.2289 20.86C62.1356 20.5567 62.0422 20.2067 61.9489 19.81C61.8556 19.4133 61.8089 18.9933 61.8089 18.55V17.01C61.8089 16.87 61.7972 16.7767 61.7739 16.73C61.7739 16.66 61.7622 16.625 61.7389 16.625C61.6456 16.625 61.3422 16.87 60.8289 17.36C60.3389 17.85 59.8372 18.3633 59.3239 18.9C58.2506 20.02 57.3522 20.8483 56.6289 21.385C55.9289 21.9217 55.4506 22.19 55.1939 22.19ZM71.5034 22.75C71.2234 22.82 70.9084 22.7383 70.5584 22.505C70.2084 22.2717 69.8934 21.98 69.6134 21.63C69.3334 21.28 69.1584 20.965 69.0884 20.685C68.995 20.195 69.0184 19.6 69.1584 18.9C69.3217 18.1767 69.59 17.4183 69.9634 16.625C70.3367 15.8083 70.8034 15.015 71.3634 14.245C71.9234 13.4517 72.5534 12.74 73.2534 12.11C73.9534 11.48 74.7117 10.99 75.5284 10.64C75.8784 10.4533 76.1234 10.3367 76.2634 10.29C76.4034 10.22 76.5434 10.22 76.6834 10.29C76.8234 10.3367 77.0684 10.4533 77.4184 10.64C77.745 10.7333 78.0717 10.85 78.3984 10.99C78.7484 11.1067 79.0517 11.34 79.3084 11.69C79.495 12.04 79.635 12.39 79.7284 12.74C79.8217 13.09 79.9034 13.4867 79.9734 13.93C80.16 14.5133 80.23 14.8983 80.1834 15.085C80.1367 15.2483 80.0667 15.3767 79.9734 15.47C79.7867 15.7033 79.74 15.82 79.8334 15.82C79.8334 15.82 79.8217 15.8667 79.7984 15.96C79.7984 16.03 79.7517 16.1467 79.6584 16.31C79.495 16.8233 79.3667 17.3133 79.2734 17.78C79.2034 18.2233 79.215 18.62 79.3084 18.97C79.495 19.4833 79.74 19.7867 80.0434 19.88C80.37 19.9733 80.79 19.7633 81.3034 19.25C81.56 19.0633 81.8517 18.9467 82.1784 18.9C82.505 18.83 82.6684 18.8883 82.6684 19.075C82.6684 19.075 82.7034 19.11 82.7734 19.18C82.8434 19.2267 82.925 19.25 83.0184 19.25C83.135 19.25 83.1817 19.3667 83.1584 19.6C83.135 19.81 83.0884 20.055 83.0184 20.335C82.9484 20.615 82.855 20.8483 82.7384 21.035C82.3884 21.385 82.2134 21.6183 82.2134 21.735C82.2134 21.735 82.1667 21.7817 82.0734 21.875C82.0034 21.945 81.875 22.0617 81.6884 22.225C81.2684 22.4817 80.7317 22.61 80.0784 22.61C79.4484 22.61 78.9584 22.4817 78.6084 22.225C78.2584 21.9683 77.9084 21.6533 77.5584 21.28C77.2317 20.9067 77.0217 20.5567 76.9284 20.23L76.7534 19.88L75.7384 20.545C75.4817 20.8017 75.295 21 75.1784 21.14C75.0617 21.2567 74.9567 21.3617 74.8634 21.455C74.7934 21.5483 74.7117 21.63 74.6184 21.7C74.5484 21.77 74.4667 21.805 74.3734 21.805C74.28 21.805 74.1984 21.805 74.1284 21.805C74.0584 21.805 74.0234 21.805 74.0234 21.805C74.0234 21.8983 73.86 22.0267 73.5334 22.19C73.2067 22.33 72.845 22.4583 72.4484 22.575C72.0517 22.6917 71.7367 22.75 71.5034 22.75ZM72.2384 19.81C72.3784 19.81 72.5884 19.7283 72.8684 19.565C73.1717 19.3783 73.4984 19.1567 73.8484 18.9C74.1984 18.6433 74.5134 18.3867 74.7934 18.13C75.0967 17.8733 75.3184 17.6633 75.4584 17.5C75.5517 17.4067 75.6567 17.255 75.7734 17.045C75.9134 16.835 76.065 16.6483 76.2284 16.485C76.765 15.8783 77.1034 15.4 77.2434 15.05C77.3834 14.6767 77.325 14.28 77.0684 13.86C76.975 13.6033 76.8584 13.4633 76.7184 13.44C76.5784 13.4167 76.2867 13.4983 75.8434 13.685C75.5634 13.8483 75.26 14.1167 74.9334 14.49C74.6067 14.8633 74.2684 15.2833 73.9184 15.75C73.5917 16.2167 73.2884 16.695 73.0084 17.185C72.7284 17.675 72.495 18.1183 72.3084 18.515C72.145 18.9117 72.0634 19.2267 72.0634 19.46C72.0634 19.5533 72.0867 19.635 72.1334 19.705C72.2034 19.775 72.2384 19.81 72.2384 19.81ZM86.5864 23.415C86.3298 23.3683 86.0498 23.2167 85.7464 22.96C85.4431 22.68 85.1631 22.3767 84.9064 22.05C84.6731 21.7 84.5214 21.4083 84.4514 21.175C84.4514 21.1283 84.4164 21.07 84.3464 21C84.2998 20.93 84.2764 20.895 84.2764 20.895C84.1831 20.825 84.1248 20.5217 84.1014 19.985C84.1014 19.425 84.1364 18.8067 84.2064 18.13C84.2764 17.4533 84.3581 16.9167 84.4514 16.52C84.5681 16.1467 84.7431 15.645 84.9764 15.015C85.2098 14.3617 85.4081 13.7783 85.5714 13.265L86.5164 11.235L85.1164 10.85C84.9531 10.8033 84.8131 10.71 84.6964 10.57C84.6031 10.43 84.5564 10.3133 84.5564 10.22C84.5564 10.0333 84.6614 9.765 84.8714 9.415C85.0814 9.065 85.2331 8.89 85.3264 8.89C85.4431 8.91334 85.6531 8.925 85.9564 8.925C86.2831 8.925 86.5981 8.91334 86.9014 8.89C87.2048 8.86667 87.3914 8.84334 87.4614 8.82C87.5548 8.77334 87.6481 8.715 87.7414 8.645C87.8348 8.55167 87.9048 8.42334 87.9514 8.26C88.0681 8.00334 88.1731 7.805 88.2664 7.665C88.3598 7.525 88.4881 7.315 88.6514 7.035C88.8148 6.73167 88.9431 6.475 89.0364 6.265C89.1531 6.055 89.3281 5.76334 89.5614 5.39C89.6781 5.22667 89.8064 5.02834 89.9464 4.795C90.0864 4.56167 90.2614 4.36334 90.4714 4.2C90.6814 4.01334 91.0198 3.885 91.4864 3.815C91.9764 3.72167 92.3964 3.82667 92.7464 4.13C92.9331 4.36334 93.0381 4.585 93.0614 4.795C93.0848 5.005 92.9914 5.27334 92.7814 5.6C92.5948 5.99667 92.3731 6.35834 92.1164 6.685C91.8831 6.98834 91.6614 7.33834 91.4514 7.735C91.0781 8.24834 91.0081 8.54 91.2414 8.61C91.4748 8.68 92.1281 8.63334 93.2014 8.47C93.8781 8.35334 94.3681 8.42334 94.6714 8.68C94.9748 8.93667 95.1498 9.26334 95.1964 9.66C95.2664 10.22 95.2081 10.5583 95.0214 10.675C94.8348 10.7917 94.2981 10.85 93.4114 10.85C92.8514 10.9433 92.3731 11.0017 91.9764 11.025C91.5798 11.025 91.2881 11.025 91.1014 11.025C90.7981 11.0483 90.5998 11.06 90.5064 11.06C90.4131 11.06 90.2731 11.0833 90.0864 11.13C89.8998 11.1767 89.7598 11.2583 89.6664 11.375C89.5964 11.4683 89.5148 11.6083 89.4214 11.795C89.3281 11.8883 89.1881 12.1333 89.0014 12.53C88.8148 12.9267 88.5814 13.3583 88.3014 13.825C87.9748 14.805 87.6948 15.75 87.4614 16.66C87.2514 17.5467 87.0648 18.4333 86.9014 19.32C86.8314 19.7633 86.8431 20.09 86.9364 20.3C87.0531 20.4867 87.3564 20.6033 87.8464 20.65C88.1031 20.6733 88.4764 20.6733 88.9664 20.65C89.4564 20.6033 89.8648 20.5333 90.1914 20.44C90.4481 20.3233 90.7164 20.2067 90.9964 20.09C91.2764 19.95 91.5331 19.81 91.7664 19.67C91.9764 19.5533 92.1864 19.4367 92.3964 19.32C92.6064 19.18 92.7114 19.11 92.7114 19.11C92.8281 18.9233 92.9914 18.9583 93.2014 19.215C93.4348 19.4483 93.5981 19.705 93.6914 19.985C93.6914 20.265 93.6331 20.6033 93.5164 21C93.3998 21.3733 92.9681 21.77 92.2214 22.19C91.1714 22.8433 90.1214 23.24 89.0714 23.38C88.0214 23.52 87.1931 23.5317 86.5864 23.415ZM95.9643 22.785C95.7776 22.5983 95.6376 22.3183 95.5443 21.945C95.4743 21.5717 95.4509 21.21 95.4743 20.86C95.4976 20.4867 95.5559 20.2067 95.6493 20.02C95.6493 19.8333 95.6726 19.6933 95.7193 19.6C95.7893 19.4833 95.8126 19.3783 95.7893 19.285C95.7659 19.1917 95.7893 19.0283 95.8593 18.795C95.9293 18.5617 95.9993 18.34 96.0693 18.13C96.2326 17.7567 96.4193 17.2783 96.6293 16.695C96.8393 16.0883 97.0493 15.4817 97.2593 14.875C97.4693 14.245 97.6443 13.7083 97.7843 13.265C97.9243 12.7983 98.0059 12.5183 98.0293 12.425C98.0293 12.145 98.2159 11.9933 98.5893 11.97C98.8693 11.8767 99.2076 11.9933 99.6043 12.32C100.001 12.6467 100.316 12.9967 100.549 13.37C100.736 13.5567 100.806 13.8017 100.759 14.105C100.713 14.4083 100.561 14.84 100.304 15.4C100.211 15.5867 100.094 15.9017 99.9543 16.345C99.8376 16.765 99.7559 17.115 99.7093 17.395C99.6159 17.5817 99.4993 17.85 99.3593 18.2C99.2426 18.5267 99.1376 18.8417 99.0443 19.145C98.9976 19.2617 98.9509 19.4833 98.9043 19.81C98.8576 20.1133 98.7993 20.4283 98.7293 20.755C98.6593 21.0817 98.5659 21.3383 98.4493 21.525C98.2393 22.4817 97.8659 23.0417 97.3293 23.205C96.8159 23.3683 96.3609 23.2283 95.9643 22.785ZM99.7443 8.75C99.4876 8.56334 99.2893 8.34167 99.1493 8.085C99.0326 7.805 98.9626 7.56 98.9393 7.35C98.9393 7.14 98.9626 7.01167 99.0093 6.965C99.2426 6.70834 99.4409 6.37 99.6043 5.95C99.7909 5.53 99.9893 5.145 100.199 4.795C100.246 4.725 100.304 4.63167 100.374 4.515C100.468 4.375 100.561 4.29334 100.654 4.27C100.934 4.08334 101.319 4.095 101.809 4.305C102.323 4.515 102.696 4.80667 102.929 5.18C103.139 5.62334 103.198 6.07834 103.104 6.545C103.034 7.01167 102.789 7.50167 102.369 8.015C102.019 8.48167 101.576 8.785 101.039 8.925C100.503 9.04167 100.071 8.98334 99.7443 8.75ZM106.054 23.1C105.564 23.1933 105.191 23.17 104.934 23.03C104.701 22.8667 104.456 22.6683 104.199 22.435C103.826 22.2483 103.488 21.9917 103.184 21.665C102.881 21.315 102.648 20.9533 102.484 20.58C102.321 20.2067 102.251 19.915 102.274 19.705C102.344 18.8883 102.531 18.0017 102.834 17.045C103.161 16.0883 103.569 15.155 104.059 14.245C104.573 13.335 105.144 12.53 105.774 11.83C106.428 11.1067 107.128 10.5817 107.874 10.255C108.341 10.0683 108.843 9.99834 109.379 10.045C109.916 10.0917 110.278 10.3133 110.464 10.71C110.814 11.3867 110.733 11.8183 110.219 12.005C110.149 12.005 110.068 12.04 109.974 12.11C109.881 12.1567 109.834 12.2267 109.834 12.32C109.928 12.3667 110.184 12.3783 110.604 12.355C111.024 12.3083 111.444 12.2383 111.864 12.145C112.308 12.0283 112.599 11.9117 112.739 11.795C112.879 11.725 112.984 11.69 113.054 11.69C113.124 11.69 113.299 11.7133 113.579 11.76C113.976 11.8767 114.174 12.0167 114.174 12.18C114.174 12.2733 114.209 12.425 114.279 12.635C114.349 12.8217 114.431 12.915 114.524 12.915C114.688 12.9383 114.723 13.1017 114.629 13.405C114.559 13.7083 114.291 14.0233 113.824 14.35C113.381 14.63 113.101 14.8167 112.984 14.91C112.891 14.98 112.879 15.1433 112.949 15.4C113.136 15.8433 113.124 16.38 112.914 17.01C112.704 17.64 112.354 18.2933 111.864 18.97C111.374 19.6467 110.791 20.2883 110.114 20.895C109.461 21.4783 108.773 21.98 108.049 22.4C107.349 22.7967 106.684 23.03 106.054 23.1ZM106.159 20.16C106.253 20.16 106.416 20.1133 106.649 20.02C106.883 19.9033 107.069 19.81 107.209 19.74C107.303 19.6467 107.419 19.5417 107.559 19.425C107.723 19.285 107.851 19.2033 107.944 19.18C108.038 19.18 108.096 19.145 108.119 19.075C108.143 18.9817 108.224 18.8067 108.364 18.55C108.504 18.27 108.784 17.8617 109.204 17.325C109.671 16.8117 109.974 16.4033 110.114 16.1C110.254 15.7733 110.266 15.4233 110.149 15.05C110.126 14.9567 110.056 14.8983 109.939 14.875C109.846 14.8517 109.718 14.7933 109.554 14.7C109.321 14.7 109.158 14.7583 109.064 14.875C108.994 14.9683 108.831 14.91 108.574 14.7L108.014 14L107.419 14.595C107.046 14.9683 106.708 15.435 106.404 15.995C106.124 16.555 105.903 17.1267 105.739 17.71C105.576 18.2933 105.471 18.8067 105.424 19.25C105.401 19.6 105.459 19.8333 105.599 19.95C105.739 20.0667 105.926 20.1367 106.159 20.16ZM126.575 23.24C126.225 23.24 125.887 23.135 125.56 22.925C125.233 22.6917 124.965 22.3767 124.755 21.98C124.545 21.56 124.44 21.07 124.44 20.51C124.44 20.16 124.498 19.67 124.615 19.04C124.755 18.3867 124.953 17.57 125.21 16.59C125.257 16.2633 125.292 16.0533 125.315 15.96C125.362 15.8667 125.385 15.7733 125.385 15.68C125.385 15.6333 125.373 15.5983 125.35 15.575C125.35 15.5283 125.327 15.505 125.28 15.505C125.093 15.505 124.837 15.6333 124.51 15.89C124.207 16.1233 123.857 16.4033 123.46 16.73C123.39 16.7767 123.308 16.835 123.215 16.905C123.145 16.975 123.063 17.045 122.97 17.115C122.9 17.185 122.818 17.255 122.725 17.325C122.492 17.465 122.13 17.7333 121.64 18.13C121.173 18.5267 120.683 18.9467 120.17 19.39C119.68 19.8333 119.248 20.2067 118.875 20.51C118.688 20.65 118.525 20.7667 118.385 20.86C118.268 20.9533 118.187 21 118.14 21C118.093 21 117.907 20.9417 117.58 20.825C117.277 20.685 116.973 20.4983 116.67 20.265C116.39 20.0083 116.25 19.7167 116.25 19.39C116.25 19.18 116.332 18.76 116.495 18.13C116.682 17.5 116.938 16.7533 117.265 15.89C117.592 15.0267 117.965 14.1517 118.385 13.265C118.478 13.055 118.548 12.775 118.595 12.425C118.642 12.075 118.688 11.7367 118.735 11.41C118.805 11.06 118.922 10.8033 119.085 10.64C119.155 10.5233 119.237 10.4417 119.33 10.395C119.447 10.325 119.563 10.29 119.68 10.29C119.913 10.29 120.135 10.3483 120.345 10.465C120.555 10.5583 120.753 10.7217 120.94 10.955C121.29 11.3283 121.477 11.7717 121.5 12.285C121.547 12.775 121.512 13.2533 121.395 13.72C121.278 14.1867 121.15 14.5717 121.01 14.875C120.87 15.155 120.8 15.2717 120.8 15.225C120.893 15.1783 121.022 15.0617 121.185 14.875C121.372 14.6883 121.687 14.4667 122.13 14.21C122.737 13.7433 123.203 13.4167 123.53 13.23C123.857 13.02 124.102 12.8683 124.265 12.775C124.452 12.6817 124.615 12.5767 124.755 12.46C124.872 12.3667 124.953 12.3083 125 12.285C125.07 12.2617 125.105 12.25 125.105 12.25C125.175 12.25 125.292 12.2033 125.455 12.11C125.642 12.0167 125.817 11.97 125.98 11.97C126.213 11.97 126.458 12.0283 126.715 12.145C126.972 12.2383 127.193 12.3783 127.38 12.565C127.567 12.7283 127.66 12.9033 127.66 13.09C127.66 13.16 127.683 13.2183 127.73 13.265C127.777 13.3117 127.823 13.37 127.87 13.44C127.987 13.58 128.115 13.7783 128.255 14.035C128.418 14.2683 128.5 14.6533 128.5 15.19C128.5 15.5633 128.418 16.1117 128.255 16.835C128.092 17.5583 127.917 18.27 127.73 18.97C127.543 19.6933 127.45 20.2767 127.45 20.72C127.473 21.14 127.52 21.4667 127.59 21.7C127.66 21.91 127.695 22.085 127.695 22.225C127.695 22.4117 127.602 22.6333 127.415 22.89C127.228 23.1233 126.948 23.24 126.575 23.24Z" fill="#B99EF6"/>
</svg>
