<svg width="122" height="61" viewBox="0 0 122 61" fill="none" xmlns="http://www.w3.org/2000/svg">
<path d="M5.55 33.0583C4.88333 32.9917 4.35 32.825 3.95 32.5583C3.58333 32.2583 3.3 31.8917 3.1 31.4583C2.83333 31.1583 2.66667 30.925 2.6 30.7583C2.56667 30.5917 2.56667 30.4417 2.6 30.3083C2.76667 30.3083 2.91667 30.3083 3.05 30.3083C3.18333 30.275 3.26667 30.2083 3.3 30.1083C3.3 30.0083 3.35 29.9417 3.45 29.9083C3.58333 29.875 3.71667 29.875 3.85 29.9083C4.48333 29.9417 5.25 29.725 6.15 29.2583C7.08333 28.7917 8.1 28.1417 9.2 27.3083C10.3 26.4417 11.4 25.5083 12.5 24.5083C13.3667 23.375 13.9667 22.5417 14.3 22.0083C14.6667 21.475 14.85 21.075 14.85 20.8083C14.8833 20.5083 14.8167 20.2083 14.65 19.9083C14.5167 19.6417 14.2 19.5083 13.7 19.5083C13.2 19.5083 12.4333 19.8417 11.4 20.5083C9.96667 21.4083 8.81667 22.2417 7.95 23.0083C7.08333 23.775 6.28333 24.6417 5.55 25.6083C5.28333 25.9417 4.98333 26.3083 4.65 26.7083C4.35 27.075 4.08333 27.3917 3.85 27.6583C3.65 27.925 3.55 28.0583 3.55 28.0583C3.55 28.1917 3.35 28.3583 2.95 28.5583C2.58333 28.7583 2.26667 28.8583 2 28.8583C1.86667 28.7917 1.68333 28.675 1.45 28.5083C1.25 28.3083 1.11667 28.0583 1.05 27.7583C0.75 27.525 0.5 27.325 0.3 27.1583C0.0999999 26.9583 0 26.6417 0 26.2083C0 25.9417 0.0333333 25.6083 0.0999998 25.2083C0.2 24.8083 0.333333 24.2917 0.5 23.6583C0.7 22.7917 0.916666 21.8917 1.15 20.9583C1.38333 19.9917 1.6 19.175 1.8 18.5083C2.03333 17.8083 2.2 17.425 2.3 17.3583C2.3 17.3583 2.36667 17.2083 2.5 16.9083C2.63333 16.6083 2.7 16.2583 2.7 15.8583C2.76667 15.4583 2.86667 15.1083 3 14.8083C3.16667 14.5083 3.25 14.2917 3.25 14.1583C3.38333 14.0583 3.58333 13.6583 3.85 12.9583C4.11667 12.2583 4.45 11.3417 4.85 10.2083C4.85 10.1083 4.96667 9.79167 5.2 9.25834C5.43333 8.69167 5.71667 8.04167 6.05 7.30833C6.38333 6.54167 6.71667 5.75833 7.05 4.95833C7.41667 4.125 7.71667 3.39167 7.95 2.75833C8.35 2.19167 8.68333 1.625 8.95 1.05833C9.25 0.458334 9.51667 0.108334 9.75 0.00833314C9.91667 -0.0249998 10.2 0.041667 10.6 0.208334C11.0333 0.375 11.4667 0.591667 11.9 0.858334C12.3333 1.125 12.6333 1.39167 12.8 1.65834C12.9 1.825 12.95 1.99167 12.95 2.15834C12.9833 2.325 12.9167 2.60833 12.75 3.00833C12.5833 3.375 12.3 3.99167 11.9 4.85833C11.5 5.69167 10.9333 6.875 10.2 8.40834C9.26667 10.4083 8.53333 12.075 8 13.4083C7.5 14.7417 7.08333 15.8917 6.75 16.8583C6.45 17.825 6.13333 18.7417 5.8 19.6083L5.55 20.7083L6.85 19.2583C7.18333 18.925 7.53333 18.6083 7.9 18.3083C8.26667 18.0083 8.66667 17.7083 9.1 17.4083C9.36667 17.2083 9.71667 17.0083 10.15 16.8083C10.6167 16.575 11.0667 16.375 11.5 16.2083C11.9333 16.0417 12.25 15.9417 12.45 15.9083C12.55 15.875 12.8833 15.8083 13.45 15.7083C14.05 15.575 14.6333 15.5083 15.2 15.5083C15.9333 15.5083 16.5667 15.775 17.1 16.3083C17.6667 16.8083 18.1667 17.425 18.6 18.1583C18.9667 18.8583 19.1 19.7583 19 20.8583C18.9 21.925 18.6167 22.8417 18.15 23.6083C17.9833 23.7417 17.8167 23.925 17.65 24.1583C17.4833 24.3583 17.4 24.525 17.4 24.6583C17.3667 24.8917 17.0667 25.375 16.5 26.1083C15.9333 26.8083 15.3667 27.475 14.8 28.1083C14.2 28.7417 13.4667 29.375 12.6 30.0083C11.7333 30.6083 10.8667 31.1583 10 31.6583C9.16667 32.125 8.45 32.4583 7.85 32.6583C7.58333 32.6917 7.2 32.7583 6.7 32.8583C6.2 32.925 5.81667 32.9917 5.55 33.0583Z" fill="white"/>
<path d="M24.7168 33.0083C24.2835 33.0083 23.9335 32.925 23.6668 32.7583C23.4335 32.5917 23.1335 32.3583 22.7668 32.0583C22.1335 31.3917 21.6168 30.675 21.2168 29.9083C20.8501 29.1417 20.7168 28.475 20.8168 27.9083C20.9168 27.6417 20.9501 27.3917 20.9168 27.1583C20.9168 26.8917 20.9168 26.7583 20.9168 26.7583C20.7501 26.5917 20.7001 26.4917 20.7668 26.4583C20.8335 26.3917 20.9001 26.2917 20.9668 26.1583C21.1668 26.1583 21.2335 25.975 21.1668 25.6083C21.1001 25.3417 21.2001 24.775 21.4668 23.9083C21.7668 23.0083 22.1668 22.1583 22.6668 21.3583C22.8668 21.025 23.1668 20.5917 23.5668 20.0583C23.9668 19.4917 24.4001 18.9417 24.8668 18.4083C25.3668 17.8417 25.8168 17.3917 26.2168 17.0583C27.0501 16.3583 27.8168 15.7917 28.5168 15.3583C29.2501 14.925 29.9835 14.625 30.7168 14.4583C31.4501 14.2917 32.2001 14.2083 32.9668 14.2083C33.7668 14.2083 34.4168 14.475 34.9168 15.0083C35.6835 15.3417 36.2168 15.7917 36.5168 16.3583C36.8501 16.925 37.0668 17.6583 37.1668 18.5583C37.2668 19.5583 37.1668 20.7917 36.8668 22.2583C36.5668 23.6917 35.7501 25.3583 34.4168 27.2583C33.5835 28.4583 32.7668 29.3917 31.9668 30.0583C31.1668 30.725 30.2835 31.3417 29.3168 31.9083C28.6168 32.375 27.8668 32.6583 27.0668 32.7583C26.2668 32.8583 25.4835 32.9417 24.7168 33.0083ZM29.8168 26.9083C30.5501 26.275 31.0668 25.575 31.3668 24.8083C31.7001 24.0417 32.0501 23.1417 32.4168 22.1083C32.5501 21.9083 32.6335 21.575 32.6668 21.1083C32.7335 20.6417 32.7501 20.1917 32.7168 19.7583C32.6835 19.2917 32.5668 19.025 32.3668 18.9583C32.0668 18.725 31.7668 18.675 31.4668 18.8083C31.1668 18.9083 30.7835 19.125 30.3168 19.4583C29.3168 20.2917 28.3835 21.2583 27.5168 22.3583C26.6835 23.425 26.1001 24.7417 25.7668 26.3083C25.6668 27.1417 25.7501 27.775 26.0168 28.2083C26.3168 28.6083 26.7835 28.725 27.4168 28.5583C28.0835 28.3583 28.8835 27.8083 29.8168 26.9083Z" fill="white"/>
<path d="M44.182 32.9583C43.482 33.0917 42.9487 33.0583 42.582 32.8583C42.2487 32.625 41.8987 32.3417 41.532 32.0083C40.9987 31.7417 40.5154 31.375 40.082 30.9083C39.6487 30.4083 39.3154 29.8917 39.082 29.3583C38.8487 28.825 38.7487 28.4083 38.782 28.1083C38.882 26.9417 39.1487 25.675 39.582 24.3083C40.0487 22.9417 40.632 21.6083 41.332 20.3083C42.0654 19.0083 42.882 17.8583 43.782 16.8583C44.7154 15.825 45.7154 15.075 46.782 14.6083C47.4487 14.3417 48.1654 14.2417 48.932 14.3083C49.6987 14.375 50.2154 14.6917 50.482 15.2583C50.982 16.225 50.8654 16.8417 50.132 17.1083C50.032 17.1083 49.9154 17.1583 49.782 17.2583C49.6487 17.325 49.582 17.425 49.582 17.5583C49.7154 17.625 50.082 17.6417 50.682 17.6083C51.282 17.5417 51.882 17.4417 52.482 17.3083C53.1154 17.1417 53.532 16.975 53.732 16.8083C53.932 16.7083 54.082 16.6583 54.182 16.6583C54.282 16.6583 54.532 16.6917 54.932 16.7583C55.4987 16.925 55.782 17.125 55.782 17.3583C55.782 17.4917 55.832 17.7083 55.932 18.0083C56.032 18.275 56.1487 18.4083 56.282 18.4083C56.5154 18.4417 56.5654 18.675 56.432 19.1083C56.332 19.5417 55.9487 19.9917 55.282 20.4583C54.6487 20.8583 54.2487 21.125 54.082 21.2583C53.9487 21.3583 53.932 21.5917 54.032 21.9583C54.2987 22.5917 54.282 23.3583 53.982 24.2583C53.682 25.1583 53.182 26.0917 52.482 27.0583C51.782 28.025 50.9487 28.9417 49.982 29.8083C49.0487 30.6417 48.0654 31.3583 47.032 31.9583C46.032 32.525 45.082 32.8583 44.182 32.9583ZM44.332 28.7583C44.4654 28.7583 44.6987 28.6917 45.032 28.5583C45.3654 28.3917 45.632 28.2583 45.832 28.1583C45.9654 28.025 46.132 27.875 46.332 27.7083C46.5654 27.5083 46.7487 27.3917 46.882 27.3583C47.0154 27.3583 47.0987 27.3083 47.132 27.2083C47.1654 27.075 47.282 26.825 47.482 26.4583C47.682 26.0583 48.082 25.475 48.682 24.7083C49.3487 23.975 49.782 23.3917 49.982 22.9583C50.182 22.4917 50.1987 21.9917 50.032 21.4583C49.9987 21.325 49.8987 21.2417 49.732 21.2083C49.5987 21.175 49.4154 21.0917 49.182 20.9583C48.8487 20.9583 48.6154 21.0417 48.482 21.2083C48.382 21.3417 48.1487 21.2583 47.782 20.9583L46.982 19.9583L46.132 20.8083C45.5987 21.3417 45.1154 22.0083 44.682 22.8083C44.282 23.6083 43.9654 24.425 43.732 25.2583C43.4987 26.0917 43.3487 26.825 43.282 27.4583C43.2487 27.9583 43.332 28.2917 43.532 28.4583C43.732 28.625 43.9987 28.725 44.332 28.7583Z" fill="white"/>
<path d="M58.8473 33.0083C58.3473 32.8417 57.8973 32.575 57.4973 32.2083C57.1306 31.8417 56.9806 31.2417 57.0473 30.4083C57.1139 29.9083 57.2139 29.3917 57.3473 28.8583C57.4806 28.2917 57.6473 27.7417 57.8473 27.2083C57.9473 26.6083 58.0639 26.0083 58.1973 25.4083C58.3639 24.8083 58.6306 24.2417 58.9973 23.7083C59.4306 22.475 59.8806 21.2583 60.3473 20.0583C60.8139 18.825 61.2139 17.5417 61.5473 16.2083C62.0473 15.0083 62.4973 13.9417 62.8973 13.0083C63.3306 12.075 63.8473 10.875 64.4473 9.40833C64.7806 8.64167 65.0639 7.79167 65.2973 6.85833C65.5639 5.89167 65.9639 5.04167 66.4973 4.30833C66.7306 4.00833 66.8973 3.75833 66.9973 3.55834C67.1306 3.325 67.2639 3.10833 67.3973 2.90833C67.6306 2.44167 67.9806 2.225 68.4473 2.25833C68.9473 2.29167 69.2806 2.425 69.4473 2.65833C70.0139 2.89167 70.4139 3.325 70.6473 3.95834C70.8806 4.55833 70.9639 4.99167 70.8973 5.25833C70.8973 5.625 70.7639 6.025 70.4973 6.45833C70.3639 6.59167 70.2306 6.79167 70.0973 7.05833C69.9639 7.29167 69.7639 7.60833 69.4973 8.00833C69.3639 8.44167 69.2306 8.875 69.0973 9.30833C68.9639 9.74167 68.8139 10.1417 68.6473 10.5083C68.4806 10.875 68.2973 11.2417 68.0973 11.6083C67.8973 11.975 67.7639 12.275 67.6973 12.5083C67.3973 13.275 67.0639 14.025 66.6973 14.7583C66.3639 15.4583 66.0639 16.2083 65.7973 17.0083C65.5306 17.775 65.2473 18.5917 64.9473 19.4583C64.6473 20.2917 64.2639 21.0917 63.7973 21.8583C63.5639 22.1917 63.4306 22.6417 63.3973 23.2083C63.3973 23.775 63.3306 24.325 63.1973 24.8583C62.9639 25.4583 62.7473 26.0083 62.5473 26.5083C62.3806 27.0083 62.2973 27.325 62.2973 27.4583C62.0639 28.1917 61.8806 28.925 61.7473 29.6583C61.6139 30.3583 61.3973 30.975 61.0973 31.5083C61.0973 32.3083 60.8806 32.8083 60.4473 33.0083C60.0139 33.2083 59.4806 33.2083 58.8473 33.0083ZM70.2973 33.4583C69.7639 33.3917 69.3639 33.2917 69.0973 33.1583C68.8306 32.9917 68.3306 32.6417 67.5973 32.1083C67.1973 31.7083 66.6973 31.0917 66.0973 30.2583C65.4973 29.425 64.8973 28.5417 64.2973 27.6083C63.6973 26.6417 63.1639 25.825 62.6973 25.1583L65.4473 21.6583C65.8806 22.1917 66.2306 22.6917 66.4973 23.1583C66.7639 23.625 66.9806 23.9417 67.1473 24.1083C67.9139 25.2417 68.5139 26.1583 68.9473 26.8583C69.3806 27.5583 69.7473 28.125 70.0473 28.5583C70.3806 28.9917 70.7473 29.375 71.1473 29.7083C71.5473 30.0417 72.0639 30.3917 72.6973 30.7583C72.7973 30.825 72.8973 30.9917 72.9973 31.2583C73.0973 31.4917 73.1306 31.7417 73.0973 32.0083C73.0306 32.4083 72.7806 32.7417 72.3473 33.0083C71.9473 33.2417 71.2639 33.3917 70.2973 33.4583ZM63.0473 24.2083C62.8473 23.6417 62.7973 23.0083 62.8973 22.3083C63.0306 21.575 63.3139 21.0917 63.7473 20.8583C63.8806 20.625 64.0139 20.475 64.1473 20.4083C64.3139 20.3083 64.4139 20.1917 64.4473 20.0583C64.5139 19.925 64.6806 19.7417 64.9473 19.5083C65.2473 19.275 65.5139 19.0583 65.7473 18.8583C66.2806 18.525 66.8639 18.125 67.4973 17.6583C68.1639 17.1583 68.7973 16.6583 69.3973 16.1583C70.0306 15.6583 70.5473 15.225 70.9473 14.8583C71.3806 14.4917 71.6473 14.2583 71.7473 14.1583C71.8473 14.025 72.0473 13.9417 72.3473 13.9083C72.6806 13.875 72.9973 13.925 73.2973 14.0583C73.6973 14.1583 74.0139 14.375 74.2473 14.7083C74.5139 15.0417 74.6473 15.5083 74.6473 16.1083C74.7473 16.475 74.5306 16.925 73.9973 17.4583C73.4973 17.9583 72.8639 18.4583 72.0973 18.9583C71.8306 19.125 71.4639 19.375 70.9973 19.7083C70.5639 20.0417 70.1806 20.3583 69.8473 20.6583C69.6139 20.7917 69.2639 21.025 68.7973 21.3583C68.3639 21.6583 67.9806 21.9583 67.6473 22.2583C67.3806 22.425 67.0639 22.725 66.6973 23.1583C66.3639 23.5583 65.9806 23.8583 65.5473 24.0583C64.4806 25.0583 63.8306 25.5417 63.5973 25.5083C63.3973 25.475 63.2139 25.0417 63.0473 24.2083Z" fill="white"/>
<path d="M28.3594 59.1583C27.626 59.0917 27.0094 58.9417 26.5094 58.7083C26.0427 58.4417 25.6594 57.925 25.3594 57.1583C25.226 56.625 25.1594 56.075 25.1594 55.5083C25.1927 54.9083 25.2427 54.3417 25.3094 53.8083C25.376 53.2417 25.4094 52.7583 25.4094 52.3583C25.4094 52.2917 25.4094 52.1583 25.4094 51.9583C25.4094 51.7583 25.4094 51.575 25.4094 51.4083C25.3427 50.9083 25.2094 50.6083 25.0094 50.5083C24.8427 50.375 24.5427 50.3917 24.1094 50.5583C23.4094 50.8917 22.6427 51.3417 21.8094 51.9083C21.0094 52.4417 20.1594 53.075 19.2594 53.8083C18.3927 54.5083 17.4927 55.2583 16.5594 56.0583C15.826 56.8583 15.276 57.5083 14.9094 58.0083C14.576 58.5083 14.226 58.7583 13.8594 58.7583C13.5927 58.8917 13.3094 58.8583 13.0094 58.6583C12.7094 58.4583 12.3927 58.225 12.0594 57.9583C11.826 57.6917 11.5427 57.3583 11.2094 56.9583C10.9094 56.525 10.726 56.2417 10.6594 56.1083C10.6594 55.575 10.6927 55.0917 10.7594 54.6583C10.8594 54.225 10.9927 53.775 11.1594 53.3083C11.3594 52.8417 11.5927 52.3083 11.8594 51.7083C11.9927 51.475 12.1094 51.2417 12.2094 51.0083C12.3427 50.7417 12.4927 50.4583 12.6594 50.1583C12.7927 49.6917 12.976 49.1583 13.2094 48.5583C13.476 47.9583 13.726 47.3917 13.9594 46.8583C14.326 45.9917 14.6094 45.2417 14.8094 44.6083C15.0094 43.975 15.176 43.2917 15.3094 42.5583C15.276 42.4917 15.2927 42.3917 15.3594 42.2583C15.426 42.125 15.526 42.0417 15.6594 42.0083H15.7594C15.9927 41.8417 16.426 41.825 17.0594 41.9583C17.726 42.0583 18.226 42.2417 18.5594 42.5083C19.2594 43.1083 19.5927 43.8917 19.5594 44.8583C19.526 45.825 19.026 47.0917 18.0594 48.6583C17.826 49.1917 17.576 49.6917 17.3094 50.1583C17.076 50.5917 16.9594 50.8917 16.9594 51.0583C16.9594 51.0583 17.0927 50.9583 17.3594 50.7583C17.626 50.5583 17.9427 50.325 18.3094 50.0583C18.676 49.7583 18.9927 49.525 19.2594 49.3583C19.426 49.1917 19.7927 48.8917 20.3594 48.4583C20.926 47.9917 21.5427 47.5083 22.2094 47.0083C22.876 46.5083 23.4094 46.125 23.8094 45.8583C24.176 45.5917 24.6427 45.325 25.2094 45.0583C25.776 44.7583 26.126 44.6083 26.2594 44.6083C26.5927 44.6083 26.9927 44.725 27.4594 44.9583C27.9594 45.1917 28.4094 45.475 28.8094 45.8083C29.2427 46.1083 29.4927 46.3917 29.5594 46.6583C29.5594 46.7917 29.5427 46.975 29.5094 47.2083C29.476 47.4083 29.4594 47.5917 29.4594 47.7583C29.426 48.2917 29.4094 48.9417 29.4094 49.7083C29.4427 50.4417 29.4594 51.1917 29.4594 51.9583C29.4594 52.6917 29.3927 53.3583 29.2594 53.9583C29.2594 53.9583 29.276 53.9917 29.3094 54.0583C29.3427 54.0917 29.376 54.1583 29.4094 54.2583C29.376 54.2917 29.3594 54.3583 29.3594 54.4583C29.3927 54.525 29.4094 54.5583 29.4094 54.5583C29.476 54.7917 29.5427 55.025 29.6094 55.2583C29.7094 55.4917 29.826 55.7583 29.9594 56.0583C30.0927 56.325 30.2427 56.675 30.4094 57.1083C30.376 57.5417 30.126 57.975 29.6594 58.4083C29.226 58.8083 28.7927 59.0583 28.3594 59.1583Z" fill="#B99EF6"/>
<path d="M35.3586 59.3083C35.2253 59.0417 34.9253 58.775 34.4586 58.5083C34.0253 58.2417 33.8086 58.0417 33.8086 57.9083C33.8086 57.775 33.7253 57.575 33.5586 57.3083C33.4253 57.0083 33.2919 56.7917 33.1586 56.6583C32.9919 56.4583 33.0419 55.975 33.3086 55.2083C33.5753 54.4083 33.9753 53.4417 34.5086 52.3083C35.0419 51.175 35.6253 50.025 36.2586 48.8583C36.5253 48.5917 36.7919 48.2417 37.0586 47.8083C37.3253 47.375 37.5253 47.0917 37.6586 46.9583C37.6586 46.825 37.7086 46.7083 37.8086 46.6083C37.9086 46.475 38.0253 46.4083 38.1586 46.4083L38.5586 45.6083C38.6253 45.475 38.8253 45.2083 39.1586 44.8083C39.5253 44.4083 39.9586 43.975 40.4586 43.5083C40.9586 43.0083 41.4586 42.5417 41.9586 42.1083C42.4919 41.675 42.9253 41.3583 43.2586 41.1583C43.9586 40.6917 44.6753 40.475 45.4086 40.5083C46.1753 40.5417 46.8253 40.775 47.3586 41.2083C47.4586 41.3083 47.6753 41.5083 48.0086 41.8083C48.3753 42.1083 48.7753 42.4417 49.2086 42.8083C49.6753 43.175 50.0753 43.5083 50.4086 43.8083L52.2586 45.4583L51.4086 47.9583C50.9753 49.2917 50.8586 50.4583 51.0586 51.4583C51.2586 52.4583 51.5753 53.325 52.0086 54.0583C52.1753 54.425 52.3919 54.7083 52.6586 54.9083C52.9586 55.1083 53.3419 55.2417 53.8086 55.3083C54.0753 55.3417 54.3253 55.4417 54.5586 55.6083C54.7919 55.775 54.9086 56.0417 54.9086 56.4083C54.9086 57.2083 54.7586 57.7917 54.4586 58.1583C54.1919 58.4917 53.8919 58.6917 53.5586 58.7583C52.4586 58.8917 51.4086 58.775 50.4086 58.4083C49.4086 58.0417 48.5086 57.0917 47.7086 55.5583C47.5753 55.3583 47.3919 54.9917 47.1586 54.4583C46.9586 53.8917 46.8419 53.525 46.8086 53.3583C46.6753 53.525 46.4919 53.7417 46.2586 54.0083C46.0586 54.2417 45.8586 54.4583 45.6586 54.6583C43.2919 57.0583 41.2586 58.625 39.5586 59.3583C37.8919 60.0583 36.4919 60.0417 35.3586 59.3083ZM38.1086 55.1583C38.3419 55.1917 38.7086 55.075 39.2086 54.8083C39.7086 54.5083 40.3753 54.025 41.2086 53.3583C42.3419 52.3917 43.2753 51.5917 44.0086 50.9583C44.7419 50.325 45.4586 49.5083 46.1586 48.5083L47.2586 46.7083C46.9253 45.9417 46.6253 45.4417 46.3586 45.2083C46.0919 44.975 45.8253 44.8583 45.5586 44.8583C45.1253 44.8583 44.6086 45.1417 44.0086 45.7083C43.4086 46.2417 42.7253 47.0417 41.9586 48.1083C41.2253 49.1417 40.3919 50.4417 39.4586 52.0083C39.0253 52.7417 38.6919 53.4583 38.4586 54.1583C38.2253 54.825 38.1086 55.1583 38.1086 55.1583Z" fill="#B99EF6"/>
<path d="M62.973 60.6583C62.5064 60.525 62.0397 60.2917 61.573 59.9583C61.1064 59.625 60.623 59.2417 60.123 58.8083C59.723 58.275 59.4397 57.7917 59.273 57.3583C59.1064 56.8917 59.0064 56.3583 58.973 55.7583C58.973 55.125 58.973 54.325 58.973 53.3583C58.973 52.9583 59.0397 52.3917 59.173 51.6583C59.3397 50.925 59.5064 50.1583 59.673 49.3583C59.873 48.5583 60.0564 47.8583 60.223 47.2583C60.3897 46.625 60.4897 46.2083 60.523 46.0083C60.623 45.575 60.4564 45.325 60.023 45.2583C59.5897 45.1917 59.1064 45.175 58.573 45.2083C58.073 45.2083 57.7397 45.1583 57.573 45.0583C57.4397 45.025 57.373 44.8583 57.373 44.5583C57.373 44.225 57.373 44.0583 57.373 44.0583C57.373 43.925 57.3064 43.8417 57.173 43.8083C57.0397 43.7417 56.923 43.625 56.823 43.4583C56.7564 43.325 56.8397 43.075 57.073 42.7083C57.3064 42.3417 57.6064 42.125 57.973 42.0583C58.273 41.9917 58.723 41.9417 59.323 41.9083C59.923 41.8417 60.523 41.725 61.123 41.5583C61.7564 41.3583 62.2397 41.0583 62.573 40.6583C62.873 39.925 63.2064 39.1417 63.573 38.3083C63.9397 37.4417 64.2897 36.6917 64.623 36.0583C64.9564 35.3917 65.1897 34.975 65.323 34.8083C65.8897 34.5083 66.473 34.3917 67.073 34.4583C67.673 34.4917 68.1397 34.775 68.473 35.3083C68.6397 35.5417 68.773 35.7083 68.873 35.8083C69.0064 35.9083 69.0564 36.0583 69.023 36.2583C69.023 36.4583 68.8897 36.825 68.623 37.3583C68.3897 37.8583 67.9897 38.6417 67.423 39.7083C67.2564 40.0417 67.1064 40.3417 66.973 40.6083C66.8397 40.8417 66.773 40.9583 66.773 40.9583C66.9064 40.9917 67.1064 41.0083 67.373 41.0083C67.6397 41.0083 67.973 40.9917 68.373 40.9583C68.7397 40.8917 69.1397 40.8417 69.573 40.8083C70.0064 40.7417 70.3897 40.7417 70.723 40.8083C71.4897 40.8083 72.0564 41.025 72.423 41.4583C72.7897 41.8917 72.9897 42.4417 73.023 43.1083C73.0897 43.475 72.9564 43.7917 72.623 44.0583C72.2897 44.325 71.673 44.4583 70.773 44.4583C70.473 44.4583 70.0397 44.475 69.473 44.5083C68.9064 44.5417 68.323 44.575 67.723 44.6083C67.123 44.6417 66.6064 44.6917 66.173 44.7583C65.7731 44.7917 65.573 44.8417 65.573 44.9083C65.473 44.975 65.3064 45.2417 65.073 45.7083C64.873 46.1417 64.6564 46.675 64.423 47.3083C64.2231 47.9417 64.0397 48.5417 63.873 49.1083C63.6397 50.2417 63.473 51.3417 63.373 52.4083C63.273 53.475 63.2564 54.4083 63.323 55.2083C63.423 55.975 63.623 56.525 63.923 56.8583C64.223 57.1583 64.673 57.1583 65.273 56.8583C65.9064 56.525 66.4897 56.1417 67.023 55.7083C67.623 55.2083 68.1397 55.0583 68.573 55.2583C69.0064 55.425 69.273 55.7917 69.373 56.3583C69.5064 56.8917 69.3564 57.475 68.923 58.1083C68.5231 58.7417 67.9564 59.275 67.223 59.7083C66.4897 60.1417 65.7397 60.4417 64.973 60.6083C64.2064 60.8083 63.5397 60.825 62.973 60.6583Z" fill="#B99EF6"/>
<path d="M76.5758 60.3083C75.7758 60.3083 75.0758 59.8917 74.4758 59.0583C73.9091 58.1917 73.5591 57.1583 73.4258 55.9583C73.4591 55.6917 73.4924 55.3083 73.5258 54.8083C73.5924 54.3083 73.6591 53.7917 73.7258 53.2583C73.8591 52.625 74.0424 51.8083 74.2758 50.8083C74.5091 49.8083 74.7591 48.8083 75.0258 47.8083C75.2924 46.775 75.5258 45.8917 75.7258 45.1583C75.9258 44.3917 76.0424 43.9417 76.0758 43.8083C76.2758 43.3417 76.7258 43.225 77.4258 43.4583C78.1258 43.6917 78.7258 44.1917 79.2258 44.9583C79.4258 45.225 79.5424 45.5417 79.5758 45.9083C79.6424 46.275 79.5924 46.8083 79.4258 47.5083C79.2924 48.2083 79.0258 49.2417 78.6258 50.6083C78.2591 51.9417 77.9758 53.025 77.7758 53.8583C77.6091 54.6583 77.5424 55.5083 77.5758 56.4083C77.4424 57.9417 77.3091 58.9917 77.1758 59.5583C77.0424 60.0917 76.8424 60.3417 76.5758 60.3083ZM81.1758 39.5583C81.0424 39.6583 80.9091 39.7083 80.7758 39.7083C80.6758 39.675 80.4925 39.575 80.2258 39.4083C79.9925 39.375 79.6924 39.225 79.3258 38.9583C78.9924 38.6583 78.6924 38.3583 78.4258 38.0583C78.1924 37.7583 78.0758 37.575 78.0758 37.5083C78.0424 37.175 78.0591 36.6417 78.1258 35.9083C78.2258 35.175 78.4091 34.4917 78.6758 33.8583C78.9758 33.1917 79.3758 32.8417 79.8758 32.8083C80.0091 32.8083 80.2925 32.875 80.7258 33.0083C81.1925 33.1417 81.6758 33.3083 82.1758 33.5083C82.4424 34.0083 82.6924 34.6583 82.9258 35.4583C83.1591 36.2583 83.1758 37.0417 82.9758 37.8083C82.8091 38.5417 82.2091 39.125 81.1758 39.5583Z" fill="#B99EF6"/>
<path d="M87.7402 60.8083C87.3069 60.8417 86.9569 60.7917 86.6902 60.6583C86.4236 60.5583 86.0902 60.3917 85.6902 60.1583C84.9569 59.5917 84.3402 58.8917 83.8402 58.0583C83.3736 57.225 83.1569 56.525 83.1902 55.9583C83.2569 55.6583 83.2569 55.3917 83.1902 55.1583C83.1569 54.925 83.1402 54.8083 83.1402 54.8083C82.9402 54.6417 82.8736 54.5417 82.9402 54.5083C83.0069 54.4417 83.0569 54.3417 83.0902 54.2083C83.3569 54.1417 83.3902 53.9583 83.1902 53.6583C83.0902 53.3917 83.1402 52.7917 83.3402 51.8583C83.5736 50.8917 83.8736 49.9917 84.2402 49.1583C84.4069 48.7917 84.6402 48.3083 84.9402 47.7083C85.2736 47.1083 85.6402 46.5083 86.0402 45.9083C86.4402 45.275 86.8069 44.775 87.1402 44.4083C87.8736 43.575 88.5236 42.8917 89.0902 42.3583C89.6902 41.825 90.3569 41.425 91.0902 41.1583C91.7569 40.8917 92.4236 40.775 93.0902 40.8083C93.7902 40.8417 94.4069 41.075 94.9402 41.5083C95.7402 41.7417 96.4569 42.1083 97.0902 42.6083C97.7236 43.075 98.1569 43.7417 98.3902 44.6083C98.6569 45.575 98.7402 46.725 98.6402 48.0583C98.5736 49.3583 98.0069 51.0417 96.9402 53.1083C96.3069 54.4083 95.6736 55.4583 95.0402 56.2583C94.4402 57.0583 93.7069 57.825 92.8402 58.5583C92.2069 59.0917 91.3902 59.5583 90.3902 59.9583C89.3902 60.3583 88.5069 60.6417 87.7402 60.8083ZM92.0902 53.2583C92.5236 52.6583 92.8569 52.075 93.0902 51.5083C93.3569 50.9417 93.6069 50.1583 93.8402 49.1583C93.9402 48.7917 93.9902 48.3417 93.9902 47.8083C94.0236 47.275 94.0069 46.7917 93.9402 46.3583C93.9069 45.8917 93.7902 45.6417 93.5902 45.6083C93.1569 45.4417 92.7069 45.4417 92.2402 45.6083C91.8069 45.7417 91.2902 46.1417 90.6902 46.8083C90.1569 47.4083 89.7236 47.975 89.3902 48.5083C89.0902 49.0083 88.8069 49.625 88.5402 50.3583C88.3069 51.0583 88.0402 51.975 87.7402 53.1083C87.4736 54.2083 87.4569 55.0917 87.6902 55.7583C87.9569 56.425 88.4569 56.6083 89.1902 56.3083C89.9236 56.0083 90.8902 54.9917 92.0902 53.2583Z" fill="#B99EF6"/>
<path d="M103.555 58.6583C103.422 58.6583 103.105 58.5417 102.605 58.3083C102.105 58.0417 101.789 57.8417 101.655 57.7083C101.422 57.4417 101.272 57.1583 101.205 56.8583C101.139 56.525 101.105 55.8917 101.105 54.9583C101.105 53.8917 101.322 52.6917 101.755 51.3583C102.189 49.9917 102.922 48.175 103.955 45.9083L106.005 41.7583C106.172 41.525 106.322 41.325 106.455 41.1583C106.589 40.9583 106.739 40.775 106.905 40.6083C106.972 40.6083 107.055 40.6083 107.155 40.6083C107.289 40.6083 107.389 40.625 107.455 40.6583C107.755 40.6917 108.222 40.875 108.855 41.2083C109.522 41.5417 109.922 42.0417 110.055 42.7083C110.055 43.1417 109.989 43.6583 109.855 44.2583C109.722 44.825 109.322 45.575 108.655 46.5083C108.389 46.8417 108.122 47.325 107.855 47.9583C107.622 48.5917 107.405 49.1917 107.205 49.7583C107.172 49.825 107.072 49.9917 106.905 50.2583C106.772 50.4917 106.639 50.7417 106.505 51.0083C106.372 51.2417 106.305 51.3917 106.305 51.4583L106.105 51.9083L108.255 49.8083C109.755 48.3083 111.022 47.2417 112.055 46.6083C113.089 45.975 113.955 45.7083 114.655 45.8083C115.389 45.9083 115.972 46.325 116.405 47.0583C116.639 47.3917 116.805 47.7583 116.905 48.1583C117.005 48.525 117.072 48.9583 117.105 49.4583C117.139 49.9583 117.122 50.5917 117.055 51.3583V54.2083C117.689 54.0417 118.172 53.9083 118.505 53.8083C118.839 53.675 119.172 53.5583 119.505 53.4583C119.772 53.3917 120.039 53.325 120.305 53.2583C120.605 53.1917 120.972 53.1417 121.405 53.1083C121.372 53.5417 121.189 54.075 120.855 54.7083C120.522 55.3417 120.105 55.975 119.605 56.6083C119.139 57.2417 118.622 57.775 118.055 58.2083C117.522 58.6417 117.022 58.8583 116.555 58.8583C116.122 58.8583 115.622 58.725 115.055 58.4583C114.489 58.1583 114.005 57.5917 113.605 56.7583C113.472 56.325 113.339 55.825 113.205 55.2583C113.072 54.6917 113.005 54.0917 113.005 53.4583V51.2583C113.005 51.0583 112.989 50.925 112.955 50.8583C112.955 50.7583 112.939 50.7083 112.905 50.7083C112.772 50.7083 112.339 51.0583 111.605 51.7583C110.905 52.4583 110.189 53.1917 109.455 53.9583C107.922 55.5583 106.639 56.7417 105.605 57.5083C104.605 58.275 103.922 58.6583 103.555 58.6583Z" fill="#B99EF6"/>
</svg>
